<?xml version="1.0" encoding="UTF-8"?><svg id="Layer_2" xmlns="http://www.w3.org/2000/svg" viewBox="0 0 583.61 417.08"><defs><style>.cls-1{fill:none;stroke:#95b8d7;stroke-miterlimit:10;stroke-width:3px;}.cls-2{fill:#eca2ac;}.cls-3{fill:#eabfc9;}.cls-4{fill:#f2bdc9;}.cls-5{fill:#95b8d7;}</style></defs><g id="Layer_3"><g><path class="cls-3" d="M26.84,82.31C96.66,50.95,172.93,40.53,248.13,30.45l-19.84-4.6c-59.27,21.53-120.55,36.63-181.71,51.66l20.51,4.76c37.74-9.39,76.13-16.13,114.87-19.73l-14.11-5.62c-30.28,8.67-60.55,17.34-90.83,26-2.6,.74-6.19,2.11-2.27,4.08,4.64,2.32,11.4,1.75,16.37,1.55,30.93-1.27,61.82-3.36,92.64-6.25l-11.17-6.15c-30.2,3.72-60.4,7.44-90.6,11.17-1.8,.22-8.37,.92-6.66,3.8s11.32,2.47,13.98,2.47c22.71,.02,45.31-2.29,67.5-7.14,.66-.14,4.25-.93,4.25-2.38s-3.59-2.22-4.25-2.38c-6.45-1.57-14.03-1.41-20.51,0-15.48,3.38-31.18,5.18-46.99,5.17l7.32,6.27c30.2-3.72,60.4-7.44,90.6-11.17,1.75-.22,9.67-1.36,5.93-4.2s-12.87-2.35-17.11-1.95c-30.82,2.89-61.71,4.98-92.64,6.25l14.11,5.62c30.28-8.67,60.55-17.34,90.83-26,2.6-.74,6.19-2.11,2.27-4.08-4.49-2.25-11.55-1.99-16.37-1.55-43.04,3.99-85.71,11.02-127.66,21.46-.66,.16-4.25,.92-4.25,2.38s3.59,2.22,4.25,2.38c6.33,1.54,14.16,1.56,20.51,0,62.69-15.41,125.5-30.96,186.25-53.02,4.32-1.57-.16-3.56-2.27-4.08-5.62-1.37-11.88-1.29-17.57-.53-61.42,8.23-123.18,16.73-182.43,35.53-16.76,5.32-33.22,11.53-49.26,18.74-5.54,2.49,3.29,4.33,5.2,4.6,5.92,.83,14.18,1.34,19.84-1.21h0Z"/><path class="cls-3" d="M354.17,65.12c69.51-29.96,143.67-49,219.04-56.03l-14.11-7.64c-57.89,17.49-115.77,34.98-173.66,52.48-3.19,.96-5.89,3.17-2.27,5.54,4.34,2.84,11.5,2.44,16.37,2.1,43.61-3.03,87.05-8.16,130.19-15.23l-17.57-7.18c-33.02,9.51-66.2,18.42-99.54,26.71-4.29,1.07-5.5,4.08-1.13,6,5.68,2.5,12.75,1.98,18.71,1.18,42.15-5.71,84.31-11.43,126.46-17.14l-17.57-7.18c-24.82,8-50.32,13.88-76.21,17.09-2.58,.32-12.31,1.07-10.13,5.62,1.97,4.1,14.63,3.59,17.84,3.19,30.23-3.75,60-10.09,89-19.45,4.05-1.31,5.73-3.98,1.13-6-5.68-2.5-12.75-1.98-18.71-1.18-42.15,5.71-84.31,11.43-126.46,17.14l17.57,7.18c33.34-8.29,66.53-17.19,99.54-26.71,4.16-1.2,5.63-4.03,1.13-6-5.58-2.45-12.86-2.14-18.71-1.18-40.85,6.7-81.97,11.44-123.26,14.31l14.11,7.64c57.89-17.49,115.77-34.98,173.66-52.48,3.19-.96,5.89-3.17,2.27-5.54-4.27-2.8-11.57-2.55-16.37-2.1-63.22,5.89-125.75,19.27-185.67,40.34-17.13,6.02-34.03,12.7-50.71,19.89-5.99,2.58,3.09,5.85,5.2,6.26,6.44,1.23,13.76,.98,19.84-1.64h0Z"/><g><circle class="cls-4" cx="343.93" cy="255.98" r="15.52"/><circle class="cls-4" cx="417.57" cy="239.37" r="15.52"/><circle class="cls-4" cx="249.19" cy="248.61" r="15.52"/><circle class="cls-4" cx="170.77" cy="234.96" r="15.52"/><path class="cls-5" d="M220.32,155.52c6.1,16.15,20.93,27.59,37.51,31.52,5.47,1.3,13.23,1.73,17.79-2.28s-.74-7.77-4.66-8.7c-12.29-2.92-21.17-12.31-25.56-23.92-2.93-7.76-28.59-5.94-25.07,3.38h0Z"/><path class="cls-5" d="M191.49,146.76c-8.96,18.91-22.26,35.2-39.25,47.45-4.67,3.37,1.53,6.45,4.66,7.22,5.22,1.28,13.16,1.45,17.79-1.89,17.9-12.91,32.41-30.01,41.87-49.97,3.4-7.17-21.88-9.54-25.07-2.81h0Z"/><path class="cls-5" d="M263.04,153.75c7.34,18.28,21.69,32.98,39.33,41.58,5.4,2.63,13.01,2.82,18.38,0,4.59-2.41,4.88-6.94,0-9.32-15.16-7.39-26.38-20.17-32.64-35.76-3.21-7.99-28.87-5.95-25.07,3.51h0Z"/><path class="cls-5" d="M256.17,258.7c7.97,42.6-3.62,87.58-31.18,121.02-.43,.52,11.98,1.81,13,1.81,3.07,0,10.75,.91,13-1.81,27.56-33.44,39.15-78.43,31.18-121.02-.43-2.32-11.31-1.81-13-1.81-1.04,0-13.31,.18-13,1.81h0Z"/><path class="cls-5" d="M140.87,263.91c1.31,29.75-9.91,58.7-30.99,79.75-3.26,3.26,7.9,4.89,9.08,4.99,4.54,.4,12.39,.76,15.99-2.84,21.46-21.43,33.25-51.6,31.92-81.91-.27-6.06-26.25-5.64-26,0h0Z"/><path class="cls-5" d="M175.58,279.14c-.15,7.77-2.05,15.25-6.05,21.95-1.98,3.32,7.45,3.83,9.08,3.94,3.32,.23,6.72,.17,10.02-.32,1.52-.23,5.12-.49,5.97-1.91,4.37-7.32,6.82-15.1,6.98-23.65,.08-4.5-25.91-4.85-26,0h0Z"/><path class="cls-5" d="M237.97,277.48c-1.43,7.62-2.86,15.24-4.3,22.86-1.24,6.58,24.43,8.36,26,0,1.43-7.62,2.86-15.24,4.3-22.86,1.24-6.58-24.43-8.36-26,0h0Z"/><path class="cls-5" d="M278.95,254.65c3.5,16.71,3.28,34.14-1.4,50.6-1.58,5.56,4.45,8.22,9.08,8.95,4.01,.63,14.46,.3,15.99-5.08,5.1-17.9,6.15-36.21,2.33-54.47-1.19-5.67-7.89-7.28-13-7.28-3.16,0-14.15,1.76-13,7.28h0Z"/><path class="cls-5" d="M278.63,337.56c2.61,20.15-3.34,39.96-16.64,55.32-3.54,4.09,7.08,6.57,9.08,6.81,5.11,.61,12.34,.35,15.99-3.87,13.76-15.9,20.26-37.41,17.57-58.27-1.07-8.24-26.92-7.15-26,0h0Z"/><path class="cls-5" d="M100.47,351.94c-4.68,10.32-12.61,18.29-22.94,22.96-1.83,.83,8.44,2,9.08,2.03,4.76,.17,11.47,.9,15.99-1.15,10.62-4.81,19.06-13.22,23.87-23.84,.46-1.01-12.06-1.65-13-1.65-2.14,0-11.85-.89-13,1.65h0Z"/><path class="cls-2" d="M359.04,139.6c12.05,14.89,24.58,29.96,41.43,39.64,17.88,10.28,39.46,13.69,59.32,7.64,4.36-1.33,8.8-5.88,4.66-10.04s-12.42-4.27-17.79-2.63-9.71,1.45-15.43-.08c-6.47-1.72-12.54-4.94-17.97-8.82-12.47-8.91-22.22-21.31-31.78-33.12-5.75-7.1-30.63-2.7-22.45,7.41h0Z"/><path class="cls-2" d="M341.83,146.13c.51,16.7-.35,33.99-7.21,49.48-5.37,12.12-15.6,24.11-28.65,28.05-.79,.24-3.81,1.01-3.81,2.47s3.02,2.25,3.81,2.47c5.5,1.55,12.87,1.67,18.38,0,15.33-4.64,27.18-14.99,34.46-29.21,8.4-16.44,9.58-35.12,9.03-53.26-.16-5.23-26.15-4.93-26,0h0Z"/><path class="cls-2" d="M424.16,229.62c10.03,12.19,17.81,26.4,21.89,41.7,3.77,14.09,5.18,32.47-8.36,41.85-4.94,3.42,1.42,7.49,4.66,8.41,5.67,1.61,12.84,1.22,17.79-2.2,15.22-10.54,16.37-29.91,12.33-46.41s-12.02-32.97-23.24-46.61c-3.66-4.45-10.62-5.01-15.99-4.29-2.25,.3-12.68,3.19-9.08,7.56h0Z"/><path class="cls-2" d="M406.29,272.37c1.61,12.73,1.54,25.48-.19,38.19-.54,3.97,25.21,5.82,26,0,1.73-12.71,1.8-25.46,.19-38.19-.72-5.68-26.52-4.15-26,0h0Z"/><path class="cls-2" d="M303.97,262.26c1.86,15.85,7.75,31.05,17.17,43.96,4.61,6.32,9.96,12.53,17.32,15.65,10.22,4.33,23.31,3.8,33.6,.29,5.42-1.85-3.26-4.32-4.66-4.54-5.82-.9-12.18-.72-17.79,1.19,11.42-3.89,14.5,1.82,9.07-1.41-1.19-.7-2.26-1.56-3.3-2.47-2.05-1.8-3.89-3.85-5.64-5.95-3.75-4.48-7.06-9.35-9.83-14.49-5.38-9.99-8.62-20.99-9.94-32.23-.65-5.49-26.48-4.05-26,0h0Z"/><path class="cls-2" d="M331.22,283.33c2.3,11.94,10.25,21.93,21.29,27,4.54,2.08,11.14,1.42,15.99,1.23,2.5-.1,5.38-.02,7.77-.81,.4-.13,2.75-.7,1.31-1.36-10.76-4.94-18.12-14.46-20.36-26.06-.44-2.28-11.33-1.76-13-1.76-1.02,0-13.3,.19-13,1.76h0Z"/><path class="cls-2" d="M449.75,251.79c7.74,8.48,17.98,14.18,29.01,17.2,5.37,1.47,13.34,1.66,17.79-2.31s-.79-7.73-4.66-8.79c-7.85-2.15-14.22-6.6-19.68-12.59s-30.46-2.29-22.45,6.49h0Z"/><path class="cls-2" d="M147.65,316.63c-4.69,8.22-9.37,16.44-14.06,24.66-4.28,7.51-8.72,14.82-10.58,23.38-1.44,6.66,24.14,8.6,26,0,1.72-7.95,6.6-15.03,10.58-22.01,4.37-7.67,8.75-15.34,13.12-23.02,4.03-7.07-21.09-9.99-25.07-3.01h0Z"/><path class="cls-2" d="M152.02,329.29l-7.48,26.97-3.61,13.02c-1.21,4.36-2.99,8.81-2.65,13.39,.36,4.83,26.29,3.9,26,0-.32-4.29,1.26-8.37,2.39-12.46,1.29-4.65,2.58-9.3,3.87-13.95l7.48-26.97c.62-2.24-24.36-5.9-26,0h0Z"/><path class="cls-2" d="M158.17,346.06v44.05c0,4.08,26,4.17,26,0v-44.05c0-4.08-26-4.17-26,0h0Z"/><path class="cls-2" d="M173.54,365.54c.14,9.79,1.29,19.41,3.47,28.95,1.19,5.23,8.5,6.16,13,6.16,2.53,0,14.13-1.2,13-6.16-2.18-9.54-3.33-19.17-3.47-28.95-.12-8.63-26.12-8.6-26,0h0Z"/><path class="cls-2" d="M191.86,368.95c-.24,8.6,.56,17.06,2.4,25.46,.57,2.59,11.11,2.06,13,2.06,1.05,0,13.4-.24,13-2.06-1.84-8.41-2.64-16.86-2.4-25.46,.08-2.79-25.91-3.3-26,0h0Z"/><path class="cls-2" d="M206.46,371.47c-.32,8.05,.52,15.91,2.54,23.72s27.44,5.56,26,0c-2.01-7.8-2.86-15.66-2.54-23.72,.27-6.93-25.71-7.42-26,0h0Z"/><path class="cls-2" d="M220.16,379.94c.05,5.21,.77,10.29,2.18,15.31,.24,.86,3.58,1.09,3.81,1.11,3.01,.39,6.16,.48,9.19,.46,.94,0,13.33-.41,13-1.58-1.41-5.02-2.13-10.1-2.18-15.31-.02-2.38-26.02-2.31-26,0h0Z"/><path class="cls-2" d="M229.34,379.94l1.37,11.05c.58,4.7,9.56,5.17,13,5.11,3.04-.05,6.38-.24,9.19-1.5,1.34-.6,4.04-1.73,3.81-3.61l-1.37-11.05c-.58-4.7-9.56-5.17-13-5.11-3.04,.05-6.38,.24-9.19,1.5-1.34,.6-4.04,1.73-3.81,3.61h0Z"/><path class="cls-2" d="M213.26,356.23c-1.04,6.61-2.76,13.06-5.38,19.22-1.79,4.21,6.46,5.13,9.08,5.34,3.33,.26,6.73,.23,10.02-.44,1.6-.32,5.26-.92,5.97-2.59,2.97-6.96,5.13-14.04,6.31-21.53,.81-5.17-24.9-7.01-26,0h0Z"/><path class="cls-2" d="M197.99,364.69l-1.76,8.46c-.35,1.71,2.85,3.22,3.81,3.62,2.73,1.13,6.28,1.55,9.19,1.5s6.38-.24,9.19-1.5c1.73-.77,3.39-1.6,3.81-3.62l1.76-8.46c.35-1.71-2.85-3.22-3.81-3.62-2.73-1.13-6.28-1.55-9.19-1.5s-6.38,.24-9.19,1.5c-1.73,.77-3.39,1.6-3.81,3.62h0Z"/><path class="cls-5" d="M390.47,377.66c2.22-16.59-1.36-34.7,6.39-50.19l-25.54-1.13c.77,14.87,2.55,29.73,5.43,44.34,1.14,5.78,1.5,13.78,5.18,18.64,4.86,6.43,15.17,6.62,22.36,5.85s12.78-3.49,14.09-10.93,1.59-14.28,1.53-21.46-.58-14.85-.87-22.27c-.24-6.23-1.62-13.42,4.59-17.17-8.08-.71-16.15-1.43-24.23-2.14,.72,1.84,1.4,3.68,1.77,5.63,.22,1.18,0,1.64,.1,1.54l3.34-1.87-.23,.1,9.19-1.24c4.47-.89,8.15-.07,11.05,2.45-.23-.21-.44-.44-.63-.68-.08-.23-.79-1.43-.72-1.19-.51-1.68-.14-2.32,.35-2.59-8.08-.71-16.15-1.43-24.23-2.14,6.14,15.96,3.93,33.06,6.79,49.61,1.87,10.82,4.86,22,17.09,24.28,7.94,1.49,19.27,1.25,25.37-4.95,3.73-3.8,4.72-9.88,5.12-14.96,1.17-14.99-.06-30.2-3.84-44.74l-25.54,1.13c5.56,11.11,3.46,23.88,4.63,35.82,.77,7.95,3.29,19.73,11.59,22.94,7.07,2.73,17.95,3.5,24.58-.64,5.2-3.25,6.27-10.12,7.63-15.63,3.29-13.26,4.09-26.92,4.54-40.52,.19-5.85-25.77-6.34-26,0-.5,13.86,2.15,27.08,7.43,39.86,1.24,3.01,10.18,3.11,12.54,3.11,3.15,0,10.63,.06,12.54-3.11,5.69-9.45,8.4-20.08,7.53-31.1-.48-6.14-23.1-5.71-25.54-1.13-5.25,9.88-5.53,20.22-1.1,30.44,2.06,4.74,25.57,4.72,25.54-1.13-.11-17.01-2.42-33.81-6.91-50.21-1.04-3.82-8.29-4.04-11.27-4.16-3.35-.14-12.21-.54-14.26,3.04-1.82,3.17-3.83,4.39-6.62,6.47-1.43,1.07-1.64,.12-.04,.28,2.56,.26-1.31-.64-1.3-.64-3.68-1.14-6.91-2.99-10.35-4.64-5.93-2.84-13.5-3.1-19.87-1.83-3.43,.68-9.57,2.88-7.38,7.49,1.78,3.75,7.22,5.13,10.87,5.96,10.44,2.38,21.23,1.41,31.51-1.19,3.89-.98,4.91-3.8,1.02-5.57-4.85-2.2-11.68-2.16-16.77-1.09,6.22-1.3,7.44,1.1,2.67-.84-1.68-.68-3.31-1.52-4.96-2.28-4.22-1.93-8.45-3.72-13.01-4.68-3.14-.66-6.4-.9-9.6-.94-2.21-.03-6.12-.58-8.23,.35,5.47-2.42,6,3.35,3.98-.84-.24-.5-1.06-2.59-.38-3.07,1.04-.72,2.49-1.88,1.31-3.27-6.68-7.83-22.47-6.75-31.12-3.47s-10.32,10.89-11,19.09h26c-.97-5.74-1.94-11.48-2.9-17.22l-16.46,4.09c12.74,1.39,25.65-.25,37.26-5.75-8.08-.71-16.15-1.43-24.23-2.14-1.04,6.71,1.95,13.05-.42,19.65l1.77-2.14c-3.46,1.66-7.07,2.91-10.71,4.1-1.58,.52-3.17,1-4.74,1.54-3.15,1.08-9.34,2.11-.04,1.71,11.23-.48,.36-1.36-2.02-1.58-3.33-.31-6.73-.18-10.02,.43-3.8,.7-6.73,1.96-9.59,4.54-3.51,3.17,7.99,5.11,9.08,5.22,4.88,.45,12.07,.59,15.99-2.96,1.45-1.17,.67-1-2.36,.53h-13.12c7.91,1.82,15.69,2.69,23.8,.47,5.71-1.56,11.51-3.8,17.08-5.86,2.78-1.03,5.75-2.05,8.34-3.5s3.22-3.61,3.56-6.44c.64-5.29-1.43-10.4-.6-15.72,.48-3.06-8.14-3.96-9.54-4.09-4.87-.45-10.21-.17-14.68,1.95-2.86,1.35-5.58,2.1-7.9,1.85-1.5-.16-17.24-.55-16.46,4.09,.97,5.74,1.94,11.48,2.9,17.22,1.04,6.19,25.48,6.21,26,0,.26-3.06,.4-6.5,1.59-9.38,.58-1.41,1.37-2.27,2.23-3.48,3.47-4.9-16.34-4.7-12.76-.51l1.31-3.27c-4.71,3.28-4.47,8.26-.14,11.99,5.97,5.15,18.48,5.92,25.9,4.37,2.45-.09,2.14-.2-.92-.33-2.97-.45-3.35-.37-1.13,.23,1.14,.54,2.37,.95,3.53,1.47,3.45,1.57,6.86,3.28,10.44,4.53,8.7,3.02,18.43,3.52,27.42,1.63l-15.75-6.66c-2.38,.6-1.5-.09-.79,.06,4.56,.95,1.77-.41,1.96-.53l-11.23,2.1,1.01-.03-9.19-1.24c4.84,1.52,9.31,4.58,14.27,6.09,6.56,2,13.36,2.98,20.22,2.86,10.9-.19,24.48-2.66,30.39-12.96l-25.54-1.13c4.48,16.4,6.79,33.21,6.91,50.21l25.54-1.13c-3.57-8.22-3.09-18.05,1.1-25.93l-25.54-1.13c.8,10.21-1.31,20.05-6.6,28.85h25.07c-4.92-11.91-6.96-24.77-6.5-37.61h-26c-.3,8.99-.72,17.99-1.95,26.9-.59,4.27-1.36,8.52-2.36,12.71-.58,2.44-1.19,4.91-2,7.28-.34,1.29-.82,2.52-1.45,3.7-1.21,1.04-1.19,1.35,.05,.95l12.65-1.09c6.86,.53,4.97,2.47,2.89-1.3-.99-1.8-1.5-3.84-2.08-5.8-1.41-4.81-2.19-9.33-2.41-14.38-.49-11.49,.05-22.62-5.24-33.18-2.51-5.01-26.74-3.53-25.54,1.13,3.24,12.49,4.27,24.96,4.08,37.83-.06,4.31-.12,8.69-1.09,12.91-.54,2.34-1.46,3.92-2.65,5.93l-.69,.76c-2.3,1.83,.18,1.96,7.43,.39,13.89,.24,8.32,2.01,6.77-1.01-4.29-8.39-6-16.74-6.74-26.25-1.06-13.46-.71-27.02-5.63-39.82-1.27-3.3-6.54-3.81-9.54-4.09-4.64-.43-10.51-.41-14.68,1.95-5.64,3.19-4.76,9.66,.63,12.61,3.39,1.86,8.02,2.17,11.77,2.15,3.41-.02,10.29,0,12.77-3.21,2.11-2.73,.12-6.68-.95-9.42-2.56-6.59-19.5-5-24.23-2.14-4.47,2.7-7.95,6.63-8.34,12.02-.49,6.76,.41,13.83,.72,20.6s.54,13.59,.18,20.38c-.24,4.55,.37,14.37-4.12,16.88l7.77-1.95,10.42,1.03-.8-.95c-.44-1.11-1.02-1.78-1.38-2.95-.76-2.48-1.14-5.16-1.68-7.7-1.2-5.64-2.26-11.3-3.12-17-1.65-10.99-2.92-21.97-3.5-33.07-.32-6.06-23.23-5.75-25.54-1.13-8.29,16.57-4.94,34.72-7.32,52.44-.69,5.19,25.09,6.81,26,0h0Z"/><path class="cls-5" d="M313.8,315.47c-1.79,13.05-1.76,26.17-.9,39.29,.43,6.47,1.03,12.93,1.64,19.38,.45,4.71,1.95,9.43,5.74,12.5,2.52,2.04,9.63,1.52,12.54,1.52,3.91,0,8.94,.27,12.54-1.52,3.26-1.63,2.57-3.63,2.9-7.22,.47-5.06,1.16-10.09,1.9-15.11,1.48-10.07,3.15-20.11,4.01-30.27h-26c3.33,18.42,6.67,36.84,10,55.26,.35,1.95,8.53,1.96,9.54,2,4.86,.22,9.92,.17,14.68-.95,7.85-1.85,8.42-9.52,9.04-16.34,.21-2.31-25.65-3.79-26,0-.38,4.11-.32,13.03-5.49,14.25l24.23,1.05c-3.33-18.42-6.67-36.84-10-55.26-.62-3.42-25.75-3.01-26,0-.8,9.52-2.32,18.94-3.72,28.38-.66,4.4-1.29,8.8-1.79,13.23-.27,2.41-.12,5.22-.71,7.56-.48,1.9,.09,1.46-1.66,2.34h25.07c-4.22-3.41-4.63-9.34-5.09-14.33-.57-6.12-1.12-12.23-1.49-18.37-.75-12.48-.68-24.96,1.02-37.37,.27-1.94-25.44-4.09-26,0h0Z"/><path class="cls-2" d="M179.62,347.92c7.24-.28,14.09,3.14,20.93,5.09s13.2,2.76,20.05,2.19c1.26-.1,4.81-.37,4.19-2.26-.55-1.68-6.29-1.37-7.38-1.28-6.49,.54-13.2-2.9-19.3-4.73s-12.18-2.92-18.49-2.68c-1.1,.04-6-.01-6,1.83s5.14,1.87,6,1.83h0Z"/><path class="cls-2" d="M167,328.76c23.52,5.65,47.4,9.66,71.47,12.06,2,.2,6.53,.93,8.21-.41,1.56-1.24-.73-1.41-2.15-1.55-23.27-2.32-46.31-6.24-69.04-11.71-2.43-.58-6.09-.81-8.49,0-1.79,.61-2.34,1.04,0,1.61h0Z"/><path class="cls-2" d="M163.45,315.29c9.49,7.99,25.11,6.34,36.68,7.02,14.92,.87,29.85,1.73,44.77,2.6,1.57,.09,6-.42,6-2.7s-4.56-2.61-6-2.7c-12.33-.72-24.66-1.43-36.98-2.15-5.84-.34-11.68-.68-17.52-1.02s-11.99,.09-16.59-3.78c-2.64-2.23-14.14-.46-10.36,2.72h0Z"/><path class="cls-2" d="M197.6,302.78l-.1,.29,10.24-.76-.49-.1,1.76,.76,.36-.53-8.81,.64c4.75,.65,9.41,2.25,14.26,2.8,5.45,.61,10.91,.7,16.38,.55,.97-.03,4.51-.02,4.19-1.33-.27-1.12-6.74-.77-7.38-.75-6.71,.17-12.74-1.57-19.23-2.84-3.57-.7-8.42-1.11-11.69,.75l-.21,.29c.36,1.04,1.4,1.08,2.39,1.27,1.57,.31,9.56,1.3,10.24-.76l.1-.29c.13-.38-11.17-2.49-12,0h0Z"/><path d="M366.33,283.39l-.32,.28,5.11-.32c-.81,1.46-.32,2,1.48,1.61,.9,.12,1.79,.25,2.68,.4,1.79,.28,3.56,.59,5.36,.82,3.05,.39,6.13,.63,9.2,.33,5.46-.54,10.26-2.44,13.87-6.65,1.51-1.76-4.53-2.1-5.44-1.55-2.91,1.76-5.83,3.52-8.74,5.29-2.4,1.45,.75,2.79,2.3,2.71,3.91-.2,7.44-.99,10.92-2.8,3.1-1.61-1.93-2.76-3.17-2.66-5.65,.45-10.98,1.74-16.26,3.78-2.86,1.1,1.16,2.67,2.3,2.71l5.08,.19c3.91,.14,3.89-3.03,0-3.18-4.59-.18-9.01,.27-13.5,1.2-.68,.14-2.04,.9-1.5,1.8,2.12,3.46,5.85,5.89,9.99,4.09,3.41-1.48,3.32-4.96-.33-6.01-3.84-1.1-10.28-.41-13.22,2.5s-1.97,7.03,2.06,8.12c2.5,.68,6.95,.32,7.74-2.71,1.06-4.09-4.95-6.91-8.2-5.72s-2.76,4.57,.47,5.43c4.2,1.12,7.99-1.34,7.4-5.78-.22-1.66-2.98-1.62-4.12-1.53-3.84,.3-8.66,4.23-5.1,8.16,2.73,3.02,8.86,2.49,11.45-.3,1.25-1.35-.78-2.22-1.94-2.34-3.78-.39-6.99,.32-9.4,3.41-.89,1.14,1.73,1.89,2.27,1.96,4.41,.57,8.43,.03,12.45-1.94,2.14-1.05,0-2.54-1.44-2.66-5.98-.5-11.33,.66-16.31,4.09-1.27,.88,.39,1.93,1.17,2.18,8.19,2.56,15.61-2.11,23.53-3.55,4.38-.79,12.38-4.8,7.12-9.98-1.17-1.15-3.78-.93-5.11-.32-2.29,1.05-4.17,2.34-5.93,4.18-1.32,1.38,.86,2.15,1.94,2.34,2.62,.45,4.93,.15,6.93-1.69,1.05-.96-.16-1.93-1.17-2.18-5.27-1.28-10.76-.5-14.52,3.71-1.52,1.7,1.63,2.38,2.81,2.39,5.09,.07,10.13-.24,15.17-.91,.94-.13,2.17-.48,2.39-1.53,.78-3.81,4.76-12.15-.52-13.78-1.71-.52-3.87-.16-5.47,.5-3.93,1.63-6.89,3.89-11.32,4.5-3.62,.5-2.2,3.26,.87,3.12,2.12-.1,4.24-.19,6.36-.29l-1.64-2.96c-6.5,1.5-13.1,2.04-19.75,1.57-1.17-.08-5.45,.33-3.68,2.34,8.1,9.16,21,4.85,31.27,8.35,2.24,.77,7.3-1.38,3.29-2.75-9.23-3.15-21.91,.73-28.93-7.21l-3.68,2.34c8.41,.6,16.54,0,24.77-1.89,3.35-.77,.39-3.05-1.64-2.96s-4.24,.19-6.36,.29l.87,3.12c2-.27,3.96-.62,5.88-1.24,1.79-.57,3.66-1.99,5.42-2.4,.73-.23,.69-.54-.11-.94l-.71,3.43c-.47,2.29-.94,4.57-1.41,6.86l2.39-1.53c-4.48,.59-8.92,.85-13.44,.8l2.81,2.39c1.44-1.61,3.16-3.17,5.61-2.57l-1.17-2.18,.42,.23,1.94,2.34c1.47-1.53,2.97-2.64,4.91-3.53l-5.11-.32c4.37,4.3-6.02,5.61-8.54,6.29-4.12,1.11-8.83,4.25-13.21,2.88l1.17,2.18c2.73-1.88,5.6-2.91,8.96-2.63l-1.44-2.66c-1.87,1.13-3.91,1.5-6.11,1.12l2.27,1.96,1.4-1.19-1.94-2.34c.08-.09-1.12-3.03,1-3.19l-4.12-1.53c.25,.96,.21,1.92-.11,2.87l3.17,.41,.04-.75-2.81,.79h.78c-.94-.27-1.87-.54-2.81-.8,.65,.66,1.4,1.16,2.25,1.5,1.25,1.14,1.85,.7,1.82-1.33,1.38-1.88,6.13-.9,4.57-3.45l-1.5,1.8c3.39-.7,6.76-.9,10.21-.76v-3.18l-5.08-.19,2.3,2.71c4.35-1.68,8.75-2.6,13.39-2.96l-3.17-2.66c-2.06,1.07-3.95,1.75-6.32,1.87l2.3,2.71c2.91-1.76,5.83-3.52,8.74-5.29l-5.44-1.55c-5.27,6.14-13.42,4.36-20.42,3.28-3.69-.57-8.41-1.88-11.63,.6-.27,.2-.42,.47-.44,.8,.25,1.09,.58,1.41,1.58,1.91,1.36,.68,3.9,.76,5.11-.32l.32-.28c2.12-1.88-4.1-2.96-5.62-1.61h0Z"/><path d="M341.46,369.9c-8.63,.86-17,.06-25.36-2.24-.85-.23-5.48-.38-4.78,1.34,2.67,6.5,5.6,12.86,8.81,19.1,.63,1.23,6.4,1.36,6.39-.31-.02-5.48-1.17-10.53-3.42-15.51-.63-1.4-6.75-.98-6.39,.31,1.33,4.87,3.34,9.27,6.21,13.44,.75,1.09,6.37,1.47,6.39-.31,.06-4.29-1.05-8.07-3.36-11.67-.72-1.13-6.39-1.44-6.39,.31-.01,5.03,1.81,9.25,5.52,12.67,.98,.9,6.09,1.68,6.39-.31,.64-4.18,.52-8.05-.39-12.19-.37-1.67-6.4-1.74-6.51,0-.34,5.31,.34,10.34,2.07,15.36,.55,1.59,6.24,1.84,6.51,0,.56-3.79,.71-7.47,.45-11.3-.12-1.73-6.56-1.65-6.51,0,.09,2.97,.18,5.93,.27,8.9,.05,1.64,5.86,1.63,6.39,.31,1.46-3.61,2.03-7.07,1.63-10.96-.17-1.7-6.36-1.71-6.51,0-.37,4.36-.09,8.45,.87,12.72,.38,1.71,6.17,1.74,6.51,0,.89-4.61,1.13-9.13,.73-13.81-.15-1.73-6.55-1.65-6.51,0,.07,3.03,.14,6.06,.21,9.09,.04,1.91,5.56,1.25,6.39,.31,4.69-5.26-.34-10.18-5.98-10.58l2.27,1.45c-.61,1.26,.54,5.33,.73,7.17,.29,2.77,.57,5.54,.86,8.31l6.39-.31c-2.45-4.37-8.66-4.87-12.89-3.02-1.07,.47-1.24,1.2,0,1.67,2.81,1.08,5.46,1.48,8.47,1.39,.45-.01,3.5-.15,3.25-1.18-.69-2.84-1.37-5.68-2.06-8.52-.53-2.21-.71-5.46-1.84-7.43-.59-1.02-4.87-2.66-4.85-2.55l-1.61,1.02c4.27-.74,7.28,6.68,7.86,9.48,.71,3.45,.51,7.03,.34,10.52-.08,1.61,6.42,1.76,6.51,0,.32-6.53,.53-13.97-4.66-18.8-3.72-3.46-8.49-4.09-13.33-3.25-.37,.06-1.71,.39-1.61,1.02,.35,2.39,3.09,1.59,4.52,2.82,1.51,1.3,1.71,5.22,2.17,7.16,.69,2.84,1.37,5.68,2.06,8.52l3.25-1.18-3.86-.7v1.67c.99,.36,1.66,1.02,2.01,1.97,.66,1.19,6.56,1.31,6.39-.31-.5-4.81,.52-15.22-4.64-17.91-2.75-1.44-8.24-1.29-9.74,1.81-.52,1.08,1.67,1.41,2.27,1.45,4.24,.31,3.24,5.65,1.43,7.68l6.39,.31c-.07-3.03-.14-6.06-.21-9.09h-6.51c.4,4.68,.16,9.2-.73,13.81h6.51c-.96-4.27-1.24-8.36-.87-12.72h-6.51c.37,3.64-.01,6.91-1.4,10.33l6.39,.31c-.09-2.97-.18-5.93-.27-8.9h-6.51c.26,3.82,.11,7.51-.45,11.3h6.51c-1.73-5.03-2.41-10.06-2.07-15.36h-6.51c.91,4.13,1.03,8,.39,12.19l6.39-.31c-3.55-3.26-5.3-7.2-5.29-12.04l-6.39,.31c2.23,3.48,3.18,6.94,3.12,11.04l6.39-.31c-2.73-3.97-4.7-8.15-5.97-12.81l-6.39,.31c2.17,4.81,3.17,9.62,3.19,14.88l6.39-.31c-3.21-6.25-6.14-12.61-8.81-19.1l-4.78,1.34c9.94,2.74,20.12,3.5,30.37,2.48,4.42-.44,.97-2.55-1.73-2.28h0Z"/><path d="M463.01,360.47c8.31-3.86,16.86-6.98,25.71-9.39l-5.56-.65c-1.69,5.23-2.62,10.49-2.84,15.98-.05,1.23,6.26,1.44,6.51,0,.68-3.91,1.37-7.81,2.05-11.72,.18-1.02-6.14-1.55-6.51,0-1.29,5.33-2.3,10.7-3.03,16.13-.15,1.09,6.21,1.52,6.51,0l2.62-13.49c.21-1.08-5.93-1.39-6.51,0-2.65,6.35-5.3,12.69-7.96,19.04-.28,.66,5.7,1.55,6.39,.24,3.12-5.88,4.56-12,4.26-18.66-.06-1.42-5.72-1.13-6.39-.24-4.02,5.31-6.61,11.18-7.81,17.74-.2,1.12,5.92,1.36,6.51,0,2.29-5.29,3.56-10.69,3.88-16.45,.07-1.3-6.01-1.32-6.51,0l-5.61,14.8c-.35,.92,5.62,1.18,6.39,.24,2.98-3.61,3.15-8,.5-11.86-.88-1.28-5.25-.87-6.28,0-4.15,3.55-5.58,8.76-3.69,13.92,.49,1.35,5.64,1.35,6.39,.24,3.09-4.54,5.59-15.32-2.63-15.12-7.1,.17-8.94,8.42-5.16,13.55,.69,.93,6.2,1.19,6.39-.24,.59-4.39-.36-8.26-2.78-11.93-.78-1.19-5.4-.98-6.28,0-3.48,3.9-3.94,8.93-1.31,13.44,.67,1.15,5.91,1.07,6.39-.24,1.59-4.3,.98-8.39-1.56-12.15-.79-1.17-5.78-1.07-6.39,.24-4.71,10,3.27,24.68,15.25,19.77,3.79-1.55,4.77-6.41,.5-8.01-3.07-1.15-8.06-.74-9.3,2.7-.18,.5,1.44,.76,1.61,.79,4.37,.91,8.8,.47,12.4-2.31l.12-.24c-2.37-5.91-16.71-5.68-14.46,1.96,1.79,6.1,17.01,4.04,13.14-2.83-1.62-2.87-6-3.46-8.96-2.65-3.4,.94-3.72,3.61-.38,4.83,9.91,3.62,15.56-10.42,16.85-17.74,.15-.87-2.99-.91-3.25-.92-5.43-.12-10.34,1.25-14.15,5.27-1.01,1.06,4.96,1.01,5.44,.9,4.36-1.02,8.18-2.87,11.68-5.66,.15-.16,.15-.33,0-.49-3.88-6.85-18.62,1.17-22.68,3.66-1.82,1.12,3.88,1.36,4.45,1.26,6.2-1.13,11.7-3.39,16.8-7.11,.74-.54-1.41-1.03-1.5-1.04-6.67-.88-13.19,.13-18.31,4.76-.98,.89,4.35,1.13,4.78,1.04,5.41-1.09,10.12-3.12,14.48-6.54,.71-.56-1.38-1.03-1.5-1.04-8.02-.97-15.82,.46-21.9,6.08-.97,.9,4.34,1.14,4.78,1.04,4.92-1.07,9.88-2.19,14.65-3.8,2.97-1.01,5.52-2.21,6.69-5.25,.43-1.12-5.66-.87-6.39-.24-4.71,3.99-10.17,6.47-16.36,6.87-.43,.03-2.82,.24-2.27,1.13,1.94,3.17,4.67,5.38,8.19,6.57,3.29,1.11,6.26,.32,9.5,.82,2.98,.46,1.27,3.67,4.41,4.51,1.68,.45,4.81,.54,5.88-1.02l-6.39-.24c-.33,1.04-1.77,1.29-2.39,2.22-.15,.16-.15,.33,0,.49,.89,1.16,2.65,1.1,3.99,1.06,.69-.02,3.05,.06,3.25-.92l.08-.36c.3-1.38-5.45-.75-6.06-.46-5.47,2.51-9.06-3.89-11.63-7.42-1.92-2.65-3.87-4.86-6.91-6.18-1.21-.53-3.19-.76-4.45-.33-.41,.14-2.53,.66-1.17,1.26,6.1,2.66,7.6,10.13,13.26,13.38,4.92,2.83,11.48,2.53,16.52,.21l-6.06-.46-.08,.36,3.25-.92-.54,.02,3.14,.68c.21,.27,2.14-2.06,2.32-2.62,.3-.97-5.69-1.26-6.39-.24l-.35,.51,4-.64-.75-.04,2.27,.64c-1.37-1.22-.35-3.24-2.05-4.46-1.07-.77-2.83-.9-4.1-.99-1.63-.12-3.21,.23-4.83,.21-4.41-.06-7.43-2.5-9.62-6.09l-2.27,1.13c7.81-.5,14.91-3.08,20.91-8.15l-6.39-.24c-2.06,5.38-13.26,6.41-18.11,7.47l4.78,1.04c3.31-3.05,7.66-5.55,12.34-4.98l-1.5-1.04c-3.45,2.71-7.16,4.56-11.49,5.44l4.78,1.04c2.35-2.13,5.36-4.11,8.74-3.66l-1.5-1.04c-4.2,3.06-8.68,5.08-13.81,6.01l4.45,1.26c1.49-.92,8.24-5.51,9.86-4.62s-8.75,4.8-9.09,4.88l5.44,.9c2.16-2.28,4.6-3.99,7.87-3.92l-3.25-.92c-.86,4.91-3.96,15.26-9.84,16.58h4.6c-.8-.23-1.13-1.95-2.32-1.03-.1,.07,1.05,2.59,.47,3.3s-.63-1.64-.61-2.23c.06-.44,.14-.87,.26-1.29,.47-1.71-.02-1.03-1.48,2.06l1.61,.79c-1.59-1.44-1.86-1.13-.81,.94,.14,1.54-.79,2.27-2.77,2.2-1.68-.4-2.86-4.25-3.2-5.45-1.07-3.81-1.38-8.54,.32-12.16l-6.39,.24c2.48,3.66,2.84,7.56,1.33,11.66l6.39-.24c-2.41-4.13-1.86-8.91,1.31-12.46h-6.28c2.38,3.62,3.12,7.2,2.55,11.44l6.39-.24c-1.39-1.89-2.08-4.05-1.74-6.41,.19-1.28,1.13-4.76,2.7-4.96l-4.78-.55c3.85,2.91,1.14,10.43-.94,13.48l6.39,.24c-1.82-4.97-.59-9.96,3.46-13.43h-6.28c2.43,3.54,2.24,7.56-.5,10.88l6.39,.24,5.61-14.8h-6.51c-.32,5.76-1.59,11.16-3.88,16.45h6.51c1.17-6.38,3.66-12.07,7.58-17.25l-6.39-.24c.29,6.45-.99,12.45-4.02,18.18l6.39,.24c2.65-6.35,5.3-12.69,7.96-19.04h-6.51l-2.62,13.49h6.51c.74-5.43,1.75-10.8,3.03-16.13h-6.51c-.68,3.91-1.37,7.81-2.05,11.72h6.51c.22-5.49,1.16-10.76,2.84-15.98,.38-1.19-5.02-.8-5.56-.65-9.19,2.5-18.09,5.75-26.72,9.76-1.33,.62,.76,1.13,1.17,1.26,1.23,.39,3.27,.22,4.45-.33h0Z"/><path class="cls-5" d="M347.96,340.99c.78,10.47,3.14,20.59,7.09,30.32,.91,2.23,11.67,2.52,12,0,1.36-10.41,1.03-20.78-.99-31.07-.49-2.49-12.08-2.13-12,0,.38,9.6,1.34,19.12,2.9,28.59,.43,2.62,10.41,1.92,11.79,.42,3.4-3.69,2.58-8.52,1.75-13.09-1.12-6.2-2.81-12.24-4.93-18.17-.82-2.3-10.6-2.4-11.79-.42-3.12,5.2-3.1,10.69,.05,15.86,1.17,1.93,10.36,1.84,11.57,0,3.44-5.24,4.37-12.49,.39-17.79-3.15-4.21-11.95-4.21-16.18-1.72-4.61,2.72-3.99,9.37-.01,12.39,4.45,3.38,12.44,3.02,17.44,1.33,3.92-1.32,10.45-6.86,6.45-11.39-3.18-3.6-12.73-2.68-16.05,.28-2.8,2.51-7.72,12.53-4.36,15.42s13.03,1.77,15.07-2.49c3.04-6.35-2.77-11.81-8.56-12.85-3.97-.72-8.15-.52-12.09,.33-2.07,.44-4.05,1.19-6.11,1.69-1.93,.46,.64-.21,.86-.33,.92-.51,2.82-1.84,3.55-1.69,2,.41,5.91,.71,7.74-.41,1.36-.83,1.75-1.62-.47-2.08-4.42-.91-8.84-1.82-13.26-2.74l-1.21,2.49c4.3-.67,8.52-.91,12.86-.64v-3.06c-2.2,.09-4.32-.26-6.46-.75l-4.24,2.71c7.14-.09,12.92,10.12,15.35,15.49,2.71,5.99,5.81,13.08,6.11,19.7,.24,5.45-1.49,9.86,5.33,11.04,2.35,.41,12.63,.62,10.6-4.16-1-2.34-11.19-2.52-12,0-1.72,5.36-.41,8.64,5.31,9.38,3.09,.4,10.81,.96,11.46-3.44h-12c-.18,2.73,1.16,4.31,3.55,5.44l.94-1.92c-.59,.19-2.76-1.17-3.62-1.42-1.91-.56-3.89-.83-5.89-.85-2.41-.02-7.39-.12-8.44,2.73-2.88,7.81,17.76,6.48,20.87,5.89,.75-.14,4.6-1.07,2.15-2.17-8.8-3.95-18.65-4.28-27.96-2.14-.94,.22-2.74,1.26-.94,1.92,8.12,2.98,16.57,3.92,25.18,3.1,3.1-.29,6.53-2.07,1.43-2.9-9.14-1.5-18.42-1.46-27.53,.25-1.72,.32-4.75,1.73-1.21,2.49,13.22,2.83,26.55,3.32,39.95,1.57,3.49-.46,3.5-2.29,0-2.74-10.77-1.38-21.58-2.14-32.44-2.25-2.77-.03-9.36,2.06-3.03,2.96,9.68,1.37,19.36,2.88,29.06,4.11,3.75,.48,16.56,1.72,15.25-5.18-.2-1.03-2.22-1.26-2.97-1.37-12.54-1.75-25.12-1.22-37.41,1.88-2.06,.52-1.9,1.14-.47,2.08,1.76,1.16,5.86,.74,7.74,.41,2.01-.35,3.77-.43,5.8-.22,1.32,.13,6.2,.48,7.08-.92s-.93-1.8-2.45-1.98c-10.15-1.18-20.29-1.46-30.49-.74-.72,.05-4.4,.22-4.4,1.53s3.69,1.5,4.4,1.53c10.83,.49,21.65,.98,32.48,1.47,5.33,.24,18.03,2.73,20.81-3.66,.36-.82-10.67-3.06-12,0,.41,.9,.13,1.18-.84,.82l-2.87-.13-3.82-.17c-3.5-.16-7.01-.32-10.51-.48-6.69-.3-13.37-.6-20.06-.91v3.06c7.1-.51,14.17-.41,21.24,.42l4.62-2.9c-5.04-.51-10.06-.34-15.04,.54l7.27,2.49c7.59-1.92,15.1-2.47,22.86-1.39l-2.97-1.37c.12,.65-.67,2.44-.59,2.59,3.71,.05,4.52-.05,2.43-.28l-1.94-.27c-2.91-.41-5.81-.82-8.72-1.23-5.81-.82-11.62-1.64-17.44-2.46l-3.03,2.96c8.83,.09,17.62,.69,26.38,1.82v-2.74c-8.52,1.12-17.01,.73-25.41-1.07l-1.21,2.49c5.23-.98,10.17-1.1,15.42-.25l1.43-2.9c-4.08,.39-7.78-.23-11.63-1.64l-.94,1.92c3.34-.77,6.08,.13,9.12,1.49l2.15-2.17c-2.07,.39-1.79-1.47-3.04-1.99-.06-.03-7.37-1.7-4.17,0,1.77,.94,3.99,1.33,5.94,1.6,4.29,.61,8.76,.32,12.89-.98,1.03-.32,2.65-1.12,.94-1.92s-2.02-2.17-1.91-3.83c.14-2.04-11.62-2.56-12,0l6.45-.41c-.17-.68-.19-1.37-.08-2.05,.09-1.2,.48-2.34,.85-3.47h-12c.42,.52,.48,1.08,.19,1.67l9.42,.32c-3.15-1.14-1.49-5.69-1.5-7.95-.01-3.11-.81-6.14-1.76-9.07-1.75-5.38-3.77-10.84-6.5-15.81-5.36-9.77-14.22-14.53-25.24-14.4-1.41,.02-9.21,1.56-4.24,2.71,6.03,1.39,11.96,1.81,18.13,1.57,.72-.03,4.4-.24,4.4-1.53s-3.69-1.49-4.4-1.53c-7.42-.46-14.76-.18-22.11,.96-1.76,.27-4.71,1.77-1.21,2.49,4.42,.91,8.84,1.82,13.26,2.74l7.27-2.49c-7.57-1.54-16.3-.72-22.27,4.55-.29,.28-.29,.56,0,.84,5.22,3.5,12.17,3.34,18.14,2.12,2.94-.6,5.66-2.82,7.7,.09,.81,1.16,1.3,2.59,1.42,3.99,.04,.53-.19,4.75-.78,4.83l8.21,.57c-1.37-.82,.71-5.94,1.07-6.96,.96-2.69,2.24-6.22,5.14-7.3l-6.78,.73c-1.79-.09-1.27,3.44-1.95,4.73-.37,.69-1.67,1.66-1.89,2.3-.85,.46-.66,.75,.56,.86,1.49,.7,1.45,.54-.12-.48-1.78-3.12-3.73-7.99,1.05-9.85l-5.18,.79,1.16-.03-5.18-.79c6.38,2.62,4.47,13.4,1.64,17.72h11.57c-2.7-4.42-2.72-9.73-.05-14.17l-11.79-.42c1.91,5.36,3.48,10.82,4.59,16.41,.89,4.48,2.47,10.27-.99,14.01l11.79,.42c-1.55-9.48-2.52-19-2.9-28.59h-12c2.02,10.3,2.36,20.67,.99,31.07h12c-3.95-9.73-6.31-19.85-7.09-30.32-.19-2.5-12.16-2.1-12,0h0Z"/><path d="M198.56,182.06c1.32,1.65,3.15,2.29,5.19,2.55,.88,.11,1.84,.1,2.71-.04,.16-.02,1.2-.15,.87-.48-1.77-1.8-3.77-3.29-6-4.48-.85-.45-2.08-.37-3-.32-.27,.01-2.04,.11-1.7,.56,1.32,1.76,2.97,3.14,4.94,4.13,.86,.44,2.06,.37,3,.32,.2-.01,2.11-.34,1.7-.56-1.09-.59-2.18-1.18-3.27-1.77-.66-.35-1.64-.33-2.35-.33-.5,0-2.01-.12-2.35,.33-1.25,1.67-.25,3.79,1.67,4.31,1.26,.34,3.59,.57,4.72-.27,.89-.67,1.15-1.86,.73-2.85-.24-.57-1.96-.45-2.44-.45-.17,0-2.58,.13-2.44,.45,.44,1.04,.16,2.15-.81,2.78l4.46-.11c-1.47-.36-2.06-2.43-1.17-3.61h-4.71c1.09,.59,2.18,1.18,3.27,1.77l4.71-.24c-1.97-.99-3.61-2.37-4.94-4.13l-4.71,.24c2.23,1.19,4.23,2.68,6,4.48l3.59-.51c-1.17-.15-2.25-1.13-2.95-2.01-.46-.57-2.37-.35-3-.32-.26,.01-2.05,.12-1.7,.56h0Z"/><path d="M246.12,182.68c-1.04,.52-1.99,.82-3.17,.81-.41,0-3.41,.37-2.11,1.22,2.61,1.71,5.83,1.96,8.84,1.37,.33-.06,1.53-.35,1.12-.92-2.03-2.83-6.08-3.37-9.26-2.56-.41,.1-1.09,.2-1.21,.7-.58,2.52-.03,4.41,2.7,4.87,1.67,.28,4.56,.31,5.17-1.67l-.09-.22c-2.7-2.89-7.01-3.53-10.75-2.66-.21,.05-1.64,.43-1.12,.92,2.49,2.34,7.44,3.36,10.32,1.06,1.12-.89,1.82-2.49,1.23-3.88s-2.3-1.85-3.72-1.94-3.36,.01-4.52,1.01-.93,1.97,.34,2.58c1.93,.93,7.71,.76,7.27-2.53-.17-1.28-5.02-1.01-4.88,0,.05,.38-.06,.6-.12,.94-.13,.68-1.55,.42,.59,.56,.93,.41,1.26,.22,1-.57l.23-.3-1.49-.19c.25,.17,.41,.39,.48,.67,.34,.77,.17,1.71-.31,2.39-.17,.24-.53,.74-.82,.81,.68-.16-.63-.82-.87-1.05l-1.12,.92c1.41-.33,2.07,.72,3.19,1.28l2.3,.28c-.28-.45-.4-.94-.38-1.46-.03-.61,.14-1.24,.28-1.82l-1.21,.7c.77-.2,1.71,1.05,2.09,1.59l1.12-.92c-.79,.16-1.54-.38-2.16-.78l-2.11,1.22c2.6,.04,5.05-.44,7.38-1.61,.98-.49-.47-1.02-.88-1.11-1.03-.23-2.37-.19-3.34,.29h0Z"/><path d="M198.68,183.3c.38-.29,.77-.54,1.21-.72,.14-.06,.29-.09,.42-.15,.49-.08,.36-.1-.36-.05-.73-.02-.85,0-.36,.05,.98,.14,2.41,.25,3.34-.18s-.56-.63-.88-.68c-2.68-.37-5.84-.23-8.08,1.46-.51,.38,1.6,.6,1.7,.61,.81,.05,2.29,.19,3-.34h0Z"/><path d="M347.4,185.25c-1.38-.75-3.43-.68-4.91-.32-1.04,.25-2.49,1.2-1.49,2.32,.91,1.02,3.11,.93,4.3,.86,1.31-.08,2.71-.28,3.33-1.55l-.09-.15c-1.4-1.64-3.81-1.81-5.83-1.69-1.3,.08-3.99,.3-3.53,2.18,.77,3.17,6.97,3.11,9.12,1.87,1.5-.87,1.66-2.69,.88-4.12-.97-1.8-2.87-2.46-4.8-2.6-4.13-.31-8.35,1.85-7.62,6.61,.04,.26,.55,.37,.71,.41,3.87,.89,8.97,.57,11.75-2.66s-5.48-3.27-6.99-2.93c-1.24,.28-2.55,.85-3.11,2.07-.78,1.69,1.17,2.28,2.53,2.56,3.23,.67,8.09,.29,9.34-3.36,.14-.4-1.7-.55-1.79-.55-4.52-.24-9.15,.84-11.79,4.83-.16,.25,.02,.32,.25,.44,3.52,1.87,9.32,1.59,12.11-1.47,.48-.53-1.61-.7-1.7-.7-1.9-.07-3.8-.14-5.7-.21-.21,0-3.6,.21-3,.7,2.29,1.9,7.15,1.91,9.37-.12,.53-.49-1.56-.69-1.7-.7-.77-.06-2.35-.19-3,.4s.71,.67,.05,.12l-3,.7c1.9,.07,3.8,.14,5.7,.21l-1.7-.7c-.45,.5-1.04,1.13-1.69,1.36-.73,.25-.76,.23-1.49-.16l.25,.44c1.13-1.71,3.51-4.14,5.79-4.03l-1.79-.55c-.21,.63-.51,1.15-1,1.6-.21,.19-.43,.36-.67,.51-.68,.24-.68,.32,.01,.24-1.2-.97-.38-1.61,.44-2.49,.2-.12,.4-.22,.62-.29-1.55-.24-1.94-.18-1.17,.19,.18,.13,.33,.28,.47,.45,.19,.47,.09,.85-.29,1.14-.52,.85-2.55,2.39-3.59,2.16l.71,.41c-.27-1.8,.22-3.77,1.68-4.96,.47-.38,1.7-.6,.17-.54s-.34,.22,.15,.68c.67,.64,1.13,1.53,1.15,2.46,0,.36-.03,.75-.18,1.08-.16,.36-.65,.63-.78,.91-.69,.37-.17,.37,1.54,0l-.39-.21c-.14-.3-.64-.52-.8-.87-.1-.22-.06-.66-.16-.81,.06-.38-.21-.49-.82-.33l.35,.3c-.32,.81,.05,1.03,1.11,.67,1.19,.31,1.51,.24,.95-.21l-.04-.53c.95-1.03,.16-1.18-2.36-.46,.89,.48,2.38,.35,3.34,.21,.42-.07,1.75-.31,.88-.78h0Z"/><path d="M391.73,177.48c-1.34-.55-2.99-.47-4.4-.33-1,.1-2.2,.39-2.51,1.51-.4,1.43,1.41,1.34,2.37,1.41,1.64,.11,3.44,.12,5.01-.41,1.04-.35,2.23-.92,1.42-2.14-.58-.87-1.66-1.15-2.64-1.27-1.59-.2-3.47-.26-5,.27-1.3,.45-2.21,1.49-3.08,2.51l.09,.09c1.28,.55,2.54,.87,3.94,.94,1.31,.06,3.11,.19,4.34-.42,.7-.35,1.23-1.15,1.15-1.95-.09-.88-.83-1.17-1.61-1.29-1.14-.17-5.09-.72-4.93,1.38,.06,.78,.68,.87,1.37,.95,1.29,.16,2.92,.21,4.17-.25l.09-.09c-.36-.7-1.51-.58-2.17-.61-.94-.03-2.52-.22-3.34,.42-1.92,1.5,2.18,1.79,2.82,1.79,.99,0,2.14,0,3.07-.39,.52-.21,2.02-1.09,1.6-1.88-.3-.57-1.58-.46-2.14-.49-.78-.03-2.75-.27-3.35,.44-.23,.27-.16,.84,.11,1.13,.41,.44,1.34,.46,1.89,.51,.88,.08,4.86,.55,4.61-1.21s-3.78-1.49-4.94-1.44c-2.37,.1-3.39,1.04-4.21,3.22,.08,.11,.19,.17,.33,.17,1.91,.39,3.91,.53,5.85,.25,1.03-.15,2.88-.86,2.36-2.3-.44-1.23-2.98-.95-3.91-.91-.74,.03-3.19,.1-2.71,1.43,.33,.92,4.88-.01,4.88,0-.09-.26-.04-.34,.02-.59,.04-.16,.45-.3,.17-.26l-2.96,.05,.25,.02-1.12-.21c.47,.19,.6,.61,.52,1.09-.05,.22-.13,.43-.26,.61-.8,.62-.43,.77,1.11,.46l.33,.17c.18-.47,.35-.95,.6-1.39,.29-.5,.89-.8,1.15-1.23-2.86-.51-3.76-.43-2.7,.23,.18,.17,.29,.37,.33,.61,.04,.32-.02,.67-.39,.73l2.11-.17c2.26-.02,1.42,.49,1.31-.43-.03-.26,0-.47,.3-.58l-3.59,.21,.2,.02-1.12-.21c.5,.47-.74,1.65-.96,1.67l3.34,.12c-.88-.17-.44-1.06,.11-1.26l-3,.24h.16c-.57-.07-1.14-.16-1.7-.24l.04,.15,1.7-.24h-.16c1,.09,2,.17,3,.25-.63-.22-.3-1.42,.19-1.62l-1.12,.21h.17c-1.11-.05-2.23-.1-3.34-.14,.8,.19,.6,1.46,.31,1.96-.11,.22-.27,.4-.48,.55,2.16,.26,2.6,.2,1.32-.2-.35-.51,.58-1.13,.87-1.39,.33-.29,.92-.52,1.19-.83-2.35-.42-3.04-.39-2.05,.07,.24,.14,.44,.32,.6,.54,.3,.43,.4,.86,.05,1.31-.22,.16-.44,.29-.69,.41-1.09,.35-.64,.42,1.34,.21l.33,.17c-.15-.38-.19-.69-.04-1.08,.14-.35,.98-.86,.33-.8l-2.96-.05h-.09c.89,.36,2.06,.28,3,.24,.26-.01,1.97-.32,1.7-.43h0Z"/><path d="M392.9,180.37c-1.17-.81-3.32-.81-4.65-.4-1.05,.33-1.85,1.54-.78,2.38s3.76,.6,5.02,.28c2.29-.59,2.55-3.18,4.58-3.89,.46-.16,.35-.37,0-.54-4.37-2.22-11.36-1.66-14.45,2.44-.41,.54,1.56,.65,1.7,.66,5.25,.21,10.34-.91,14.18-4.69,.12-.1,.12-.19,0-.29-2.6-2.65-9.3-2.37-11.18,1-.11,.19,.76,.39,.71,.38,2.66,.59,6,.61,8.15-1.3,.51-.45-1.57-.65-1.7-.66-.77-.05-2.35-.2-3,.37-.63,.28-.63,.56,0,.82l.71,.38c.22-.39,.62-.67,.83-1.03,.35-.6,.41,.06,0-.34,.8,.81-.29,1.38-1.06,1.94-1.75,1.27-4.14,2.46-6.36,2.37l1.7,.66c1.34-1.78,3.31-3.31,5.52-2.18v-.54c-1.89,.66-2.31,3.31-4.12,3.75h3.45c-.79-.15-.14-1.22,.16-1.46l-1.12,.32,.28-.03-3.59-.32,.28,.2c.77,.53,2.12,.43,3,.37,.18-.01,2.19-.32,1.7-.66h0Z"/><path d="M339.5,190.83c4.25,1.67,10.47,1.25,13.59-2.39,.18-.21-.05-.29-.25-.37-3.64-1.46-8.98-1.26-11.97,1.5-.21,.19,.08,.32,.25,.37,3.13,1.05,7.31,1.02,10.08-.95,.51-.36-1.61-.59-1.7-.6-.83-.05-2.27-.18-3,.34-.11,.08-1.02,.76-1.16,.72l.25,.37c.81-.75,1.91-1.73,3.04-1.27l-.25-.37c-.66,.77-1.41,1.43-2.31,1.91-.51,.27-1.16,.56-1.74,.62,.95-.09-.22-.21-.61-.36-.98-.39-2.31-.31-3.34-.17-.32,.04-1.8,.3-.88,.66h0Z"/><ellipse cx="349.6" cy="220.52" rx="14.3" ry="13.9"/><ellipse cx="253.35" cy="215.2" rx="11.37" ry="13.9"/><ellipse cx="186.54" cy="205.81" rx="11.37" ry="13.9"/><ellipse cx="396.5" cy="210.22" rx="14.3" ry="13.9"/><path d="M156.62,195.19c-7.07,27.04,.22,64.42,26.43,79.21,25.51,14.4,60.73,6.05,83-10.55,2.45-1.83-4.27-3.19-6.09-1.83-20.74,15.46-56.42,24.24-78.01,5.48-19.73-17.14-24.6-48.1-18.27-72.32,.55-2.1-6.37-2.6-7.05,0h0Z"/><path d="M173.52,202.62c1.95-2.44,3.93-5,6.43-6.92s6.33-2.66,8.89-.8c1.16,.84,2,2.48,2.59,3.72,2.45,5.08,3.25,12.35,1.57,17.75-1.02,3.29-4.52,8.75-8.58,5.9-2.96-2.08-3.25-6.75-2.95-9.98,.66-7.03,3.71-14.08,6.94-20.28,1.26-2.42-5.65-3.2-6.8-.99-4.3,8.25-11.73,23.68-4.24,32.13,6.32,7.13,18.59,3.72,22.05-4.57,3.28-7.84,1.55-21.69-6.03-26.73-9.81-6.52-19.95,1.37-25.98,8.89-2.11,2.64,4.62,3.71,6.09,1.88h0Z"/><path d="M232.96,204.86c2.13-2.88,4.63-6.73,8.04-8.24,5.31-2.36,10.07,2.82,12.36,6.96,3.54,6.4,4.74,15.99,2.82,23.09-.94,3.49-4.67,10.29-7.91,4.47-1.85-3.33-2.37-7.5-2.38-11.25-.03-7.79,2.69-15.09,7.55-21.14,.9-1.12-5.54-2.23-6.8-.66-7.06,8.79-11.08,23.23-5.17,33.7,5.34,9.46,18.22,5.27,21.31-3.65,3.7-10.68,.29-27.48-10.51-32.87s-19.79,.37-26.12,8.93c-.9,1.22,5.62,2.26,6.8,.66h0Z"/><path d="M192.6,242.12c1.07,16.54,25.6,18.98,32.7,5.45,.1-.18-6.14-1.73-7.05,0-2.64,5.03-8.35,8.95-13.65,4.61-3.13-2.56-4.7-6.1-4.95-10.07-.09-1.32-7.12-1.11-7.05,0h0Z"/><path d="M267.05,255.68c-1.65,1.63-3.42,3.05-5.39,4.28-1.25,.78-1.29,2.11,0,2.88,1.37,.81,3.62,.85,4.99,0,2.34-1.46,4.53-3.16,6.49-5.1,1.16-1.15-.11-2.39-1.26-2.79-1.46-.51-3.65-.42-4.82,.73h0Z"/><path d="M284.76,214.73c4.39-4.19,10.68-7.12,15.9-2.48,3.68,3.27,4.64,8.1,3.22,12.7-3.43,11.12-14.48,12.36-23.82,16.06-1.52,.6,.86,1.34,1.26,1.46,1.46,.44,3.43,.17,4.82-.38,7.16-2.84,15.2-3.65,20.59-9.73,4.26-4.8,6.68-12.16,3.01-17.99-6.82-10.84-23.89-7.74-31.79-.2-.64,.61,5.36,1.94,6.8,.57h0Z"/><path d="M285.57,232.32c3.92,3.78,5.21,9.22,3.53,14.38-.29,.9,6.43,1.89,7.05,0,1.74-5.33,.24-11.06-3.78-14.95-.99-.96-3.08-.86-4.34-.75-.34,.03-3.31,.5-2.46,1.31h0Z"/><path d="M176.89,222.24l-8.27,.92c-1,.11-3.04,.76-2.46,2.13s3.23,1.33,4.34,1.21c2.76-.31,5.51-.61,8.27-.92,1-.11,3.04-.76,2.46-2.13s-3.23-1.33-4.34-1.21h0Z"/><path d="M241.25,231.57l-8.21,2.08c-1.01,.26-2.39,1.06-1.26,2.08s3.51,.88,4.82,.55l8.21-2.08c1.01-.26,2.39-1.06,1.26-2.08s-3.51-.88-4.82-.55h0Z"/><path d="M177.81,190.4h-5.51c-1.22,0-3.53,.51-3.53,2.1s2.35,2.1,3.53,2.1h5.51c1.22,0,3.53-.51,3.53-2.1s-2.35-2.1-3.53-2.1h0Z"/><path d="M238.49,193.84c-1.08,.29,.09,0,0,.07-.17,.13-.61-.11-.08,.02,.29,.07-.43-.12-.26-.06-.34-.12-.66-.3-.97-.47-1.36-.75-3.61-.63-4.99,0s-1.19,1.54,0,2.19c2.93,1.61,6.67,1.77,9.85,.93,.93-.25,2.49-1.15,1.26-2.12s-3.43-.93-4.82-.56h0Z"/><path d="M416.86,186.08c13.18,25.76,17.13,60.94-6.75,81.97-12.43,10.95-29.43,16.01-45.74,12.73-8.36-1.68-16.38-5.02-23.62-9.5-6.01-3.71-15.35-9.22-14.41-17.37,.08-.74-6.91-1.22-7.05,0-.79,6.86,5.5,11.44,10.5,14.98,5.76,4.07,12.07,7.38,18.69,9.79,11.57,4.21,24.29,5.55,36.49,3.88,26.38-3.61,47.24-23.18,49.41-50.19,1.29-16.05-3.22-32.11-10.48-46.3-.81-1.59-7.04,.02-7.05,0h0Z"/><path d="M300.83,238.53c3.82,10.69,13.77,16.98,24.9,17.44,.72,.03,4.08,.27,4.34-.73,.27-1.08-1.7-1.26-2.46-1.29-9.07-.38-16.74-7.06-19.72-15.41-.67-1.87-7.35-.84-7.05,0h0Z"/><path d="M313.13,227.42c4.1-4.09,9.55-3.31,13.05,1.09,1.46,1.83,8.22,.78,6.09-1.89-5.87-7.38-18.67-7.64-25.23-1.09-2.34,2.33,4.41,3.57,6.09,1.89h0Z"/><path d="M366.64,214.27c-7.64-5.97-19.57-12.35-28.06-3.99-7.61,7.49-4.72,20.62,2.36,27.32,6.69,6.33,19.64,8.12,24.04-1.75s1.97-22.88-8.93-26.72c-2.7-.95-7.91,1.89-3.56,3.42,6.96,2.45,8.1,10.8,7.08,17.16-.4,2.49-1.13,6.17-3.2,7.93-4.18,3.53-9.37-1.55-11.59-4.64-3.4-4.73-4.75-11.15-2.62-16.69,1.25-3.26,3.94-6.27,7.78-5.95s7.81,3.73,10.62,5.92c1.91,1.49,8.67,.02,6.09-2h0Z"/><path d="M412.93,202.23c-5.05-6.41-15.94-7.62-23.05-4.03-9.15,4.62-10.5,18.68-4.74,26.39,4.84,6.47,15.78,7.45,22.58,3.63,10.99-6.18,2.5-21.66-3.53-28.36-1.23-1.37-7.36-.12-6.8,.51,4.47,4.97,8.73,11.94,8.56,18.88-.07,2.99-1.18,5.9-3.73,7.63-4.29,2.9-8.22,.24-10.66-3.36-3.35-4.95-3.57-11.78-1.44-17.25,2.94-7.53,10.53-10.5,16.01-3.53,1.1,1.4,7.39,.25,6.8-.51h0Z"/><path d="M355.81,209.81c3.4-1.02,6.45-2.76,8.96-5.28,.85-.85-2.16-1.25-2.46-1.27-1.19-.1-3.39-.23-4.34,.72-2.02,2.03-4.4,3.54-7.15,4.37-1.24,.37-1.18,1.07,0,1.47,1.48,.49,3.5,.45,4.99,0h0Z"/><path d="M399.54,199.9l5.51-5.51c1.13-1.13-.12-2.23-1.26-2.6-1.4-.45-3.69-.45-4.82,.68l-5.51,5.51c-1.13,1.13,.12,2.23,1.26,2.6,1.4,.45,3.69,.45,4.82-.68h0Z"/><path d="M365.26,239.57h.92c.81,0,1.72-.07,2.49-.33,.28-.06,.52-.18,.73-.36,.18-.09,.28-.23,.3-.43l-.13-.3c-.26-.24-.56-.41-.91-.5-.8-.25-1.66-.33-2.49-.33h-.92c-.81,0-1.72,.07-2.49,.33-.28,.06-.52,.18-.73,.36-.18,.09-.28,.23-.3,.43l.13,.3c.26,.24,.56,.41,.91,.5,.8,.25,1.66,.33,2.49,.33h0Z"/><path d="M412.12,224.74h.92c.81,0,1.71-.06,2.49-.29,.27-.05,.51-.16,.73-.32,.17-.07,.27-.2,.3-.38l-.13-.26c-.27-.22-.57-.36-.91-.44-.81-.22-1.66-.29-2.49-.29h-.92c-.81,0-1.71,.06-2.49,.29-.27,.05-.51,.16-.73,.32-.17,.07-.27,.2-.3,.38l.13,.26c.27,.22,.57,.36,.91,.44,.81,.22,1.66,.29,2.49,.29h0Z"/><path d="M390.48,234.06c-7.71,1.49-17.83,3.92-20.18,12.7-1.82,6.81,4.35,16.83,10.78,19.3s13.81-.7,17.68-6.26c5.12-7.36,4.13-17.53-.41-24.86-1.37-2.21-8.27-1.33-6.8,1.05,2.73,4.41,4.06,9.36,3.44,14.55-.53,4.43-4.93,15.4-11.44,11.36-3.46-2.15-7-9.66-6.53-13.55,.88-7.3,9.42-9.33,15.32-10.47,4.61-.89,1.61-4.49-1.87-3.81h0Z"/><path d="M373.49,246.44c9.01,4.27,21.89,.38,22.55-10.76,.11-1.93-6.93-2.11-7.05,0-.31,5.24-4.66,11.51-10.51,8.74-1.31-.62-3.69-.72-4.99,0-1.17,.65-1.34,1.39,0,2.02h0Z"/><path d="M343.2,211.73c4.22,0,4.25-3.53,0-3.53s-4.25,3.53,0,3.53h0Z"/><path d="M354.54,210.34c-2.28-5.41-9.3-6.55-14.48-5.39-6.82,1.53-10.05,7.68-11.36,14.05-.37,1.83,6.34,2.13,6.93,.4,1.91-5.61,7.1-11.07,13.52-10.43,.76,.08,5.37-.03,4.34-1.86-3.04-5.4-10.63-5.79-15.97-4.11-7.26,2.29-11.48,9.58-11.18,16.97,.09,2.28,6.45,1.97,7.05,0,2.27-7.4,7.38-17.88,17.14-14.35,1.32,.48,3.74,.9,4.99,0,.93-.67,1.58-1.57,0-2.14-5.81-2.1-12.35-2.15-18,.55-6.64,3.17-9.13,9.28-11.18,15.95h7.05c-.16-3.86,.76-7.49,3.15-10.58,2.57-3.32,7.41-6.33,10.15-1.47l4.34-1.86c-9.32-.93-19,3.19-22.19,12.54l6.93,.4c.62-3.04,1.59-6.06,3.59-8.5,2.79-3.39,6.59-3.66,8.4,.64,.79,1.88,7.72,1.37,6.8-.81h0Z"/><path d="M396.36,199.85c.03-1.9,.62-3.49,1.94-4.9,.52-.56,1.14-.9,1.72-1.38l1.25-.58c-1.24-.15-1.3-.02-.18,.39l3.04-1.18c-8.14,0-21.51,1.21-21.61,12.1-.01,1.06,6.71,1.26,7.05,0,1.49-5.5,7.51-13,14.05-12.06l1.78-1.46c-7.37,.11-14.22,1.89-20.07,6.54-.78,.62,2.29,.95,2.46,.96,1.18,.08,3.32,.26,4.34-.55,3.77-3,8.35-5.31,13.27-5.38,1.53-.02,5.5-.93,1.78-1.46-10.31-1.48-21.7,2.48-24.66,13.41h7.05c.08-7.91,7.84-10.53,14.56-10.54,.4,0,4.74-.33,3.04-1.18-6.08-3.04-17.74-1.13-17.86,7.26-.02,1.11,7.03,1.19,7.05,0h0Z"/><path d="M238.36,202.03c4.37-1.65,8.31-1.13,12.32,1.14,.97,.55,7.59,.36,6.44-.91-2.84-3.14-5.84-6.1-10.1-7.09-3.7-.86-8.09-.67-11.28,1.55-.61,.42-.57,.77,0,1.2,3.78,2.84,8.75,2.9,13.16,1.73,1.13-.3,1.08-.74,.55-1.44-.64-.84-3.11-.58-3.98-.54-3.27,.15-6.27,.95-9.14,2.54-1.38,.77,.64,1.46,1.26,1.62,1.41,.36,3.51,.31,4.82-.43,1.55-.86,3.15-1.37,4.92-1.45l-3.43-1.98c-.41,.11-1.84-1.07-2.09-1.25v1.2c2.94-2.04,6.65,2.94,8.49,4.98l6.44-.91c-7.06-4-15.84-4.47-23.4-1.62-1.36,.51-1.05,1.1,0,1.68,1.23,.67,3.71,.48,4.99,0h0Z"/><path d="M180.69,201.35c3.28-1.95,6.56-2.19,9.98-.4,1.23,.64,2.96,.73,4.27,.29,.68-.23,2.35-1.12,1.62-2.1-3.03-4.04-7.91-5.51-12.82-4.72-3.88,.62-2.47,3.86,.94,3.65,1.3-.08,2.61-.16,3.91-.24,.95-.06,5.18-1.12,3.04-2.8-1.12-.88-2.24-1.76-3.36-2.64-1.29-1.01-3.29-1.17-4.82-.67-.97,.32-2.59,1.5-1.26,2.54,1.12,.88,2.24,1.76,3.36,2.64l3.04-2.8c-1.3,.08-2.61,.16-3.91,.24l.94,3.65c1.7-.27,3.15,.8,4.15,2.13l5.89-1.81c-6.2-3.24-13.9-3.19-19.95,.4-3.45,2.05,2.94,3.85,4.99,2.63h0Z"/><path d="M349.6,207.17c-.01,.05-.03,.1-.06,.15l.13-.19s-.05,.06-.09,.08l.36-.17s-.03,.01-.04,.01l.55-.14s-.02,0-.03,0l.71-.11h-.01c.28-.02,.56-.05,.84-.07h1.83c.28,.02,.56,.05,.84,.07-.01,0-.02,0-.03,0l.71,.11s-.02,0-.03,0l.55,.14s-.07-.02-.1-.04l.36,.17c-.15-.07-.28-.19-.37-.32l.13,.19c-.07-.11-.14-.27-.06-.39l-.13,.19s.06-.06,.1-.08l-.36,.17s.06-.03,.1-.04c.2-.02,.34-.11,.42-.27,.1-.09,.08-.19-.06-.28-.2-.12-.41-.2-.63-.24-.32-.09-.65-.16-.99-.18-.9-.1-1.81-.13-2.72-.07l-.84,.07c-.43,.04-.85,.13-1.26,.26-.2,.05-.42,.13-.56,.29-.09,.11-.18,.23-.16,.37s.14,.28,.22,.4c.06,.08,.12,.15,.2,.21,.16,.13,.39,.23,.57,.3,.33,.12,.65,.17,1,.23,.88,.14,1.77,.17,2.67,.15,.79-.02,1.59-.07,2.36-.28,.23-.06,.52-.12,.7-.28,.12-.1,.21-.25,.24-.4-.05-.15-.15-.24-.3-.27-.23-.12-.47-.2-.73-.23-.38-.08-.75-.12-1.13-.15-.45-.05-.9-.07-1.36-.06-.83,0-1.68,.02-2.49,.21l-.55,.14c-.23,.04-.39,.16-.48,.36h0Z"/><path d="M352.94,183.39c-4.94-2.35-12.44-2.48-17.24,.35-2.25,1.33-5.35,4.49-3.12,7.11,1.49,1.75,4.59,1.92,6.71,2.05,4.97,.29,15.38,.14,16.67-6.26,1.21-6.02-9.1-6.57-12.41-4.09-.63,.47,2.3,.71,2.46,.72,1.1,.06,3.36,.32,4.34-.41-2.77-.6-3.35-.24-1.72,1.09,.22,.38,.33,.79,.34,1.22,.15,1.02-.13,1.96-.61,2.85-1.24,2.27-5.36,4.47-7.73,3.45-5.03-2.16,1.69-9.59,5.51-7.77,1.25,.6,2.99,.48,4.34,.41,.32-.02,2.96-.48,2.46-.72h0Z"/><path d="M390.11,173.85c-4.18-.06-11.18,.96-11.39,6.43s7.34,5.8,11,5.11,10.73-4.43,10.78-8.83c.06-4.83-8.23-4.16-11.02-3.04-1.28,.51-1.13,1.13,0,1.67,1.27,.61,3.69,.52,4.99,0-1.86-.67-2.27-.57-1.26,.3l.24,1.07c0,.89-.6,1.77-1.12,2.44-1.16,1.48-2.86,2.72-4.49,3.64l-1.13,.56c.66-.08,.55-.34-.32-.77-.44-.87-.74-1.51-.6-2.53,.29-2.18,2.16-3.71,4.32-3.68,.7,.01,3.53-.05,3.53-1.18s-2.95-1.17-3.53-1.18h0Z"/><path d="M203.91,178.57c-2.04-4.7-10.94-4.57-13.28-.19-3.07,5.74,3.72,10.12,8.52,10.91,4.13,.68,12.02-.6,12.56-5.94,.6-5.88-7.69-6.96-11.79-7.14-1.03-.05-3.53,.34-3.53,1.78s2.56,1.73,3.53,1.78c1.63,.07,3.72,.31,4.5,1.97s-.43,3.61-2.18,4.07-3.6-.78-4.49-2.15c-.63-.96-.87-2.14-.66-3.26,.04-.21,.59-1.27,.58-1.37,.39-.39,.3-.45-.28-.19-.61-.02-.7,.21-.27,.69,.93,2.14,7.88,1.55,6.8-.94h0Z"/><path d="M243.91,177.6c-4.56,.17-11.85,1.03-12.37,6.92s8.3,7,12.41,6.82,12.01-2.06,11.27-7.66c-.88-6.66-10.06-6.37-14.79-5.58-1.2,.2-2.94,.9-2.46,2.4s3.23,1.55,4.34,1.36c2.11-.35,6.23-.76,5.93,2.65-.21,2.35-3.43,2.98-5.32,2.96-2.13-.03-5.05-.85-4.2-3.53,.72-2.26,3.19-2.36,5.18-2.44,1.13-.04,3.53-.38,3.53-1.95s-2.45-1.99-3.53-1.95h0Z"/><path d="M362.75,162.16c2.4,14.62-2.52,29.41-13.44,39.48-2.37,2.19,4.37,3.45,6.09,1.86,11.4-10.51,16.92-26,14.4-41.34-.43-2.64-7.44-2.35-7.05,0h0Z"/><path d="M357.17,148.01c6.84,20.33,20.57,41.95,44.88,40.66,4.21-.22,4.32-4.2,0-3.97-21.19,1.13-32.32-20.64-38.08-37.74-.81-2.4-7.78-1.85-6.8,1.06h0Z"/><path d="M402.83,192.26c18.16-2.83,36.28-5.94,54.35-9.31,4.41-.82-1.78-2.22-3.56-1.89-18.07,3.37-36.19,6.48-54.35,9.31-4.42,.69,1.79,2.17,3.56,1.89h0Z"/><path d="M313.08,165.85c.45,14.55-3.95,28.44-12.68,40.09-1.29,1.72,5.41,2.72,6.8,.87,8.88-11.85,13.39-26.15,12.93-40.95-.07-2.31-7.12-2.26-7.05,0h0Z"/><path d="M211.09,152.06c5.83,20.3,19.9,37.78,38.85,47.29s43.66,10.94,64.4,3.69c3.14-1.1-3.6-1.97-4.99-1.49-38.95,13.61-80.08-10.74-91.21-49.49-.53-1.84-7.33-.98-7.05,0h0Z"/><path d="M255.78,209.83c5.39,26.36,5.85,53.55,1.23,80.07-2.32,13.36-5.94,26.5-10.81,39.16-4.24,11.02-9.22,23.77-20.36,29.45-3.49,1.78,3,3.48,4.99,2.47,10.41-5.31,15.87-15.61,20.18-26,5.32-12.82,9.33-26.19,12.06-39.8,5.64-28.14,5.5-57.24-.25-85.35-.52-2.53-7.49-2.15-7.05,0h0Z"/><path d="M324.83,247.56h.92c.46,.01,.91-.04,1.36-.15,.4-.06,.77-.18,1.13-.37,.3-.12,.55-.31,.73-.57,.2-.18,.3-.4,.3-.68-.05-.59-.52-1.01-1.03-1.25-.77-.37-1.64-.52-2.49-.52h-.92c-.46-.01-.91,.04-1.36,.15-.4,.06-.77,.18-1.13,.37-.3,.12-.55,.31-.73,.57-.2,.18-.3,.4-.3,.68,.05,.59,.52,1.01,1.03,1.25,.77,.37,1.64,.52,2.49,.52h0Z"/><path d="M428.25,196.33c7.79-11.08,18.88-.06,19.16,9.9,.28,9.66-6.98,17.12-15.51,20.43-1.45,.56,.91,1.05,1.26,1.15,1.37,.38,3.49,.22,4.82-.3,12.34-4.79,22.19-19.28,12.92-31.68-6.43-8.59-23.2-8.83-29.46,.06-.47,.66,5.82,1.84,6.8,.45h0Z"/><path d="M436.01,213.39h.92c.82,0,1.69-.03,2.49-.2,0,0,1.1-.19,1.03-.48l-.13-.18c-.28-.15-.59-.25-.91-.3-.82-.15-1.66-.2-2.49-.2h-.92c-.82,0-1.69,.03-2.49,.2,0,0-1.1,.19-1.03,.48l.13,.18c.28,.15,.59,.25,.91,.3,.82,.15,1.66,.2,2.49,.2h0Z"/><path d="M164.94,192.49c-.69-7.31-7.26-11.15-14.11-11.32-7.66-.19-14.68,3.43-18.03,10.49-6.3,13.28,.58,31.25,15.68,33.86,1.76,.3,7.95-1.09,3.56-1.85-9.83-1.7-14.8-13.13-14.48-22.16,.18-5.14,1.74-10.52,5.41-14.27,3.15-3.22,7.83-5.14,11.62-1.65,2.01,1.84,3.04,4.22,3.29,6.9,.16,1.68,7.18,1.4,7.05,0h0Z"/><path d="M207.56,153.73c-12.13,16.11-27.06,29.71-44.23,40.3-.9,.55,2.34,1.07,2.46,1.08,1.36,.12,3.13,.13,4.34-.61,17.16-10.58,32.1-24.19,44.23-40.3,.49-.66-5.74-1.87-6.8-.47h0Z"/><path d="M252.93,151.85c11.41,26.04,32.33,47.1,58.2,58.85,2.03,.92,8.54-.92,4.99-2.53-25.21-11.45-45.28-31.93-56.39-57.27-.95-2.16-7.9-1.55-6.8,.95h0Z"/><path d="M202.69,120.35c-52.05,33.21-51.43,102.52-65.4,155.77-.52,1.98,6.39,2.52,7.05,0,13.8-52.58,13.06-121.25,64.44-154.03,1.46-.93-.5-2.04-1.26-2.36-1.48-.62-3.52-.21-4.82,.62h0Z"/><path d="M268.91,220.07c12.11,33.73,20.28,71.12,10.99,106.59-4.06,15.51-11.69,31.7-25.48,40.84s-31.08,7.36-40.04-6.61c-.96-1.5-7.54-.59-6.8,.57,13.22,20.6,44.82,16.34,60.28,1.19,22.17-21.73,25.35-58.21,21.93-87.32-2.22-18.93-7.39-37.37-13.82-55.27-.68-1.89-7.36-.87-7.05,0h0Z"/><path d="M145.77,240.28c-2.36,17.49-5.68,35.06-12.65,51.37-3.56,8.34-8.06,16.54-13.9,23.52-7.56,9.04-16.96,10.94-28.35,11.03-.74,0-5.27,.44-2.49,1.06,18.56,4.12,41.09,8.39,58.67-1.43,21.34-11.92,23.41-39.02,24.34-60.71,.03-.82-7.01-1.01-7.05,0-.8,18.58-1.9,39.51-15.54,53.74-14.93,15.57-36.51,11.73-55.43,7.53l-2.49,1.06c8.5-.07,17.6-.12,25.42-3.9,8.98-4.35,15-14.4,19.56-22.89,10-18.6,14.18-39.64,16.98-60.38,.08-.62-6.89-1.18-7.05,0h0Z"/><path d="M299.18,238.46c1.97,14.34,3.93,28.9,2.46,43.39-.69,6.81-2.12,13.7-4.81,20.01-1.07,2.52-2.37,4.96-3.97,7.19-1.23,1.7-5.03,6.86-7.38,6.92l4.34,.3c-1.15-.78-1.33-1.59-.54-2.43l-6.93,.12c10.57,4.15,21.86,5.55,33.17,4.87,5.59-.33,11.14-1.2,16.52-2.79,4.89-1.44,11.86-3.3,14.98-7.65-.44,.61-6-1.47-7.05,0-3.98,5.56-14.67,7.73-20.91,8.86-10.23,1.84-20.31,.23-29.9-3.52-.96-.38-6.32-.97-6.93,.12-2.4,4.29,8.69,3.01,10.68,1.9,6.79-3.8,10.6-11.86,12.81-18.95,5.87-18.92,3.15-39.1,.52-58.32-.13-.92-7.1-.35-7.05,0h0Z"/><path d="M360.05,130.1c21.76-13.1,47.12-5.41,64.34,11.41,8,7.81,12.94,17.15,18.71,26.57,4.99,8.14,11.65,14.56,21.51,15.44,1.47,.13,7.91-.9,3.56-1.29-14.36-1.3-19.72-18.53-26.61-28.69s-15.73-18.57-26.39-24.26c-18.8-10.03-43.44-10.72-61.92,.41-.8,.48,2.35,.91,2.46,.92,1.3,.1,3.16,.19,4.34-.52h0Z"/><path d="M348.66,131.17c-22.81,1.49-43.41,15.2-52.27,36.49-.25,.6,6.28,1.85,7.05,0,7.89-18.97,26.4-33.23,47.1-34.58,4.85-.32,.81-2.09-1.87-1.91h0Z"/><path d="M223.53,120.93c35.21-10.15,71.69,7.97,86.99,40.75,1,2.15,7.94,1.5,6.8-.95-17.08-36.57-58.96-53.96-97.35-42.89-4.41,1.27,1.05,3.82,3.56,3.09h0Z"/><path d="M435.41,185.24c2.3,1.64,4.01,3.83,5.06,6.46,.3,.74,2.91,.55,3.53,.55,.25,0,3.67-.18,3.53-.55-1.09-2.73-2.92-5.04-5.31-6.75-.36-.26-1.23-.29-1.62-.33-.9-.09-1.82-.1-2.72-.06-.32,.01-2.96,.32-2.46,.68h0Z"/><path d="M444.97,195.12c3.74,32.89,26.41,61.09,60.92,62.52,2.26,.09,6.82-.54,1.87-.74-32.17-1.33-52.43-32.62-55.74-61.78-.09-.8-7.09-.32-7.05,0h0Z"/><path d="M502.23,258.79c-10.22,1.62-20.43,2.09-30.74,1.35-.44-.03-5.13-.02-4.34,1.15,12,17.64,6.69,41.8-11.97,52.37-1.51,.85,4.71,1.72,6.09,.94,19.34-10.94,25.25-35.32,12.68-53.8l-4.34,1.15c12.11,.87,24.19,.37,36.18-1.53,4.39-.7-1.94-1.87-3.56-1.61h0Z"/><path d="M421.83,262.05c9.15,15.27,20.55,37.72,4.68,52.91-.56,.54,5.38,1.89,6.8,.54,16.2-15.5,4.7-38.32-4.68-53.98-.88-1.46-7.47-.58-6.8,.54h0Z"/><path d="M430.51,314.93c11.97,1.84,24.29-2.15,31.95-11.74,1.05-1.32-5.48-2.39-6.8-.73-5.66,7.09-14.13,11.22-23.27,9.81-2.99-.46-6.63,1.93-1.87,2.66h0Z"/><path d="M317.42,284.4c1.67,14.26,5.96,33.12,19.47,40.9,9.63,5.55,23.68,5.45,33.41,.26,.56-.3-2.31-.6-2.46-.6-1.23-.06-3.19-.27-4.34,.34-11.94,6.36-23.88-.3-30.12-11.03-5.22-8.98-7.71-19.65-8.91-29.87-.11-.96-7.11-.48-7.05,0h0Z"/><path d="M348.23,277.94c1.7,23.39,22.24,37.5,44.62,36.04,4.83-.32,.9-2.31-1.87-2.13-19.32,1.26-34.37-15.63-35.69-33.91-.12-1.69-7.16-1.48-7.05,0h0Z"/><path d="M198.21,281.63c.46,8.62-1.65,16.74-6.24,24.04,.32-.51,6.13,1.46,7.05,0,4.59-7.3,6.7-15.43,6.24-24.04-.04-.77-7.08-.56-7.05,0h0Z"/><path d="M234.47,280.33c-3.75,8.67-4.81,17.9-3,27.19,.55,2.83,7.55,2.54,7.05,0-1.75-8.96-.88-17.7,2.75-26.11,1.2-2.78-5.75-3.51-6.8-1.08h0Z"/><path d="M193.34,303.07c-4.28,3.88-9.37,5.18-15.07,5.4-4.1,.15-8.64-.65-12.68,.21-3.8,.8-2.77,2.99-1.88,6.32,1.33,4.95,2.95,9.83,4.87,14.59,3.64,9.02,8.31,17.62,13.9,25.58,3.18,4.54,7.87,11.64,14.39,7.48,.74-.47-2.34-.83-2.46-.84-1.23-.09-3.22-.24-4.34,.48l-.66,.42,6.44-.16c-1.97-.65-3.34-3.31-4.51-4.88-1.66-2.23-3.24-4.51-4.74-6.85-2.16-3.36-4.16-6.81-5.99-10.36-3.8-7.34-6.87-15.05-9.17-22.99-.43-1.5-1.77-4.26-1.53-5.79,.37-2.36,.52-1.85,3.16-1.83,3.37,.02,6.73,.02,10.09-.25,6.21-.5,12.24-1.87,16.97-6.17,.05-.05-5.44-1.6-6.8-.36h0Z"/><path d="M233.16,309.17c6.02,1.62,11.9,3.62,17.65,6.05l-.36-.79c-1.07,1.72-2.33,2.87-4.34,3.37-1.43,.36-.96,.97,0,1.44,1.32,.66,3.61,.34,4.99,0,2.62-.65,4.71-1.95,6.15-4.27,.22-.35,.02-.63-.36-.79-6.11-2.58-12.35-4.74-18.75-6.46-1.42-.38-3.61-.65-4.99,0-1,.47-1.47,1.05,0,1.44h0Z"/><path d="M194.11,365.87c12.45-1.26,23.97-5.76,33.76-13.62-.5,.4-5.39-1.33-6.8-.2-9.23,7.41-20.13,12.09-31.94,13.28-1.4,.14-.89,.24,0,.54,1.37,.46,3.56,.14,4.99,0h0Z"/><path d="M160.52,310.65l-7.2,3.1c-.6,.26,2.32,.66,2.46,.67,1.36,.06,3.05,.17,4.34-.38l7.2-3.1c.6-.26-2.32-.66-2.46-.67-1.36-.06-3.05-.17-4.34,.38h0Z"/><path d="M112.88,334.05c-2.56,12.47-1.55,25.03,2.98,36.93,.6,1.59,7.17,.32,7.05,0-4.52-11.9-5.54-24.46-2.98-36.93,.13-.65-6.76-1.44-7.05,0h0Z"/><path d="M405.67,274.19c-4.66,8.35-3.61,18.27,2.45,25.6,1.04,1.26,6.95-.15,6.8-.33-5.96-7.21-6.73-17.14-2.2-25.27-.1,.18-6.17-1.58-7.05,0h0Z"/><path d="M362.7,281.62c2.63,8.09,3.83,16.32,3.65,24.83-.04,1.97,7.01,2.05,7.05,0,.19-8.51-1.02-16.73-3.65-24.83-.71-2.2-7.52-1.44-7.05,0h0Z"/><path d="M409.82,298.94c7.79,5.02,17.04,6.69,26.19,5.6,4.81-.57,.86-2.28-1.87-1.96-6.64,.79-12.67-1.09-18.23-4.67-1.32-.85-7.73-.03-6.09,1.03h0Z"/><path d="M293.44,318.69c2.99-1.26,6.06,3.04,7.36,5.19,1.21,2.01,2.13,4.2,3,6.37,2.14,5.37,3.77,10.97,4.64,16.7,.75,4.93,.94,9.95,.27,14.9-.38,2.83-1.02,5.65-2.02,8.33-.31,.84-2.54,6.68-3.03,6.7-4.11,.16-4.22,3,0,2.84,7.04-.27,9.24-6.09,10.97-12.26,2.4-8.57,1.78-17.73-.28-26.31-2.9-12.02-9.84-31.21-25.89-24.46-3.36,1.41,3.3,2.72,4.99,2.01h0Z"/><path d="M320.43,316.17c-9.77,1.01-13.36,9.45-15.76,17.86-.17,.61,6.59,1.62,7.05,0,1.76-6.17,4.57-15.64,12.27-16.43,1.09-.11,1.95-.27,1.26-1.13s-3.96-.39-4.82-.3h0Z"/><path d="M467.64,308.15c22.34,14.62,23.6,43.69,17.8,67.18-.23,.95,6.61,1.77,7.05,0,6.01-24.32,4.1-53.22-18.76-68.18-1.3-.85-7.7-.05-6.09,1h0Z"/><path d="M406.6,293.36c-10.86,.78-21.56,2.32-32.17,4.77-4.56,1.05-1.58,4.54,1.87,3.74,9.98-2.3,20.08-3.9,30.3-4.64,4.18-.3,4.31-4.19,0-3.88h0Z"/><path d="M488.2,359.79c-.6,5.51-2.65,10.58-6.18,14.88-2.2,2.68-11.12,11.31-14.29,6.86-1.09-1.53-7.63-.55-6.8,.61,4.37,6.13,14.98,2.83,20.19-.26,7.95-4.7,13.12-12.97,14.12-22.09,.16-1.45-6.85-1.82-7.05,0h0Z"/><path d="M310.06,371.69c1.4,18,19.63,24.74,35.25,20.49,1.47-.4-1.04-.85-1.26-.91-1.46-.33-3.38-.15-4.82,.24-11.94,3.24-21.3-9.37-22.11-19.83-.09-1.11-7.12-.83-7.05,0h0Z"/><path d="M225.36,355.75c7.03-4,14.07-8,21.1-12,3.57-2.03-2.72-4.19-4.99-2.91-7.03,4-14.07,8-21.1,12-3.57,2.03,2.72,4.19,4.99,2.91h0Z"/><path d="M109.87,333.98c-7.54,20-26.22,35.58-47.64,38.03-1.16,.13-3.97,1.03-1.56,1.96,9.21,3.54,19.26,5.76,29.17,5.57,6.92-.14,15.29-1.72,18.61-8.54,.75-1.54-6.02-2.23-6.8-.62-6,12.37-26.46,5.6-35.99,1.94l-1.56,1.96c23.65-2.71,44.36-17.83,52.82-40.29,.36-.95-6.3-2-7.05,0h0Z"/><path d="M266.32,354.97c-2.99,10-7.23,19.55-12.82,28.38-2.71,4.28-5.7,8.39-8.97,12.25-3.86,4.54-8.15,9.71-14.12,11.33l5.18,1.02-.05-2.59c1.2-2.16-5.66-2.95-6.8-.91-.95,1.71-.94,2.75,.05,4.41,.91,1.52,3.78,1.4,5.18,1.02,10.32-2.8,17.68-13.04,23.53-21.4,6.95-9.96,12.14-20.97,15.62-32.6,.78-2.61-6.17-3.01-6.8-.91h0Z"/><path d="M292.66,323.95c4.6,17.68,2.91,36.5-4.37,53.23-3.52,8.08-8.32,15.63-14.25,22.16-3.51,3.87-7.41,7.42-11.7,10.4s-10.71,7.04-16.03,6.46c-1.45-.16-3.59-.51-4.99,0-.84,.3-1.55,.42,0,.59,9.84,1.07,18.85-.76,27.14-6.35,8.89-5.99,16.29-14.31,21.82-23.45,11.35-18.79,14.97-41.76,9.44-63.03-.29-1.1-7.06-.05-7.05,0h0Z"/><path d="M132.11,329.05c-8.68,20.02-22,37.62-39.03,51.28-1.98,1.58,4.65,2.5,6.09,1.35,17.3-13.88,30.91-31.56,39.74-51.92,.82-1.88-6.04-2.45-6.8-.71h0Z"/><path d="M119.68,361.27c20.67,29.75,58.93,35.07,92.19,38.88,2.98,.34,6.66-2.11,1.87-2.66-31.71-3.63-67.59-8.62-87.27-36.95-1.17-1.69-7.85-.78-6.8,.73h0Z"/><path d="M332.24,392.58c38.02,6.19,76.99,4.91,114.52-3.79,1.51-.35,.83-.7,0-1.18-1.14-.66-3.76-.28-4.99,0-34.82,8.07-70.7,9.27-105.98,3.53-1.56-.25-7.91,.74-3.56,1.44h0Z"/><path d="M444.84,335.98c8.21,14.9,10.74,32,7.36,48.66-.25,1.23,6.67,1.88,7.05,0,3.43-16.91,.7-34.15-7.62-49.25-.85-1.54-7.56-.78-6.8,.6h0Z"/><path d="M341.52,352.39c-3.1,11.76-4.12,23.75-3.06,35.86,.18,2.08,7.21,1.87,7.05,0-1.06-12.12-.04-24.1,3.06-35.86,.4-1.52-6.47-2.2-7.05,0h0Z"/><path d="M154.85,346.43c-6.11,12.18-8.95,25.42-8.24,39.05,.09,1.75,7.14,1.61,7.05,0-.7-13.38,1.97-26.43,7.98-38.42,.76-1.51-5.99-2.23-6.8-.62h0Z"/><path d="M301.37,377.37c-7.6,12.18-20.01,20.6-34.22,22.84-1.53,.24-.79,.56,0,.98,1.21,.63,3.69,.2,4.99,0,15.07-2.38,28.19-10.85,36.29-23.82-.1,.17-6.03-1.63-7.05,0h0Z"/><path d="M222.83,261.21c2.09,0,2.1-3.25,0-3.25s-2.1,3.25,0,3.25h0Z"/><path d="M176.89,232.18c1.4,0,1.4-2.17,0-2.17s-1.4,2.17,0,2.17h0Z"/><path d="M143.79,218.19c-.22,2.21-.42,4.72-1.76,6.59-1.11,1.54-3.17,2.5-4.9,1.4s-3.4,1.68-1.64,2.81c2.61,1.67,5.89,.93,8.1-1.08,2.69-2.44,3.12-6.32,3.45-9.71,.2-2.08-3.05-2.07-3.25,0h0Z"/><path d="M282.8,236.61c1.67,3.68,2.04,7.64,1.16,11.57-.46,2.04,2.68,2.91,3.14,.87,1.08-4.85,.56-9.56-1.49-14.08-.86-1.9-3.67-.25-2.81,1.64h0Z"/><path d="M318.4,232.09c-5.46,.04-8.99,5.96-6.92,10.85,.82,1.92,3.62,.27,2.81-1.64-1.14-2.68,1.35-5.93,4.11-5.95,2.09-.02,2.1-3.27,0-3.25h0Z"/><path d="M435.56,202.38c2.83,.98,5.08,2.96,6.52,5.58,1.01,1.84,3.82,.2,2.81-1.64-1.85-3.37-4.84-5.82-8.46-7.07-1.98-.69-2.83,2.45-.87,3.14h0Z"/><path d="M147.92,193.54c-3.93,1.45-6.15,5.33-5.45,9.45,.35,2.06,3.48,1.19,3.14-.87-.38-2.26,1.04-4.66,3.18-5.45,1.95-.72,1.11-3.87-.87-3.14h0Z"/><path d="M288.96,219.66c3.87-.38,6.54,3.82,3.79,6.92-1.39,1.56,.91,3.87,2.3,2.3,4.46-5.02,.86-13.15-6.09-12.47-2.07,.2-2.09,3.46,0,3.25h0Z"/><path class="cls-2" d="M206.3,237.42c.18-.03,.18-.03,.01,0,.09-.01,.18-.02,.27-.03,.14-.01,.28-.03,.41-.04,.32-.02,.64-.04,.97-.04,.6,0,1.2,.02,1.8,.08,.03,0,.48,.06,.15,.01,.16,.02,.32,.05,.48,.08,.3,.05,.59,.11,.88,.18,.63,.15,1.25,.34,1.85,.56,.74,.27,1.68-.3,1.85-1.05,.19-.85-.26-1.55-1.05-1.85-2.7-1-5.59-1.21-8.42-.79-.78,.11-1.28,1.14-1.05,1.85,.28,.85,1.01,1.17,1.85,1.05h0Z"/><path class="cls-2" d="M376.09,232.19c.29-.14,.58-.28,.88-.41-.28,.12,.16-.06,.22-.08,.15-.06,.3-.11,.45-.17,.59-.21,1.18-.38,1.79-.52,.29-.07,.59-.13,.88-.18,.18-.03,.36-.06,.55-.09-.27,.04,.06,0,.15-.02,.64-.07,1.29-.1,1.93-.1,.78,0,1.54-.69,1.5-1.5s-.66-1.5-1.5-1.5c-2.91,0-5.76,.69-8.36,1.98-.7,.35-.96,1.4-.54,2.05,.46,.72,1.3,.91,2.05,.54h0Z"/><path d="M198.1,293.24c11.35,5.09,24.02,5.82,36.13,3.38,2.08-.42,1.38-1.14,0-1.75-1.97-.87-5.24-.41-7.29,0-6.98,1.41-13.53,0-19.94-2.88-2-.9-4.94-.84-7.05-.44-.74,.14-3.85,.79-1.85,1.69h0Z"/><circle class="cls-4" cx="182.92" cy="201.8" r="3.97"/><circle class="cls-4" cx="246.67" cy="208.27" r="3.97"/><circle class="cls-4" cx="343.93" cy="219.38" r="3.97"/><circle class="cls-4" cx="390.15" cy="208.14" r="3.97"/><g><circle class="cls-1" cx="178.2" cy="226.19" r="22.3"/><circle class="cls-1" cx="240.92" cy="232.04" r="22.3"/><path class="cls-5" d="M201.68,232.57c2.18-2.21,5.49-3.19,8.52-2.37s5.28,3.22,6.09,6.14c.52,1.86,3.41,1.07,2.89-.8-1.09-3.92-4.24-7.16-8.19-8.24s-8.51,.18-11.43,3.14c-1.36,1.37,.76,3.5,2.12,2.12h0Z"/></g></g><path d="M113.61,108.01c-1.09,16.75,11.49,32.46,27.65,36.14,2.47,.56,5.04,.8,7.44-.21,1.39-.58,3.61-2.15,2.01-3.73-.74-.73-2.12-.72-3.08-.63-.27,.03-2.41,.45-1.75,1.1,1.35,1.33-1.44,2.13-1.4,2.22-.01-.03,1.41,.13,.16-.12-.41-.08-.81-.17-1.21-.26-.81-.19-1.6-.44-2.38-.71-3.26-1.13-6.3-2.85-9.03-4.96-5.56-4.3-9.88-10.45-11.99-17.15-1.19-3.78-1.69-7.74-1.43-11.69,.08-1.2-4.91-1.35-5,0h0Z"/><path d="M57.95,81.89c3.36-8.9,9.36-16.66,17.21-22.06l-4.66-.47c3.12,12.56,4.66,25.47,4.6,38.41h5c-1.09-16.03,3.01-32.18,11.66-45.72l-4.91-.25c1.79,10.8,2.49,21.74,2.09,32.68-.05,1.36,4.58,1.24,5,0,3.32-9.81,6.64-19.62,9.96-29.43h-5c1.81,10.61,3.62,21.23,5.43,31.84,.25,1.45,5.19,1.13,5,0-1.81-10.61-3.62-21.23-5.43-31.84-.24-1.43-4.57-1.26-5,0-3.32,9.81-6.64,19.62-9.96,29.43h5c.4-10.94-.3-21.88-2.09-32.68-.23-1.37-4.3-1.21-4.91-.25-8.72,13.67-12.93,30.04-11.83,46.22,.09,1.34,4.99,1.32,5,0,.06-12.94-1.48-25.85-4.6-38.41-.35-1.41-3.8-1.06-4.66-.47-8.03,5.52-14.27,13.38-17.71,22.5-.52,1.37,4.37,1.7,4.82,.49h0Z"/><path d="M112.8,67.96c2.55,1.01,5.33,1.33,8.05,1.03,2.36-.26,4.89-1.03,6.43-2.95,2.45-3.04,.76-7.89-2.94-8.92-2.41-.67-5.59-.49-7.6,1.11-1.47,1.16-2.22,3.1-2.63,4.87-.54,2.28-.56,4.71-.4,7.04,.18,2.55,.79,5.21,2.4,7.26s4.31,3,6.86,3.2,5.88-.1,7.62-2.34c.51-.66-1.47-.86-1.75-.88-.73-.06-2.53-.2-3.08,.5-.41,.53-.9,1-1.54,1.25-.16,.06-.54,.05-.27,.09,.23,.03,.61,.12,.17-.04-1.39-.52-2.52-1.19-3.4-2.43-2.21-3.08-2.3-7.42-2.02-11.06,.11-1.48,.39-2.97,.93-4.35,.26-.66,.6-1.29,1.04-1.84,.21-.27,.45-.53,.71-.75,.2-.17,.77-.37,.88-.54-.21,.32-1.83-.42-.88,.19,.51,.33,.93,.85,1.25,1.36,.7,1.13,.94,2.58,.72,3.88-.28,1.64-1.48,2.95-2.97,3.62-.29,.13-.6,.24-.92,.32-.38,.09-.37,.08-.68,.07,.2,0-.44-.06-.56-.09-.38-.08-.75-.19-1.11-.34-1.06-.42-2.3-.45-3.42-.26-.35,.06-1.93,.57-.9,.98h0Z"/><path d="M131.59,41.14c-3.07,11.49-1.85,23.86,3.29,34.58,.68,1.42,5.59,.97,4.82-.62-5.05-10.53-6.12-22.68-3.11-33.96,.35-1.32-4.54-1.73-5,0h0Z"/><path d="M139.6,65.64c-.1,.11-.22,.18-.35,.21l1.75-.27h-.18c.94,.07,1.88,.13,2.82,.19-.9-.21-.88-1.84,0-2.03l-2.16,.19c-2.04,.03-.93-.04-.38,.86,.23,.39,.33,.81,.39,1.25,.14,1.02-.05,2.04-.06,3.07-.01,1.63,.55,3.16,1.54,4.45,2.11,2.76,5.36,3.64,8.7,3.67s6.34-.65,8.33-3.44c1.74-2.44,2.15-5.74,.68-8.41-.41-.75-5.06-.33-5,0,1.08,6.01,1.86,12.06,2.31,18.15,.41,5.66,.75,11.48,.34,17.15-.28,3.86-1.08,8.32-3.82,11.25-.6,.65-1.31,1.21-2.09,1.63-.47,.26-.97,.38-1.45,.6-.16,.07-.47,0-.2,.09-.38-.14,1.37,.26,.48-.07-2.24-.82-4.12-1.97-5.56-3.93-3.68-4.98-2.48-11.74-.47-17.13,.11-.3-2.31-.39-2.5-.39-.42,0-2.3-.15-2.5,.39-2.01,5.4-3.2,12.14,.47,17.13,3.25,4.41,9.09,5.64,14.26,4.39,4.46-1.08,6.74-5.14,7.71-9.33,1.29-5.55,.87-11.52,.61-17.16-.35-7.64-1.22-15.25-2.58-22.78h-5c1.34,2.43,1.12,5.39-.27,7.76-.7,1.19-1.7,2.21-2.93,2.85-.29,.15-.58,.25-.88,.37-.02,0-.4,.1-.4,.11,.02-.23,1.57,.28,1.14-.03-.25-.18-.81-.23-1.11-.36-.35-.15-.69-.34-1.02-.54-1.28-.78-2.35-1.88-3.02-3.22-.79-1.56-.75-3.05-.67-4.75,.08-1.57-.14-3.23-1.73-3.98s-4.15-.68-5.77-.18c-1.23,.38-1.39,1.82-.31,2.53,.74,.48,1.94,.42,2.76,.42,.91,0,2.2,.1,2.95-.51,.41-.33-1.62-.48-1.75-.48-.74-.03-2.43-.25-3.08,.27h0Z"/><path d="M174.02,48.24c-4.77,.21-14.76,3.01-12.45,9.78,1.14,3.34,4.89,4.83,6.92,7.54,1.05,1.41,1.88,3.05,1.97,4.83,.06,1.26-.23,2.9-1.34,3.67-.19,.13-.42,.18-.61,.3,.07-.04,.14-.02,.21-.05-.41,.14,.1,0-.15,.01-.31,.01,.06-.02,.09,0,.24,.15-.05,0-.19-.05-.08-.03-.14-.03-.33-.14-1.03-.58-1.35-1.53-1.03-2.64,.3-1.04-4.55-1.56-5,0-.78,2.72,2.2,4.2,4.39,4.61,2.87,.54,7.17,.18,8.45-2.94,1.45-3.53-.58-7.33-3.11-9.8-2.26-2.2-6.45-4.33-5.45-8.15,.81-3.08,4.92-4.88,7.63-4.99,.58-.03,2.5-.07,2.5-.99s-1.99-1.01-2.5-.99h0Z"/><path d="M193.71,54.14c-2.67-1.42-6.72-1.35-9.47-.17-2.32,.99-4.32,3.21-4.67,5.77-.89,6.58,8.27,6.89,12.51,5.65,2.49-.73,4.7-2.55,4.92-5.28l-4.91,.11c5.27,4.32,12.17,5.5,18.81,4.84,.46-.05,1.63-.11,.9-.59s-2.61-.24-3.42-.16c-4.08,.41-8.4-1.81-11.47-4.32-.47-.39-4.85-.63-4.91,.11-.17,2.09-1.53,3.71-3.42,4.55-.16,.07-1.28,.36-1.29,.41,.05-.29,1.54,.32,.7-.03-.92-.38-1.73-.73-2.39-1.52-1.5-1.8-1.29-4.32-.14-6.23,.59-.98,1.41-1.81,2.36-2.43,.49-.32,1.01-.47,1.51-.74,.92-.49-1.52-.22-1.31-.1,.25,.15,.59,.21,.86,.36,.86,.45,2.14,.35,3.08,.3,.22-.01,2.13-.33,1.75-.53h0Z"/><path d="M471.56,82.93c6.1,5.91,3.96,15.54,.69,22.32-1.95,4.04-4.6,7.68-7.41,11.15-3.11,3.85-6.54,7.44-10.23,10.73-4.1,3.66-8.52,6.95-13.2,9.84-.99,.61,.33,1.39,.9,1.55,1.12,.3,2.43,.21,3.42-.41,8.68-5.37,16.45-12.13,22.99-19.97,5.71-6.83,11.15-14.9,11.67-24.08,.26-4.64-1.15-9.01-4.52-12.27-1.04-1-5.84-.33-4.32,1.14h0Z"/><path d="M446.4,116.64c-1.43,7.73-2.86,15.46-4.29,23.2-.15,.84,1.32,1.21,1.84,1.32,5.21,1.11,10.73,.74,15.75-1.03,.82-.29,1.69-1.05,.9-1.88s-2.45-.83-3.42-.49c-3.89,1.37-7.87,1.61-11.9,.75l1.84,1.32c1.43-7.73,2.86-15.46,4.29-23.2,.32-1.71-4.64-1.95-5,0h0Z"/><path d="M385.94,63.17c-.76-8.29,3.69-17.02,11.24-20.78l-4.18-.43c6.03,12.6,10.21,26,12.42,39.78h5c-3.5-14.43-2.37-29.85,3.33-43.56h-4.82c5.44,8.58,8.02,18.69,7.37,28.83h5c-.38-11.14,1.25-22.27,4.81-32.84l-4.91,.26c3.03,8.62,6.06,17.23,9.1,25.85,.74,2.1,1.45,4.2,2.21,6.29,.62,1.67,1.54,2.85,3.36,3.24,1.56,.33,4,.26,4.85-1.36,.7-1.33-.33-2.24-1.62-2.46-.99-.17-2.57-.36-3.42,.35-.8,.67,.2,1.23,.9,1.35l-.14-.04-.64-.43c.3,.29,.07,.47,.05,.81-.03,.07-.07,.13-.12,.18-.63,.81,.27,.77,2.71-.12-.1-.22-.35-.42-.48-.64-.76-1.26-1.12-2.82-1.61-4.2-1.15-3.26-2.29-6.52-3.44-9.78-2.29-6.52-4.59-13.04-6.88-19.56-.27-.76-2.19-.74-2.74-.7-.75,.05-1.89,.14-2.17,.97-3.56,10.57-5.19,21.69-4.81,32.84,.05,1.39,4.91,1.42,5,0,.65-10.29-2.03-20.65-7.55-29.35-.61-.96-4.33-1.17-4.82,0-5.79,13.91-7.07,29.43-3.51,44.08,.35,1.45,5.2,1.25,5,0-2.24-13.96-6.49-27.55-12.6-40.31-.52-1.08-3.36-.84-4.18-.43-8.21,4.09-13.56,12.93-12.71,22.17,.13,1.47,5.12,1.31,5,0h0Z"/><path d="M447.26,43.29c-3.27-1-6.89-.02-9.08,2.61s-1.99,6.16-1.1,9.29,1.83,6.85,5.24,7.79c2.99,.83,6.51-.1,8.5-2.53,2.46-3,1.24-7.28,.27-10.61-.4-1.39-5.22-1.09-4.91,.32,.76,3.46,1.66,7.48,4.8,9.6s8.02,2.62,10.97,0c.84-.74-.17-1.43-.9-1.64-.99-.28-2.59-.31-3.42,.43-.33,.29-.56,.46-.94,.57,.29-.09,.19,.03-.05-.02,.41,.09-.34-.09-.09-.02-.99-.28-1.83-.83-2.5-1.62-1.72-2.03-2.32-4.77-2.87-7.3l-4.91,.32c.78,2.69,1.8,6.25,.12,8.82-.22,.33-1.74,1.97-2.16,1.62-.03-.02,.63-.02,.61,0,.07-.05-.03,.05-.18-.11-.46-.48-.8-.94-1.08-1.56-1.31-2.86-2.53-6.27-2.09-9.45,.17-1.26,.75-2.49,1.65-3.4,.42-.43,.87-.69,1.37-1,.08-.05,.4-.14,.22-.09-.14,.04-.6-.13,0,.06,.98,.3,2.61,.32,3.42-.43s-.16-1.42-.9-1.64h0Z"/><path d="M457.78,40.14c-.55,5.84,1.08,11.73,4.54,16.46,.12,.16,.6,.18,.73,.2,.58,.07,1.18,.08,1.77,.08s1.18-.01,1.77-.08c.07,0,.78-.13,.73-.2-3.47-4.73-5.09-10.62-4.54-16.46,.02-.26-4.95-.56-5,0h0Z"/><path d="M455.63,24.43l-2.13-1.09c-.34-.17-.79-.21-1.15-.25-.63-.06-1.29-.08-1.93-.04l-.6,.04c-.3,.02-.6,.07-.9,.15-.09,.03-.53,.18-.25,.32l2.13,1.09c.34,.17,.79,.21,1.15,.25,.63,.06,1.29,.08,1.93,.04l.6-.04c.3-.02,.6-.07,.9-.15,.09-.03,.53-.18,.25-.32h0Z"/><path d="M480.75,65.84c2.36-15.91,4.73-31.82,7.09-47.73h-5c3.74,14.87,7.76,30.42,17.02,42.95,2.52,3.4,5.41,6.51,8.67,9.22,.55,.45,2.12,.29,2.74,.27,.51-.01,1.84,.11,2.17-.37,1.14-1.67,1.05-3.82-.22-5.4-.42-.52-1.9-.38-2.5-.38-.2,0-2.57,.29-2.5,.38,1.27,1.58,1.35,3.73,.22,5.4l4.91-.1c-11.95-9.94-17.93-24.77-22.15-39.33-1.21-4.19-2.3-8.41-3.36-12.64-.16-.63-4.91-.57-5,0-2.36,15.91-4.73,31.82-7.09,47.73-.05,.32,4.89,.77,5,0h0Z"/><path d="M480.62,49.12c7.29-3.1,14.59-6.2,21.88-9.3,.85-.36,.88-.91,0-1.26-.98-.39-2.56-.42-3.54,0-7.29,3.1-14.59,6.2-21.88,9.3-.85,.36-.88,.91,0,1.26,.98,.39,2.56,.42,3.54,0h0Z"/><path d="M498.43,40.09c4.38,3.51,6.02,9.74,4.33,15.02h5c.53-3.84,1.06-7.67,1.59-11.51,.19-1.37,.33-2.79,.91-4.06,.23-.5,.51-1.02,.9-1.41,0,0,.41-.36,.41-.33,.01,.06-1.49,.03-1.54,.07-.27,.2-.24-.31,0,.14,.27,.47,.68,.84,.93,1.35,.29,.6,.48,1.23,.64,1.87,.46,1.81,.88,3.64,1.32,5.46,.67,2.75,.97,6.65,4.08,7.74,1.8,.63,4.36,.5,5.83-.83,1-.9,1.16-2.1,.05-2.96-.84-.65-2.45-.55-3.42-.33-.63,.14-1.75,.6-.9,1.26,.27,.21,.11,.68-.01,.92-.11,.2-.28,.34-.42,.51-.05,.06-.16,.08-.22,.14,2.43,.4,3.25,.38,2.48-.06-.05-.03-.1-.06-.15-.1-.4-.49-.76-.87-1.03-1.47-.31-.69-.47-1.42-.65-2.15-.43-1.78-.86-3.56-1.29-5.33-.37-1.52-.66-3.08-1.23-4.54-.49-1.23-1.24-2.29-2.48-2.84-1.62-.73-3.77-.77-5.44-.17-2.41,.86-3.27,3.46-3.61,5.77-.64,4.28-1.18,8.59-1.78,12.88-.17,1.22,4.58,1.31,5,0,1.84-5.78-.33-12.19-5.01-15.95-.82-.66-2.46-.54-3.42-.33-.64,.14-1.73,.59-.9,1.26h0Z"/><path d="M518.1,16.9c3.14,12.44,5.27,25.12,6.36,37.9h5c-.42-3.6-.92-7.86,1.19-11.07,.89-1.35,2.19-2.14,3.65-2.72,.07-.03,.3-.04,.36-.09h-.88c-.93-.09-1.16-.08-.7,.03,.22,.16,.57,.23,.81,.38,.8,.51,1.34,1.29,1.75,2.13,.67,1.38,1.01,2.9,1.87,4.19,.71,1.05,1.64,1.96,2.7,2.66,2.52,1.68,5.58,2.13,8.55,2.08s6.18-.65,7.84-3.49c.13-.23-2.32-.4-2.5-.4-.53,0-2.17-.16-2.5,.4-.64,1.1-1.58,1.98-2.78,2.45-.31,.12-1.24,.17-.53,.25,.37,.04,.72,.1,.2-.03-.34-.09-.69-.16-1.03-.27-2.56-.84-4.74-2.72-5.77-5.22-.61-1.47-1.02-3.07-2.14-4.26-1.06-1.13-2.55-1.46-4.04-1.6-3.29-.3-7.01,.11-9.29,2.78-2.73,3.2-2.2,7.94-1.75,11.8,.08,.72,5.04,.45,5,0-1.09-12.78-3.22-25.46-6.36-37.9-.23-.9-5.05-.21-5,0h0Z"/><path d="M136.39,131.92c5.1,3.49,10.68,6.11,16.61,7.84l-.64-.62c-3.39,4.75-6.78,9.5-10.16,14.25-.45,.62,1.47,.76,1.75,.78,.65,.05,2.6,.22,3.08-.44,3.39-4.75,6.78-9.5,10.16-14.25,.28-.39-.39-.54-.64-.62-5.46-1.6-10.63-4.07-15.33-7.28-.83-.56-2.12-.51-3.08-.44-.18,.01-2.32,.39-1.75,.78h0Z"/></g></g></svg>