<?xml version="1.0" encoding="UTF-8"?><svg id="Layer_2" xmlns="http://www.w3.org/2000/svg" viewBox="0 0 255.22 359.93"><defs><style>.cls-1{fill:#eca2ac;}.cls-2{fill:#f2bdc9;}.cls-3{fill:#95b8d7;}.cls-4{fill:none;stroke:#95b8d7;stroke-miterlimit:10;stroke-width:2.96px;}</style></defs><g id="Layer_6"><g><path class="cls-2" d="M96.28,177.43c-3.14,2.04-4.8,4.66-3.72,8.42,.88,3.07,3.34,5.48,6.13,6.92,7.14,3.69,18.56,2.39,23.88-3.99,5.02-6.02,1.61-12.75-5.1-15.3-6.09-2.31-17.21-2.31-20.13,4.95-2.65,6.58,14.1,8.17,16.39,2.49,.08-.26,.19-.51,.34-.74,.2-.35,.17-.31-.07,.13-.11-.08-2.6,1.09-3.43,1.15-.95,.07-1.81-.07-2.73-.28,1.43,.32-.49-.39-.6-.41,.28,.06,.99,1.19,.56,.5,.31,.5,.27,.22,.28,.55,.03,1.12,0,1.89-.68,2.82-.31,.43-.91,1.05-1.34,1.03,.15,0,2.18-.21,.41-.21h2.43c.42,.09,.83,.23,1.22,.4,.51,0,.09,.54-.19-.23-.04-.1-.5-.79-.61-1.09,.18,.49-.49-1.51-.2-1.07l-.11,.18c.46-.84,.22-.7-.73,.42,2.89-1.88,3.2-4.81,0-6.63s-8.83-2.07-12.02,0h0Z"/><path class="cls-2" d="M181.54,170.09c.19-.18,.4-.35,.63-.49-.48,.36-1.02,.6-1.61,.73-1.8,.46-4.02,.54-5.83,.07-1.07-.4-1.27-.45-.59-.16l-.64-.35c.22,.15,.43,.31,.62,.48-.39-.42-.42-.42-.08,0,.06,.12,.54,1.09,.34,.45,.14,.43,.14,.94,.1,1.39-.05,.5-.08,.61-.42,1.19-.1,.17-.93,1.09-.34,.55-.35,.33-1.33,.69-.25,.25,2.68-1.03,5.5-1,8.48,.11,.68,.44,.83,.53,.47,.28-.16-.11-.32-.23-.46-.36,.39,.42,.42,.42,.08,0-.18-.36-.42-.66-.58-1.04-.18-.44-.19-.5-.06-.16-.04-.2-.07-.39-.09-.59-.01-.47-.04-.92,0-1.39,.09-.87-.25,.26,.13-.52,.24-.49,.55-.89,.92-1.28,.88-.93-.18-2.31-.86-2.85-1.29-1.03-3.5-1.54-5.08-1.7-3.56-.36-7.86-.16-10.46,2.58-2.96,3.13-1.69,8.11,1.31,10.69s7.76,3.12,11.55,2.9c3.48-.2,7.29-1.04,9.91-3.51,1.63-1.53,3.02-3.73,2.73-6.07s-1.69-4.16-3.62-5.35c-3.13-1.92-6.76-2.61-10.4-2.64s-7.8,.68-10.58,3.06,.67,4.5,3.05,5.06c2.12,.5,4.39,.68,6.55,.37,1.69-.24,3.74-.56,5.08-1.7h0Z"/><path class="cls-3" d="M103.77,60.54c-5.64,35.32-21.1,68.46-44.55,95.48-.36,.41,4.56,1.05,3.81,.96,3.03,.34,6.15,.4,9.19,.4s6.15-.06,9.19-.4c1.09-.12,3.04-.08,3.81-.96,23.44-27.02,38.91-60.16,44.55-95.48,.11-.67-25.47-3.29-26,0h0Z"/><path class="cls-3" d="M140.68,61.97c12.85,28.43,29.78,54.78,50.3,78.28,3.66,4.19,10.86,4.44,15.99,3.83,1.9-.23,12.6-2.71,9.08-6.74-20.52-23.5-37.45-49.85-50.3-78.28-3.09-6.83-28.54-4.77-25.07,2.91h0Z"/><path class="cls-3" d="M69.22,74.34c-8,22.55-16.01,45.11-24.01,67.66-1.05,2.96,23.54,6.93,26,0,8-22.55,16.01-45.11,24.01-67.66,1.05-2.96-23.54-6.93-26,0h0Z"/><path class="cls-3" d="M55.29,194.46c6.08,35.84,4.62,72.87-4.97,107.97-1.56,5.72,4.17,8.75,9.08,9.57,4.23,.71,14.47,.14,15.99-5.44,10-36.59,12.25-74.67,5.9-112.11-.99-5.87-7.76-7.78-13-7.78-3.6,0-13.98,2.01-13,7.78h0Z"/><path class="cls-3" d="M166.6,190.86c3.03,21.65,7.95,42.99,14.88,63.73,5.27,15.78,11.66,33.43,29.89,37.2,5.9,1.22,12.5,1.48,18.38,0,4.15-1.05,4.91-3.38,0-4.39-6.94-1.43-11.83-8.38-14.97-14.27-4-7.51-6.52-15.88-9.07-23.96-6.01-19.03-10.35-38.55-13.12-58.31-.75-5.35-26.5-3.57-26,0h0Z"/><path class="cls-1" d="M132.38,31.97c-.71-6.14-1.54-12.94-4.79-18.33-4.03-6.67-10.8-10.48-18.24-12.23-15.71-3.7-33.15,.06-46.51,8.95-12.41,8.26-21.42,19.91-28.84,32.71s-14.62,26.94-19.71,41.27c-5.89,16.58-9.06,34.23-5.22,51.63,2.08,9.43,24.35,9.9,26,0,3.09-18.58,7.31-37.57,14.67-54.99,5.5-13,15.54-29.1,30.35-31.54l-12.65-1.79c9.58,4.44,21.62,4.65,30.9-.84,6.51-3.86,14.18-14.03,6.84-20.86-8.34-7.76-23.32-3.87-32.66-.32-7.19,2.73-23.12,8.38-17.75,18.98s20.99,9.88,30.58,8.23,19.73-5.87,27.42-12.56c3.06-2.66,6.4-6.32,6.08-10.7-.36-5.03-4.54-8.82-8.52-11.33-9.35-5.89-22.14-6.53-32.49-3.21-4.39,1.41-10.58,4.29-12.56,8.85-2.25,5.19,1.23,9.96,5.62,12.53,11.91,6.98,27.88,2.5,34.24-9.52,1.58-2.99-1.05-5.36-3.34-6.77-10.17-6.24-31.36-5-36.04,8.12-3.6,10.1,22.04,12.2,25.07,3.7,.09-.25,1.06-2.29,1.05-2.21-.18,2-13.21-2.68-8.47,.23l-3.34-6.77c-.51,.96-1.52,3.17-2.25,3.36l6.56-.95,.91,.04,5.74,1.79c-3.38-1.43-.09,.36-.67,.14-.24-.09,.67-.49,.61-.53-.15-.11-1.14-.19-1.4-.17-.84,.09,.72,.13,1.14,.43,5.14,3.7-1.98,7.52-5.46,9.43-2.17,1.19-4.46,2.16-6.83,2.68-.17,.04-3.13,.62-2.96,.4,1.62-.41,3.18,.15,4.67,1.68-.07-.45-.28-.67-.63-.66,1.31-.66,4.14-2.4,6.14-3.2,1.63-.65,3.31-1.18,5-1.67,1.36-.39,3.88-.21,1.27-.36l-6.56-.95c-6.06-1.51-1.98-2.12-3.9,.25-.44,.54-.7,1.11-1.17,1.63-.37,.41-1.12,.99-1.17,.93,.02,.03,3.99-.37,4.35-.32,6.59,.96-2.97-1.07-3.37-1.13-2.53-.38-5.16-.27-7.67,.12-3.28,.52-6.6,1.32-9.74,2.43-11.74,4.19-21.33,11.92-28.68,21.89s-12.06,22.88-15.7,35.21c-3.9,13.22-6.97,26.69-9.23,40.29h26c-7.03-31.85,9.04-63.97,24.87-90.69,6.98-11.79,16.07-24.08,29.17-29.49,3.97-1.64,8.13-3,11.14-1.02,4.99,3.29,5.52,11.95,6.12,17.19,.64,5.6,8.47,6.96,13,6.96,3.41,0,13.63-1.46,13-6.96h0Z"/><path class="cls-1" d="M143.94,210.83l-1.42,9.03h26c-2.05-6.26-5.41-11.59-9.98-16.31-2.36-2.44-11.41-1.52-14.26-1.45-2.46,.06-9.84-.56-11.27,1.99-1.84,3.28-3.01,6.55-3.64,10.25h26c-.96-2.67-3.71-3.2-6.26-3.62-5.89-.98-12.11-.88-18.01-.22-7.53,.84-10.48,3.69-9.63,11.49h26c-1.24-4.57-4.44-6.96-8.82-8.3s-10.07-1.13-14.68-.93c-2.06,.09-8.45-.25-9.54,1.95-2.51,5.02-3.57,10.17-3.27,15.77,.16,3.05,25.84,3.08,26,0,.08-1.56,.16-3.13,.24-4.69l-3.81,1.43c9.6-1.37,19.2-2.74,28.81-4.1,3.13-.45,5.32-1.7,1.02-2.66-5.36-1.2-11.35-.98-16.77-.52-10.14,.86-21.29,.57-31.17,3.1s-7.79,12.35-7.76,20.15c.07,21.21,.15,42.42,.22,63.63,.01,3.82,22.98,1.61,25.54,.54,19.22-8.09,39.13-14.27,59.52-18.62,5.26-1.12-3.85-2.69-4.66-2.77-5.86-.55-12.01-.51-17.79,.73-21.3,4.55-42.07,11.14-62.14,19.58,8.51,.18,17.02,.36,25.54,.54-.06-18.56-.13-37.12-.19-55.67-.02-4.64-.04-9.28-.05-13.92,0-3.35-.26-7.08,1.49-10.09,1.85-3.18,7.15-2.23,10.88-2.54,4.57-.39,9.14-.77,13.71-1.16-5.25-1.06-10.5-2.12-15.75-3.18-9.6,1.37-19.2,2.74-28.81,4.1-.18,.03-3.76,.45-3.81,1.43-.08,1.56-.16,3.13-.24,4.69h26c-.3-5.6,.77-10.75,3.27-15.77-8.08,.34-16.15,.68-24.23,1.02,2.92,.9,4.52,3.48,5.27,6.26,1.09,4.02,26.21,1.93,26,0-.18-1.69-.39-3.38-.12-5.07,.17-1.07,1.86-3.53,.81-3.4l-15.75,.32c-2.91-1.31-3.93-1.14-3.05,.51,1.22,3.39,25.46,3.14,26,0,.64-3.7,1.8-6.98,3.64-10.25-8.51,.18-17.02,.36-25.54,.54,4.23,4.37,7.17,9.47,9.05,15.23,1.11,3.4,25.52,3.09,26,0l1.42-9.03c.27-1.7-25.35-4.15-26,0h0Z"/><path class="cls-1" d="M169.77,221.11c-14.59-3.09-32.36-1.82-44.73,7.23-4.31,3.15,1.78,4.98,4.66,5.52,4.68,.88,13.55,1.65,17.79-1.45,2.38-1.74,4.9-3.4,7.74-4.27,4.6-1.41-2.33-.86,1.42-.06,5.05,1.07,13.26,1.51,17.79-1.45s-2.11-4.98-4.66-5.52h0Z"/><path class="cls-1" d="M124.16,219.06h6.78c3.01,0,6.57-.65,9.19-2.24,1.7-1.03,3.98-3.13,3.81-5.41-.45-5.85-8.35-7.65-13-7.65h-6.78c-3.01,0-6.57,.65-9.19,2.24-1.7,1.03-3.98,3.13-3.81,5.41,.45,5.85,8.35,7.65,13,7.65h0Z"/><path class="cls-1" d="M146.18,163.89h1.13c.69,.03,1.33-.12,1.93-.43,.62-.2,1.16-.55,1.61-1.03,.49-.45,.83-.99,1.03-1.61,.31-.6,.46-1.24,.43-1.93l-.18-1.33c-.24-.85-.67-1.58-1.29-2.21l-1.01-.78c-.78-.45-1.62-.68-2.52-.68h-1.13c-.69-.03-1.33,.12-1.93,.43-.62,.2-1.16,.55-1.61,1.03-.49,.45-.83,.99-1.03,1.61-.31,.6-.46,1.24-.43,1.93l.18,1.33c.24,.85,.67,1.58,1.29,2.21l1.01,.78c.78,.45,1.62,.68,2.52,.68h0Z"/><path class="cls-2" d="M77.35,310.9c10.48,13.06,23.87,23.47,39.1,30.42,5.81,2.65,10.9-5.97,5.05-8.63-14.57-6.64-27.05-16.36-37.08-28.85-4.03-5.02-11.06,2.1-7.07,7.07h0Z"/><path class="cls-3" d="M70.06,334.69c12.53,8.96,25.54,17.15,39.04,24.58,5.64,3.1,10.69-5.53,5.05-8.63-13.49-7.42-26.51-15.62-39.04-24.58-5.24-3.75-10.24,4.92-5.05,8.63h0Z"/><path d="M182.43,118.42c6.12,23.72,8.33,60.65-16.39,74.75-12.34,7.04-27.49,10.38-41.56,11.15-12.2,.66-30.68,.81-39.21-9.54-1.46-1.77-9.41-.25-8.68,.64,8.82,10.69,27.36,11.15,40.02,11.41,15.83,.33,31.71-2.21,46.57-7.69,14.33-5.29,24.91-13.78,29.14-28.92,4.65-16.66,3.38-35.22-.89-51.8-.56-2.17-9.29-1.11-9,0h0Z"/><path d="M112.9,139.72c4.27,10.93,5.27,22.54,3.14,34.06-.42,2.27,8.47,2.88,9,0,2.2-11.93,.95-23.78-3.46-35.06-.92-2.35-9.76-1.77-8.68,1h0Z"/><path d="M126.29,84.6c.87,23.1-12.14,43.45-27.18,59.9-15.27,16.7-33.72,30.17-54.09,39.97-1.89,.91,.89,2.03,1.61,2.23,1.95,.53,4.35,.29,6.16-.58,20.72-9.96,39.47-23.77,55-40.75s28.39-37.42,27.5-60.76c-.09-2.38-9.09-2.27-9,0h0Z"/><path d="M87.78,93.33c-1.12,17.55-5.39,34.69-12.83,50.64-3.62,7.77-7.95,15.25-12.97,22.21s-10.68,13.23-18.94,15.54c-1.72,.48-2.75,1.82-1.61,3.35s4.56,1.32,6.16,.88c16.88-4.71,27.27-22.91,34.55-37.58,8.52-17.15,13.42-35.94,14.64-55.04,.21-3.28-8.78-3.45-9,0h0Z"/><path d="M133.98,73.22c-1.34,18.09,5.81,36.4,19.7,48.25,13.28,11.33,31.11,15.57,48.26,14.04,6.2-.55,.84-2.13-2.39-1.84-33.29,2.95-58.9-28.94-56.56-60.45,.09-1.2-8.88-1.59-9,0h0Z"/><path d="M85.03,163.86c3.58,27.01,7.23,54.5,3.51,81.71-1.7,12.41-4.87,24.73-10.18,36.1-4.77,10.22-11.75,23.19-23.09,27.15-1.73,.6-1.33,1.26,0,1.94,1.57,.81,4.74,.57,6.36,0,11.1-3.88,17.87-13.84,23.16-23.85,5.99-11.33,9.81-23.71,11.97-36.31,4.93-28.79,1.06-58.07-2.74-86.74-.29-2.21-9.22-1.7-9,0h0Z"/><path d="M66.02,181.15c1.61,25.17,3.26,50.82-2.16,75.67-2.42,11.1-6.23,21.92-11.91,31.79-4.9,8.53-15.83,26.03-27.8,20.69-2.04-.91-10.58,.56-6.36,2.44,26.09,11.64,44.07-20.27,50.97-40.26,10.04-29.05,8.19-60.15,6.26-90.32-.16-2.54-9.15-2.35-9,0h0Z"/><path d="M188.5,143.65c.39,26.66,5.51,53.55,16.05,78.11,8.18,19.07,20.97,37.58,41.33,44.71,1.89,.66,4.19,.82,6.16,.42,.54-.11,3.5-.94,1.61-1.6-20.71-7.25-33.35-26.82-41.24-46.27-9.69-23.87-14.52-49.64-14.9-75.36-.03-1.72-9.02-1.69-9,0h0Z"/><path d="M179.91,209.91c-1.18,19.05,5.95,38.08,19.69,51.4,13.6,13.18,32.8,19.69,51.58,18.92,5.31-.22,5.44-4.46,0-4.24-36.39,1.49-64.48-30.58-62.27-66.08,.18-2.85-8.81-3.05-9,0h0Z"/><path d="M89.51,53.81c-15.62-2.14-30.46,5.49-39.53,18.1-10.22,14.21-13.63,32.52-16.65,49.41-6.92,38.78-7.51,80.09,2.29,118.43,.81,3.19,9.69,2.56,8.68-1.4-8.71-34.12-8.69-70.86-3.79-105.57,2.27-16.11,5.04-33.08,11.66-48.06,5.96-13.48,18.6-28.08,34.95-25.84,1.57,.22,4.92,.09,5.54-1.84s-1.54-3.02-3.14-3.24h0Z"/><path d="M100.72,53.53c8.64-9.3,21.02-13.57,33.6-12.38,13.46,1.28,25.59,8.56,35.52,17.37,20.81,18.46,37.93,46.02,40.04,74.2,1.17,15.69-2.3,31.4-11.2,44.47-1.64,2.41,7,3.6,8.68,1.13,18.66-27.4,12.79-62.62-3.38-89.64-14.9-24.9-38.7-49.66-69.3-51.81-15.15-1.07-31.15,3.11-41.73,14.5-2.7,2.91,5.91,4.16,7.77,2.15h0Z"/><path d="M47.82,227.14c2.87,23.51-2.08,47.22-14.12,67.62,.19-.33,7.82,2,9,0,12.04-20.4,16.99-44.11,14.12-67.62-.17-1.41-9.1-.81-9,0h0Z"/><path d="M108.7,214.22c-4.25,17.26-7.11,34.82-8.4,52.54-.61,8.36-1.07,16.83-.79,25.21,.22,6.52,1.37,13,6.1,17.81,1.75,1.78,9.63,.21,8.68-.75-4.92-5.01-5.69-11.81-5.81-18.54-.14-8.55,.29-17.14,.97-25.66,1.35-17.07,4.16-33.98,8.26-50.61,.35-1.44-8.4-2.42-9,0h0Z"/><path d="M106.26,307.49c16.47,6.08,34.81,4.7,50.19-3.74,4.59-2.52-3.44-5.33-6.36-3.73-12.21,6.7-26.22,7.74-39.28,2.92-3.55-1.31-10.07,2.51-4.54,4.55h0Z"/><path d="M162.01,205.44c8.82,28.27,15.5,57.14,20,86.41,.36,2.37,9.28,1.81,9,0-4.49-29.27-11.17-58.14-20-86.41-.78-2.5-9.44-1.4-9,0h0Z"/><path d="M178.5,289.19c-3.88,5.72-10.86,11.43-18.2,11.04-.85-.04-5.21-.36-5.54,.74-.35,1.18,2.41,1.27,3.14,1.31,11.38,.6,22.6-2.71,29.27-12.52,.59-.87-7.48-2.33-8.68-.57h0Z"/><path d="M137.86,310.04c3.44-.93,9.63,5.64,11.88,7.74,4.01,3.75,7.96,7.58,11.94,11.36,7.73,7.35,15.45,14.71,23.18,22.06,1.13,1.07,4.12,.77,5.54,.68,.4-.03,3.97-.41,3.14-1.2-11.01-10.47-22.01-20.94-33.02-31.42-8.29-7.89-17.14-13.82-29.03-10.61-1.7,.46-1.3,.82,0,1.37,1.6,.68,4.7,.45,6.36,0h0Z"/><path d="M184.67,297.79c13.71-.99,26.56,7.6,33.14,19.23,1.43,2.53,10.21,1.57,8.68-1.13-8.93-15.78-26.51-23.48-44.21-22.2-1.33,.1-3.75,.9-3.14,2.62s4.25,1.58,5.54,1.49h0Z"/><path d="M107.75,250.67c3.71,11.82,12.94,20.72,24.53,24.83,3.5,1.24,10.09-2.49,4.54-4.45-10-3.55-17.24-11.72-20.39-21.75-.98-3.12-9.87-2.43-8.68,1.37h0Z"/><path d="M138.98,270.91c2.29-2.77,4.85-5.29,7.7-7.48,1.29-.99,2.63-1.94,4.02-2.79,.82-.49,1.65-.96,2.5-1.4,1.67-.59,1.72-.81,.14-.65l-2.69-1c3.14,2.09,1.9,7.56,.5,10.29-1.5,2.92-4.44,6.01-7.94,5.96-1.26-.02-4.5,.35-4.5,2.17s3.32,2.15,4.5,2.17c5.44,.07,10.69-1.77,14.34-5.91,3.32-3.77,5.5-9.96,2.95-14.76-2.96-5.56-10.78-2.98-14.91-.67-5.93,3.31-10.96,7.68-15.28,12.9-1.76,2.13,6.75,3.49,8.68,1.15h0Z"/><path d="M137.83,268.83c-.24-5.16-.55-10.31-.98-15.46-.36-4.38-1.52-9.12-1.33-13.48s1.85-4.73,5.96-6c1.78-.55,3.59-1.05,5.4-1.48,3.81-.92,13.44-4.17,16.14-.2,2.02,2.97,1.79,9.03,2.25,12.49,.6,4.52,1.09,9.05,1.46,13.59,.8,9.74,1.03,19.5,.79,29.26-.02,.91,8.97,1.07,9,0,.25-10.42-.03-20.83-.96-31.21-.46-5.19-1.07-10.36-1.84-15.51-.45-3.01-.35-7.86-2.76-10.14-4.01-3.79-14.48-1.68-19.22-1.16-8.79,.97-17.3,3.13-25.53,6.34l-.16,.18c1.34,10.89,2.26,21.82,2.77,32.78,.05,1.1,9.04,.88,9,0h0Z"/><path d="M169.68,286.33c-12.15,1.54-24.3,3.08-36.46,4.62l6.77,.75c.38-5.25,.75-10.5,1.13-15.75,.08-1.08-8.89-1.48-9,0-.38,5.25-.75,10.5-1.13,15.75-.09,1.21,6.14,.83,6.77,.75,12.15-1.54,24.3-3.08,36.46-4.62,1.28-.16,2.53-.16,1.61-1.19-.83-.94-5.08-.45-6.16-.31h0Z"/><path d="M177.66,254.4c5.8,9.19,13.62,16.54,23.23,21.62,1.58,.84,3.8,.74,5.54,.63,.35-.02,3.96-.68,3.14-1.11-9.4-4.98-17.23-12.14-22.91-21.14-1.31-2.08-8.89,.17-9,0h0Z"/><path d="M209.73,276.81c3.65-1.9,9.51,2.78,10.54,6.45,.93,3.29-2.31,3.75-4.89,2.76-2.43-.93-4.35-2.47-6.03-4.41-.96-1.11-4.25-.76-5.54-.68-.46,.03-3.91,.32-3.14,1.19,6.77,7.77,20.52,8.41,29.2,3.7l.16-.26c-3.01-11.85-19.45-14.24-28.98-9.28-1.04,.54,3,1.18,3.14,1.19,1.77,.12,3.92,.16,5.54-.68h0Z"/><path d="M71.5,305.56c11.12,7.54,22.24,15.09,33.36,22.63,1.16,.79,3.27,.64,4.6,.54,.28-.02,3.32-.47,2.61-.94-11.12-7.54-22.24-15.09-33.36-22.63-1.16-.79-3.27-.64-4.6-.54-.28,.02-3.32,.47-2.61,.94h0Z"/><path d="M106.35,331.04c4.02,3.71,7.45,7.92,10.06,12.74l7.34-.17c-4.55-2.69-9.1-5.39-13.66-8.08-1.21-.72-3.25-.52-4.6-.45-.32,.02-3.2,.45-2.61,.8,4.55,2.69,9.1,5.39,13.66,8.08,.89,.53,7.53,.17,7.34-.17-2.68-4.94-6.2-9.28-10.33-13.08-.9-.83-3.48-.51-4.6-.45-.34,.02-3.18,.28-2.61,.8h0Z"/><path d="M111.03,336.54c-10.08-9.18-21.13-17.07-33.04-23.7-1.38-.77-7.94,.07-6.45,.9,11.65,6.49,22.44,14.3,32.29,23.28,1.46,1.33,7.55-.16,7.21-.47h0Z"/><path d="M74.27,306.27c-1.91,.4-3.88,1.19-4.73,3.08-.8,1.76-.42,3.54,.44,5.21s8.05,.96,7.21-.67c-.56-1.09-.83-2.38-.51-3.58,.17-.65,.86-1.74,1.37-1.85,.81-.17,2.65-.82,1.34-1.73s-3.71-.75-5.11-.45h0Z"/><path d="M66.03,323.11c11.66,6.81,23.33,13.63,34.99,20.44,1.75,1.02,6.49-.65,7.21-.23-11.66-6.81-23.33-13.63-34.99-20.44-1.75-1.02-6.49,.65-7.21,.23h0Z"/><path d="M69.43,322.92c-2.25,2.06-3.27,4.13-3.81,7.11-.11,.6,.68,1.24,1.09,1.47,11.47,6.4,22.95,12.8,34.42,19.2,2.29,1.28,9.04-.84,5.29-2.93-11.47-6.4-22.95-12.8-34.42-19.2l1.09,1.47c.39-2.17,1.21-3.57,2.79-5.02,2.61-2.39-4.54-3.85-6.45-2.09h0Z"/><path d="M104.71,346.85c3.84,3.57,7.68,7.14,11.53,10.71l5.11-2.46c-5.86-1.78-11.65-3.78-17.35-6.01-1.52-.6-3.8-.92-5.29,0-1.12,.7-1.58,1.93,0,2.54,6.21,2.43,12.49,4.64,18.86,6.57,1.13,.34,7.62-.14,5.11-2.46-3.84-3.57-7.68-7.14-11.53-10.71-1.67-1.55-8.86-.41-6.45,1.82h0Z"/><path d="M81.28,150.71c-1.37-7.4-6.72-13.26-13.97-15.39s-15.07-1.23-18.95,5.44c-8.81,15.14-2.38,35.62,16.19,37.83,3.28,.39,7.04-2.51,1.99-3.11-11.85-1.41-16.38-15.23-14.15-25.42,1.22-5.54,4.23-14.66,11.7-11.73,5.2,2.03,8.72,7.03,9.72,12.38,.45,2.43,7.84,1.98,7.48,0h0Z"/><path d="M58.97,158.04c-.61,4.91-.19,9.69,1.26,14.41,.66,2.14,7.87,1.28,7.48,0-1.45-4.73-1.87-9.5-1.26-14.41,.2-1.64-7.22-2.05-7.48,0h0Z"/><path d="M128.83,198.13h1.44c.17,0,.33-.03,.48-.11,.15-.05,.29-.14,.4-.26,.12-.11,.21-.25,.26-.4,.08-.15,.11-.31,.11-.48-.01-.32-.12-.66-.36-.88s-.54-.36-.88-.36h-1.44c-.17,0-.33,.03-.48,.11-.15,.05-.29,.14-.4,.26-.12,.11-.21,.25-.26,.4-.08,.15-.11,.31-.11,.48,.01,.32,.12,.66,.36,.88s.54,.36,.88,.36h0Z"/><path d="M95.17,127.35c1.59,2.44,4.92,3.38,7.64,3.7,3.51,.41,7.3,.22,10.57-1.26,1.26-.57,2.68-1.44,3.44-2.67,.05-.08,.09-.16,.13-.25,.16-.36,.36-1.01,.41-1.4,.08-.61-.22-1.23-.41-1.79-.45-.7-1.04-1.22-1.78-1.56-.85-.57-1.78-.97-2.8-1.18-1.21-.34-2.45-.52-3.71-.54-1.32-.14-2.65-.11-3.97,.08l-2.38,.46c-1.3,.32-2.49,.86-3.58,1.65l-1,1.1c-.47,.81-.47,1.63,0,2.44l.03,.1-.36-1.22c.04,.2,.04,.37,0,.57l.36-1.22c-.06,.19-.16,.34-.28,.49l1-1.1c-.12,.12-.24,.22-.39,.32l1.56-.93c-.12,.07-.24,.13-.37,.18l2.02-.72c-.1,.03-.19,.06-.29,.08l2.38-.46c-.06,.01-.13,.02-.2,.02l2.65-.16c-.06,0-.13,0-.19,0l2.65,.16c-.06,0-.13-.01-.19-.03l2.38,.46c-.06-.01-.12-.03-.18-.05l2.02,.72c-.06-.02-.11-.05-.17-.08l1.56,.93c-.08-.06-.15-.11-.22-.19l1,1.1c-.04-.05-.08-.11-.12-.17-.97-1.49-2.96-2.29-4.58-2.74-1.21-.34-2.45-.52-3.71-.54-1.32-.14-2.65-.11-3.97,.08l-2.38,.46c-1.3,.32-2.49,.86-3.58,1.65l-1,1.1c-.47,.81-.47,1.63,0,2.44h0Z"/><path d="M173.37,119.17c-.04-.49,.05-.93,.26-1.37l-.36,.66c.26-.48,.61-.85,1.07-1.14l-1,.59c.19-.1,.37-.19,.57-.26l-1.56,.5c3.02-.83,.1-.65-8.77,.54,2.51,.18,5.19,.13,7.68-.25,.96-.1,1.89-.31,2.8-.63,.65-.15,1.25-.43,1.78-.84l.36-.66c-.21-.65-.66-1.07-1.36-1.24-1.85-.78-3.99-.99-5.96-1.13s-3.81-.14-5.69,0c-1.56,.11-3.27,.28-4.78,.69-1.28,.35-2.48,.75-3.55,1.57-.45,.35-.72,.8-.99,1.29-.3,.56-.49,1.06-.44,1.7,.12,.48,.4,.8,.86,.95,.62,.41,1.31,.68,2.06,.79,2.22,.58,4.78,.75,7.05,.72s4.79-.08,7.05-.72l1.56-.5c.7-.18,1.15-.59,1.36-1.24h0Z"/><path d="M158.98,137.31c4.93,9.36,6.53,19.65,4.89,30.08-.33,2.1,9.32,2.76,9.75,0,1.69-10.77-.17-21.37-5.24-31-1.2-2.27-10.58-1.32-9.4,.92h0Z"/><path d="M134.13,174.87c2.83,3.68,7.98,4.71,12.37,4.19,4.14-.49,8.42-2.77,10.12-6.74,1.02-2.38-4.99-3-5.88-.92-.15,.35-.32,.69-.51,1.02-.1,.16-.2,.32-.3,.47,.22-.31-.15,.19-.21,.25-.24,.28-.5,.55-.78,.8-.14,.13-.28,.24-.43,.36-.07,.06-.15,.12-.22,.17,.2-.15,.23-.17,.1-.08-.34,.22-.69,.43-1.05,.62-.14,.07-.68,.31-.07,.05-.18,.07-.35,.14-.53,.21-.14,.05-.96,.42-1.09,.34,.13,.09,.61-.13-.02-.01-.19,.03-.38,.07-.57,.09-.17,.02-.41,.01-.57,.06,.63-.2,.4-.03,.05-.02-.19,0-.38,0-.57,0-.1,0-.19,0-.29-.01-.24-.01-.13,0,.34,.03-.25-.15-.83-.12-1.12-.17-.6-.11,.53,.17,0,0-.18-.06-.36-.11-.54-.17s-.35-.13-.52-.2c.62,.24,.08,.03-.06-.04-.33-.17-.65-.37-.96-.57,.45,.29-.1-.08-.19-.16-.14-.12-.28-.25-.42-.38-.3-.29-.56-.6-.82-.93-1.31-1.71-7.13-.69-5.26,1.75h0Z"/><path d="M141.26,40.29c.29-16.12-11.03-29.93-25.49-35.98-16.5-6.91-35.97-3.5-51.21,4.98s-27.75,23.46-37.7,38.45C15.67,64.59,5.95,83.11,1.49,102.97c-4.19,18.65-.16,41.27,20.32,47.96,1.97,.64,5.39,.75,6.84-1.07s.11-3.47-1.79-4.09c-16-5.23-18.75-24.54-16.17-38.89,2.93-16.3,10.38-32,18.71-46.2C44.08,35.63,68.78,1.85,102.27,7.07c16.07,2.51,29.29,16.72,28.99,33.22-.07,4.05,9.93,4.11,10,0h0Z"/><path d="M31.83,39.72c-7.68-3.64-13.79-9.41-18-16.79-1.21-2.12-10.65-.97-9.64,.8,4.41,7.72,10.99,13.71,19.01,17.51,2.01,.95,4.7,.96,6.84,.54,.8-.16,3.81-1.11,1.79-2.06h0Z"/><g><circle class="cls-4" cx="115.35" cy="169.71" r="21.99"/><circle class="cls-4" cx="176.35" cy="158.01" r="21.99"/><path class="cls-3" d="M138.06,157.92c1-2.78,3.51-4.89,6.39-5.49,3.08-.64,6.29,.68,8.29,3.03,1.24,1.45,3.32-.65,2.09-2.09-2.7-3.17-7.1-4.64-11.17-3.79s-7.11,3.84-8.46,7.56c-.27,.75,.31,1.62,1.03,1.82,.82,.23,1.55-.28,1.82-1.03h0Z"/></g></g></g></svg>