<svg width="438" height="154" viewBox="0 0 438 154" fill="none" xmlns="http://www.w3.org/2000/svg">
<path d="M167.112 87.792C169.8 78.128 176.488 73.296 187.176 73.296C189.032 73.296 190.824 73.424 192.552 73.68L189.48 95.184C184.872 93.456 181.096 92.592 178.152 92.592C174.504 92.592 171.816 93.68 170.088 95.856C168.36 98.032 167.496 100.944 167.496 104.592V104.496L167.4 110.832C167.4 115.376 167.528 120.432 167.784 126H144.84C145.352 116.784 145.608 108.08 145.608 99.888C145.608 91.696 145.352 82.928 144.84 73.584C149.064 73.776 152.296 73.872 154.536 73.872C156.904 73.872 160.136 73.776 164.232 73.584L167.112 87.792ZM243.734 90.768C237.846 90.384 232.47 90.096 227.606 89.904L227.51 100.08C227.51 103.536 228.246 106.256 229.718 108.24C231.254 110.16 233.942 111.12 237.782 111.12C239.254 111.12 240.662 110.992 242.006 110.736C241.75 113.104 241.622 115.504 241.622 117.936C241.622 119.088 241.686 121.712 241.814 125.808C238.998 126.32 236.63 126.64 234.71 126.768C232.79 126.896 230.294 126.96 227.222 126.96C219.734 126.96 214.422 125.168 211.286 121.584C208.214 117.936 206.678 112.88 206.678 106.416L206.774 90.192C203.766 90.32 200.63 90.512 197.366 90.768V73.776C200.694 73.776 203.51 72.72 205.814 70.608C208.118 68.496 209.494 65.968 209.942 63.024H236.054C232.79 67.504 229.174 71.088 225.206 73.776H243.734V90.768ZM286.905 126C287.289 116.592 287.481 107.92 287.481 99.984C287.481 97.168 286.777 94.928 285.369 93.264C284.025 91.6 282.297 90.768 280.185 90.768C278.073 90.768 276.281 91.728 274.809 93.648C273.337 95.504 272.473 98.064 272.217 101.328C272.089 106.192 272.025 109.648 272.025 111.696C272.025 116.048 272.153 120.816 272.409 126H249.465C249.977 116.784 250.233 108.08 250.233 99.888C250.233 91.696 249.977 82.928 249.465 73.584C253.689 73.776 256.921 73.872 259.161 73.872C261.529 73.872 264.761 73.776 268.857 73.584L271.641 87.696C273.113 82.576 275.417 78.8 278.553 76.368C281.689 73.872 285.337 72.624 289.497 72.624C293.337 72.624 296.665 73.488 299.481 75.216C302.297 76.88 304.409 79.152 305.817 82.032C307.289 84.912 308.025 88.144 308.025 91.728V105.552C308.025 114.064 308.185 120.88 308.505 126H286.905ZM366.999 102H335.703C336.215 104.816 337.463 107.12 339.447 108.912C341.495 110.64 344.375 111.504 348.087 111.504C350.775 111.504 353.303 110.992 355.671 109.968C358.039 108.88 359.927 107.376 361.335 105.456C365.623 107.568 371.319 109.84 378.423 112.272C376.439 116.752 372.823 120.336 367.575 123.024C362.391 125.648 355.607 126.96 347.223 126.96C336.343 126.96 328.279 124.464 323.031 119.472C317.847 114.416 315.255 107.792 315.255 99.6C315.255 91.6 317.847 85.104 323.031 80.112C328.215 75.12 336.279 72.624 347.223 72.624C353.751 72.624 359.415 73.712 364.215 75.888C369.015 78.064 372.695 81.104 375.255 85.008C377.815 88.848 379.095 93.264 379.095 98.256C379.095 99.92 379.031 101.168 378.903 102H366.999ZM348.567 87.12C345.367 87.12 342.743 87.728 340.695 88.944C338.647 90.16 337.207 91.824 336.375 93.936H359.031C358.263 91.888 357.015 90.256 355.287 89.04C353.559 87.76 351.319 87.12 348.567 87.12ZM408.05 87.792C410.738 78.128 417.426 73.296 428.114 73.296C429.97 73.296 431.762 73.424 433.49 73.68L430.417 95.184C425.81 93.456 422.034 92.592 419.09 92.592C415.442 92.592 412.754 93.68 411.026 95.856C409.298 98.032 408.434 100.944 408.434 104.592V104.496L408.338 110.832C408.338 115.376 408.466 120.432 408.722 126H385.778C386.29 116.784 386.546 108.08 386.546 99.888C386.546 91.696 386.29 82.928 385.778 73.584C390.002 73.776 393.234 73.872 395.474 73.872C397.842 73.872 401.074 73.776 405.17 73.584L408.05 87.792Z" fill="#E1A5AD"/>
<path fill-rule="evenodd" clip-rule="evenodd" d="M55.3825 29.0065V25H92.8321H100.5C101.779 28.07 127.488 95.6198 139 126.213H90.719L83.3639 100.47H76.3285L83.3639 126.213H29C40.0327 99.1374 62.2259 43.7715 62.7376 38.9108C62.749 38.8019 62.7576 38.6937 62.7634 38.5861C63.8055 42.3621 63.8008 47.4602 61.3757 54.2389C58.3686 62.6441 64.7962 69.1644 69.2131 72.0302L74.7662 93.704H82.0259L75.3467 68.166C76.1096 66.1376 76.6931 63.3877 76.6931 58.9625C76.6931 45.3596 63.4589 28.973 55.3825 29.0065Z" fill="#E1A5AD"/>
</svg>
