<svg width="384" height="71" viewBox="0 0 384 71" fill="none" xmlns="http://www.w3.org/2000/svg">
<path d="M64.416 70C63.2 66.352 61.568 61.776 59.52 56.272H28.896L24.096 70H0L26.88 0.303999H62.208L89.28 70H64.416ZM54.048 41.296C51.616 34.576 49.12 27.856 46.56 21.136L44.256 14.896C42.016 20.72 38.72 29.52 34.368 41.296H54.048ZM116.675 31.792C119.363 22.128 126.051 17.296 136.739 17.296C138.595 17.296 140.387 17.424 142.115 17.68L139.042 39.184C134.435 37.456 130.659 36.592 127.715 36.592C124.067 36.592 121.379 37.68 119.651 39.856C117.923 42.032 117.059 44.944 117.059 48.592V48.496L116.963 54.832C116.963 59.376 117.091 64.432 117.347 70H94.4025C94.9145 60.784 95.1705 52.08 95.1705 43.888C95.1705 35.696 94.9145 26.928 94.4025 17.584C98.6265 17.776 101.859 17.872 104.099 17.872C106.467 17.872 109.699 17.776 113.795 17.584L116.675 31.792ZM193.297 34.768C187.409 34.384 182.033 34.096 177.169 33.904L177.073 44.08C177.073 47.536 177.809 50.256 179.281 52.24C180.817 54.16 183.505 55.12 187.345 55.12C188.817 55.12 190.225 54.992 191.569 54.736C191.313 57.104 191.185 59.504 191.185 61.936C191.185 63.088 191.249 65.712 191.377 69.808C188.561 70.32 186.193 70.64 184.273 70.768C182.353 70.896 179.857 70.96 176.785 70.96C169.297 70.96 163.985 69.168 160.849 65.584C157.777 61.936 156.241 56.88 156.241 50.416L156.337 34.192C153.329 34.32 150.193 34.512 146.929 34.768V17.776C150.257 17.776 153.073 16.72 155.377 14.608C157.681 12.496 159.057 9.968 159.505 7.024H185.617C182.353 11.504 178.737 15.088 174.769 17.776H193.297V34.768ZM236.468 70C236.852 60.592 237.044 51.92 237.044 43.984C237.044 41.168 236.34 38.928 234.932 37.264C233.588 35.6 231.86 34.768 229.748 34.768C227.636 34.768 225.844 35.728 224.372 37.648C222.9 39.504 222.036 42.064 221.78 45.328C221.652 50.192 221.588 53.648 221.588 55.696C221.588 60.048 221.716 64.816 221.972 70H199.028C199.54 60.784 199.796 52.08 199.796 43.888C199.796 35.696 199.54 26.928 199.028 17.584C203.252 17.776 206.484 17.872 208.724 17.872C211.092 17.872 214.324 17.776 218.42 17.584L221.204 31.696C222.676 26.576 224.98 22.8 228.116 20.368C231.252 17.872 234.9 16.624 239.06 16.624C242.9 16.624 246.228 17.488 249.044 19.216C251.86 20.88 253.972 23.152 255.38 26.032C256.852 28.912 257.588 32.144 257.588 35.728V49.552C257.588 58.064 257.748 64.88 258.068 70H236.468ZM316.562 46H285.266C285.778 48.816 287.026 51.12 289.01 52.912C291.058 54.64 293.938 55.504 297.65 55.504C300.338 55.504 302.866 54.992 305.234 53.968C307.602 52.88 309.49 51.376 310.898 49.456C315.186 51.568 320.882 53.84 327.986 56.272C326.002 60.752 322.386 64.336 317.138 67.024C311.954 69.648 305.17 70.96 296.786 70.96C285.906 70.96 277.842 68.464 272.594 63.472C267.41 58.416 264.818 51.792 264.818 43.6C264.818 35.6 267.41 29.104 272.594 24.112C277.778 19.12 285.842 16.624 296.786 16.624C303.314 16.624 308.978 17.712 313.778 19.888C318.578 22.064 322.258 25.104 324.818 29.008C327.378 32.848 328.658 37.264 328.658 42.256C328.658 43.92 328.594 45.168 328.466 46H316.562ZM298.13 31.12C294.93 31.12 292.306 31.728 290.258 32.944C288.21 34.16 286.77 35.824 285.938 37.936H308.594C307.826 35.888 306.578 34.256 304.85 33.04C303.122 31.76 300.882 31.12 298.13 31.12ZM357.612 31.792C360.3 22.128 366.988 17.296 377.676 17.296C379.532 17.296 381.324 17.424 383.052 17.68L379.98 39.184C375.372 37.456 371.596 36.592 368.652 36.592C365.004 36.592 362.316 37.68 360.588 39.856C358.86 42.032 357.996 44.944 357.996 48.592V48.496L357.9 54.832C357.9 59.376 358.028 64.432 358.284 70H335.34C335.852 60.784 336.108 52.08 336.108 43.888C336.108 35.696 335.852 26.928 335.34 17.584C339.564 17.776 342.796 17.872 345.036 17.872C347.404 17.872 350.636 17.776 354.732 17.584L357.612 31.792Z" fill="#E1A5AD"/>
</svg>
