<svg width="397" height="93" viewBox="0 0 397 93" fill="none" xmlns="http://www.w3.org/2000/svg">
<path d="M170.56 55.9869C162.862 56.3658 155.123 56.4711 147.446 57.1869C114.824 60.1975 82.2023 63.4186 49.5804 66.4923C46.5429 66.7871 43.4638 66.7028 40.4055 66.5554C29.9199 66.0712 26.175 60.9132 28.8796 50.85C29.3373 49.1447 29.7535 47.3974 30.3568 44.9763C35.4748 44.3868 40.7175 43.9447 45.9187 43.1236C50.8703 42.3447 55.697 40.7868 60.6694 40.2183C65.2464 39.692 69.9274 40.2605 74.5253 39.9657C78.1661 39.7341 81.8278 39.2289 85.3646 38.3657C91.7101 36.8499 97.9723 34.9973 104.297 33.3131C105.233 33.0605 106.856 32.6394 107.126 33.0394C111.433 39.1658 113.513 33.7973 116.301 32.4078C149.88 30.1973 182.876 23.0393 216.247 18.7024C189.929 19.8814 163.57 20.4498 137.293 22.4077C98.534 25.313 59.8371 29.2288 21.0987 32.7025C17.5618 33.0183 14.0251 33.3341 10.4675 33.4394C4.16361 33.6078 -0.122172 27.4183 0.00265648 19.0603C0.10668 11.4813 4.78773 12.6392 9.98892 12.534C24.2194 12.2182 38.429 11.2287 52.6387 10.2813C65.9537 9.39709 79.2688 8.26019 92.5839 7.20755C114.013 5.52333 135.4 3.43913 156.871 2.23912C169.437 1.54438 182.107 2.19697 194.714 2.32328C204.409 2.42855 214.001 -0.245185 223.883 2.95484C228.044 4.30222 233.411 1.27067 238.259 1.1654C258.585 0.765401 278.911 0.575993 299.238 0.575993C310.763 0.575993 322.268 1.35485 333.794 1.27064C350.605 1.14433 367.415 0.849659 384.204 0.028599C390.945 -0.308246 395.938 2.32334 396.895 8.30234C397.582 12.5761 394.732 17.4814 393.13 22.0077C392.88 22.7235 390.924 23.1235 389.759 23.1445C362.879 23.4182 335.916 22.4077 309.141 24.1761C278.516 26.1761 248.058 30.6183 217.537 34.0499C214.812 34.3657 212.149 35.1657 209.465 35.7341C209.486 36.4078 209.527 37.0815 209.548 37.7763C221.324 37.7763 233.099 37.5025 244.875 37.8604C255.984 38.1973 267.094 39.4605 278.204 39.8605C286.422 40.1552 294.681 40.05 302.878 39.4605C310.472 38.9342 315.341 43.1447 315.944 51.8606C316.381 58.1344 312.885 61.4186 305.708 62.0081C275.832 64.5344 245.957 67.1238 216.102 69.7975C213.439 70.0291 210.838 70.9344 208.154 72.2397C230.873 75.6292 254.091 76.3661 275.146 86.4714L275.541 89.5661C272.399 90.7662 269.216 93.082 266.137 92.9978C245.894 92.3451 225.693 91.1241 205.45 90.1557C182.544 89.0399 159.658 88.0504 136.752 86.8715C133.507 86.703 130.324 85.7767 127.078 85.2925C117.05 83.8188 115.698 77.7976 118.839 66.4081C119.214 65.0186 121.003 63.1449 122.272 63.0186C131.093 62.1554 140.227 60.0923 148.715 61.587C157.141 63.0607 163.674 60.6186 170.768 58.1554C170.685 57.4185 170.623 56.7028 170.539 55.9659L170.56 55.9869Z" fill="#EABFC9"/>
</svg>
