<svg width="341" height="229" viewBox="0 0 341 229" fill="none" xmlns="http://www.w3.org/2000/svg">
<rect width="341" height="229" fill="white"/>
<g clip-path="url(#clip0_99_16)">
<path fill-rule="evenodd" clip-rule="evenodd" d="M239.8 102.6C240.4 101.8 241.1 101.2 241.7 100.6C242.2 100.1 242.7 99.5 242.4 98.7C242.2 98.3 241.7 97.6 241.4 97.6H241.1C240.8 97.7 240.3 98.1 240.1 98.3C239.1 99.2 238.5 100.7 237.9 102.1C237.6 102.7 237.3 103.3 237 104.2C236.9 104.5 236.8 104.9 236.6 105.3C236.5 105.6 236.1 106.2 236.2 106.3C236.4 106.5 236.9 106.2 237.1 106.1L237.4 105.8C237.6 105.6 238 105.3 238.2 105.1C238.8 104.5 239.1 104 239.3 103.7C239.4 103.3 239.6 102.9 239.8 102.6Z" fill="black"/>
<path fill-rule="evenodd" clip-rule="evenodd" d="M277.4 106.9C275.4 107.1 273.5 107.4 271.8 107.9C270.5 108.3 269.1 108.8 268 109.2H267.9C267.6 109.3 267.4 109.4 267.2 109.6C266.4 109.9 265.7 110.3 265 110.6C264.3 111 263.4 111.3 262.6 111.7C262.3 111.8 262 112.1 261.8 112.1C261.5 112.1 261.2 111.7 260.9 111.6C259.3 110.8 257.5 110.3 255.3 110.2C254.9 110.2 254.4 110.1 254 110.1C253.7 110.1 252.8 110.2 252.7 110C252.7 109.9 252.8 109.7 253 109.6C253.5 109.2 253.9 109 254.3 108.6C254.9 108.1 255.5 107.6 256 107.2C256.9 106.5 257.7 105.8 258.4 104.9C258.6 104.6 258.8 104.3 259.1 104C259.3 103.8 259.8 103.6 259.8 103.3C259.8 103.1 259.6 102.7 259.5 102.5C259.4 102.3 259.2 102.1 259.2 101.9C258.8 100.9 258.1 99.6 256.7 99.9C255.4 100.1 254.3 100.9 253.3 101.6C252.3 102.3 251.5 103 250.4 103.8C249.1 104.9 247.6 106.2 246.6 107.6C246.1 108.2 245.6 109.1 245.8 110C245.9 110.3 246.1 110.6 246.1 110.8C246.1 111 245.9 111.1 245.7 111.3C245.5 111.5 244.9 112.1 244.2 112.7C243.1 113.7 241.8 114.8 241.3 115.3C241.2 115.4 241 115.5 240.9 115.6C240.6 115.8 240.3 116 239.9 116.3C239.7 116.5 239.2 117 239.2 117.3C239.2 117.5 239.6 117.7 239.8 117.8C240.4 117.9 241.1 117.7 241.6 117.6C241.7 117.6 241.8 117.5 241.9 117.5C242.2 117.4 242.7 117.2 243 117.1C243 117.1 243.1 117.1 243.1 117H243.2C244.1 116.5 244.7 116.2 245.4 115.6L245.6 115.4C246.7 114.5 247.6 113.6 248 113.2C248.2 113.1 248.3 113 248.5 113C249 113 249.2 113.3 249.6 113.5C250.2 113.7 251.1 113.7 251.8 113.6C252.2 113.6 252.5 113.5 252.9 113.4C253.9 113.3 255.2 113.3 256.2 113.2C256.7 113.2 257.2 113.2 257.8 113.3C258.2 113.3 259.2 113.3 259.2 113.6C259.2 113.8 258.9 113.9 258.6 114.1C258.5 114.2 258.4 114.2 258.3 114.3C256.2 115.5 254.5 116.8 253.1 118H253L252.9 118.1C251.6 119.3 250.6 120.4 249.7 121.4C249.6 121.5 249.6 121.6 249.5 121.7C249.5 121.7 249.5 121.8 249.4 121.8C249.2 122 249.1 122.2 249 122.3C248.9 122.4 248.9 122.5 248.8 122.5C248.3 123.1 247.9 123.7 247.5 124.3C247.3 124.6 247 125 246.8 125.3C246.2 126.3 245.8 127.5 245.3 128.6C245.1 129.1 244.9 129.6 244.9 130.1C244.8 131.1 245.2 131.8 245.9 132C246.4 132.2 247 132.2 247.7 132.2C249 132.3 250.2 132.1 251.1 131.7H251.2C251.4 131.6 251.6 131.6 251.8 131.5C252.1 131.4 252.3 131.3 252.5 131.2C253.6 130.7 254.7 130 255.3 129.6C255.5 129.5 255.7 129.3 256 129.2L256.1 129.1C256.6 128.8 257.1 128.4 257.6 127.9C257.7 127.9 257.7 127.8 257.8 127.8C259.1 126.7 260.3 125.6 260.6 125.2L260.8 125C261.3 124.5 261.7 124 262.1 123.4C263.4 121.7 265 118.8 264 115.9C263.9 115.6 263.5 114.9 263.5 114.6C263.5 114.5 263.6 114.4 263.7 114.2C264 113.8 265.3 112.7 267.1 111.7C267.3 111.6 267.5 111.5 267.6 111.4C268.3 111 269 110.6 269.9 110.3C270.7 110 271.5 109.6 272.3 109.3C273.2 109 274.1 108.8 274.8 108.4C275.1 108.2 275.3 107.9 275.6 107.8C276 107.7 276.4 107.6 276.7 107.5C277 107.4 277.5 107.3 277.5 106.9H277.4ZM261.5 116.8C261.5 117.9 261.3 118.8 261 119.6C260.8 120.1 260.4 120.5 260.1 121C258.9 122.9 257.5 124.7 255.8 126.2C254.6 127.4 253.1 128.6 252 129.3H251.9C251.9 129.3 251.8 129.3 251.8 129.4C251.8 129.4 251.7 129.4 251.7 129.5C250.9 130 250 130.3 249.4 130.5C249.3 130.5 249.2 130.6 249.1 130.6C249 130.6 248.9 130.6 248.8 130.7C248.4 130.8 247.8 130.8 247.7 130.6V130.4C247.8 129.5 248.3 128.6 248.6 128.1C248.9 127.7 250.2 126.1 251.8 124.3L251.9 124.2C252.4 123.7 254.4 121.7 256.3 119.9L256.4 119.8C257.8 118.5 259.1 117.3 260 116.7C260.2 116.6 260.5 116.3 260.7 116.3C260.8 116.2 260.9 116.2 261 116.2H261.2C261.5 115.9 261.5 116.3 261.5 116.8Z" fill="black"/>
<path fill-rule="evenodd" clip-rule="evenodd" d="M102.7 94.2C102.8 93.8 102.9 93.5 103 93.1C103.1 92.6 103.2 92.1 103.4 91.7C103.5 91.4 103.8 91.2 103.9 90.9C104.1 90.2 103.7 89.9 103.4 89.5C103.2 89.2 103 89 102.8 88.8C102.7 88.5 102.5 88.2 102.4 87.9C102.1 87.5 102 87 101.7 86.6C101.6 86.5 101.5 86.4 101.4 86.2C101.1 85.7 100.9 84.9 100 85H99.9002C99.7002 85 98.9002 85.3 97.9002 85.7C97.9002 85.7 97.8002 85.7 97.8002 85.8C97.0002 86.2 96.1002 86.7 95.5002 87C94.7002 87.5 93.9002 87.9 93.1002 88.3C90.6002 89.6 88.2002 91 85.8002 92.3C84.1002 93.2 82.4002 94 80.7002 94.7C80.0002 95 79.2002 95.2 78.3002 95.2C78.0002 95.2 77.8002 95.1 77.4002 95.1C77.0002 95.1 76.2002 95.7 76.3002 96.2C76.3002 96.3 76.4002 96.4 76.4002 96.5C76.6002 96.9 76.9002 97.2 77.1002 97.5C77.6002 98.2 78.0002 98.6 78.3002 98.9C78.4002 99 78.5002 99.2 78.6002 99.3L78.7002 99.4C78.8002 99.5 78.9002 99.6 79.1002 99.7C79.6002 100.1 79.9002 100.3 80.1002 100.4C80.8002 100.7 81.8002 100.5 82.5002 100.4C83.0002 100.3 83.3002 100.1 83.7002 99.9C84.7002 99.4 87.1002 98 88.1002 97.3C88.6002 97 89.9002 96.1 90.1002 96C92.1002 94.7 94.0002 93.5 94.7002 92.9C94.9002 92.7 95.2002 92.3 95.4002 92.4C95.7002 92.5 95.4002 93.3 95.4002 93.5C95.2002 94.8 95.1002 96 94.9002 97.3C94.4002 102.8 94.0002 108 93.4002 112.9C93.0002 116.3 92.4002 119.4 91.6002 122.3C91.2002 123.7 90.7002 125.1 90.1002 126.4C89.5002 127.7 89.0002 129.1 88.4002 130.3C86.5002 133.8 84.1002 137.3 81.0002 139.8C79.4002 141.1 77.7002 142.1 75.4002 142.7C73.0002 143.3 70.0002 142.8 68.6002 141.6C67.0002 140.4 66.4002 138.2 66.5002 135.3C66.5002 134.4 66.6002 133.5 66.9002 132.9C67.0002 132.6 67.3002 132.4 67.4002 132.2C67.8002 131.5 68.3002 130.7 68.6002 129.9C69.0002 129.1 69.4002 128.4 69.9002 127.6C70.8002 126.1 71.8002 124.7 72.8002 123.4C73.8002 122.1 75.0002 120.9 76.1002 119.7C76.6002 119.1 77.2002 118.5 77.9002 117.9C78.2002 117.6 78.4002 117.3 78.7002 116.9C78.9002 116.7 79.2002 116.5 79.4002 116.2C79.4002 116.1 79.5002 116.1 79.5002 116V115.9C79.6002 115.8 79.5002 115.7 79.6002 115.5C79.8002 115.2 80.3002 114.6 80.8002 114.2C81.3002 113.8 83.1002 112.2 85.2002 110.8C86.0002 110.3 86.8002 109.8 87.8002 109.2C88.5002 108.8 89.3002 108.3 90.1002 107.9C90.2002 107.8 90.4002 107.8 90.6002 107.7H90.7002H90.8002C90.9002 107.7 90.9002 107.6 90.9002 107.6C90.9002 107.5 90.8002 107.2 90.4002 107.2C90.2002 107.2 90.0002 107.2 89.8002 107.1C89.6002 107.1 89.5002 107 89.4002 107C89.3002 106.9 89.0002 106.7 88.9002 106.7H88.7002C88.3002 106.8 87.6002 106.9 87.1002 107.1C86.5002 107.4 85.9002 107.7 85.6002 107.8C84.6002 108.3 83.8002 108.9 82.9002 109.4C81.5002 110.2 80.3002 111.2 79.1002 112C77.2002 113.4 75.5002 114.8 73.8002 116.4C73.2002 116.9 72.6002 117.4 72.1002 118C69.5002 120.8 67.0002 123.8 65.3002 127.3C64.2002 129.4 63.3002 131.9 63.2002 134.9C63.2002 136 63.3002 136.9 63.5002 137.8C63.7002 138.7 64.0002 139.5 64.4002 140.2C64.8002 140.9 65.3002 141.4 65.9002 142C66.4002 142.6 67.1002 143.1 67.7002 143.4C68.1002 143.6 68.6002 143.8 69.0002 144C69.7002 144.3 71.7002 144.6 72.8002 144.7C73.9002 144.8 75.1002 144.7 76.0002 144.6C77.9002 144.4 79.5002 143.9 80.9002 143.2C81.6002 142.9 82.3002 142.4 83.0002 142C83.6002 141.6 84.3002 141.1 84.9002 140.6C85.5002 140.1 86.1002 139.6 86.6002 139.1C88.1002 137.5 89.7002 135.6 91.0002 133.8C91.2002 133.6 91.3002 133.3 91.5002 133.1C91.6002 132.9 92.0002 132.5 92.3002 132.1L92.4002 132C92.5002 131.9 92.7002 131.4 92.8002 131.3C93.1002 130.9 93.2002 130.7 93.4002 130.1C94.7002 127.5 95.8002 124.8 96.6002 121.7C96.8002 121.1 97.0002 120.5 97.1002 119.8L97.4002 118.9C97.6002 118.2 97.9002 117.1 98.2002 115.8L98.5002 114.6C98.6002 114.2 98.7002 113.7 98.8002 113.2C99.6002 109.7 100.4 104.8 101.1 101.2C101.7 97.4 102.5 95 102.7 94.2Z" fill="black"/>
<path fill-rule="evenodd" clip-rule="evenodd" d="M236.8 120.4C236.5 120.3 236.3 120.7 236.1 120.9L235.5 121.5C234.6 122.3 234 123 232.9 123.6C232.5 123.8 231.7 124.2 231.1 124.1C230.9 124 230.6 123.6 230.5 123.2C230.2 122.4 230.1 121.6 229.8 120.8C229.7 120.4 229.6 119.9 229.6 119.5C229.5 119 229.5 118.6 229.4 118.2C229.4 118.1 229.4 118 229.3 117.9V117.8V117.7C229.2 117.5 229.2 117.3 229.1 117.1V117C229 116.6 228.9 116.2 228.7 115.9V115.8C228.7 115.7 228.6 115.6 228.6 115.4C227.7 113.1 225.8 113 224.9 113H224.8H224.7H224.6H224.4C224 113.1 223.7 113.2 223.4 113.4C222.8 113.7 222.2 114 221.7 114.4C221.1 114.7 220.6 115.1 220.1 115.5C219.3 116.1 218.5 116.7 217.8 117.3C217.6 117.5 217.3 117.8 217 117.8C217.4 116.8 218.2 115.8 218.7 114.6C219 113.8 219.5 112.9 219.9 112.1C220.3 111.2 220.6 110.5 221 109.5C221.1 109.2 221.2 108.8 221.2 108.5C221.2 108.1 221.3 107.7 221.3 107.4C221.3 107.1 221 106.8 220.9 106.4C220.7 106.1 220.5 105.8 220.4 105.5C220.2 105.1 219.5 104.3 219 104.1C218.3 103.9 217.4 104.2 216.9 104.4C215.1 105 213.6 106 212.1 106.8C211 107.4 210.1 107.9 209 108.5C208.3 108.9 207.4 109.4 206.4 109.5C206 109.6 205.6 109.7 205.4 109.6C205.1 109.5 205 109 204.8 108.7C204.6 108.4 204.1 108 203.8 107.8C203.2 107.5 202.4 107 201.7 106.8C201.5 106.7 201.3 106.7 201.1 106.7C200.9 106.6 200.8 106.5 200.6 106.5C200.1 106.5 199.4 107 198.9 107.3C197.9 108.1 197 108.9 196.3 109.8C195.9 110.3 195.7 110.9 195.3 111.4C195.1 111.8 194.6 112 194.2 112.3C192.2 113.9 190.3 115.2 188.2 116.7C187.9 116.9 187.4 117.4 187.1 117.4C186.9 117.4 186.7 116.9 186.5 116.6C186 115.7 185.4 114.8 184.5 114.3C183.2 113.7 181 113.6 179.3 113.7C178 113.8 176.6 113.8 175.4 113.9C175.1 113.9 174.3 114.1 174.2 113.8C174.1 113.6 174.6 113 174.8 112.8C175.6 112 176.4 111.2 177.2 110.5C177.7 110 178.3 109.5 178.9 109.1C179.5 108.7 180.2 108.3 180.8 107.9C180.9 107.8 181 107.8 181.1 107.7C181.6 107.4 184.7 105.6 185.6 105.2C186 105 186.3 104.9 186.6 104.7C187.2 104.3 188.2 104 188.4 103.4C188.5 102.8 188.2 102.3 188 102L187.7 101.4C187.4 101 187.2 100.5 186.9 100.3C186.6 100.1 186 100.2 185.5 100.2C184.6 100.3 183.5 100.7 182.8 101.1C180.2 102.2 178.1 103.4 175.8 105C173.7 106.5 171.6 108.2 170.1 110.4C169.6 111.1 168.9 112 168.8 112.8C168.7 113.4 168.8 113.9 169 114.3C169.2 114.8 169.7 115.2 170.1 115.7C170.8 116.5 171.4 117.1 172.6 117.4C173.1 117.5 173.6 117.7 174.1 117.7C174.3 117.7 174.5 117.7 174.7 117.6C175.4 117.5 178.3 117.1 179.6 116.9C180.9 116.7 182.7 116.4 183.1 116.3H183.4C184 116.4 184.3 116.8 184.1 117.5C184 117.9 183.5 118.3 183.2 118.8C182.2 120.1 181 121 179.9 121.9C179.5 122.2 179.1 122.5 178.6 122.7C178.1 122.9 177.8 123.2 177.3 123.5C176.9 123.7 176.4 124 176 124.3C175.7 124.5 175 125.1 174.9 125.4C174.9 125.6 175.1 125.9 175.3 126.1C176 126.8 177.4 127.7 178.4 127.9C179 128.1 179.4 127.8 179.8 127.5C180.1 127.2 180.7 126.5 181.2 125.9C181.7 125.4 182.1 124.9 182.6 124.4C183 124 183.3 123.5 183.7 123.1C184.2 122.7 184.9 122.4 185.5 122C185.8 121.8 186.1 121.5 186.4 121.3C187.4 120.6 188.3 119.8 189.3 119.1C190.4 118.2 191.5 117.4 192.7 116.6C192.8 116.5 193.1 116.2 193.2 116.3C193.3 116.4 193.2 117 193.2 117.1C193.2 117.3 193.1 117.7 193 117.9C192.8 119.2 192.7 120.3 192.9 121.3C193.1 122.2 193.5 122.6 194.1 123.1C194.8 123.7 195.4 124 196.5 124.2C197.2 124.4 198 124.5 198.7 124.4C198.8 124.4 199.8 124.3 200.5 124C200.6 124 200.6 124 200.7 123.9C200.8 123.9 200.9 123.8 201.1 123.6C201.3 123.4 201.5 123.3 201.7 123.2C202.1 123 202.6 122.7 202.9 122.4C203.1 122.2 203.3 121.9 203.6 121.6C204.7 120.3 205.6 118.7 206.2 116.8C206.4 116.1 206.7 115.3 206.8 114.4C206.8 114.2 206.8 113.8 206.9 113.6C207 113.4 207.4 113.3 207.5 113.2C209.2 112.3 210.8 111.4 212.2 110.3C212.6 110 213 109.7 213.5 109.4C214.4 108.7 215 108.2 216 107.5C216.2 107.4 217.1 106.6 217.4 106.8C217.6 106.9 217.3 107.4 217.2 107.8C217.1 108.2 216.9 108.5 216.8 108.8C215.4 112 214.1 115 212.7 118.2C212.3 119 211.9 120.2 211.7 121.2C211.6 121.6 211.5 122.1 211.6 122.4C211.7 122.8 212.3 123.3 212.6 123.5C213.2 123.9 213.7 124.4 214.5 124.5C214.7 124.5 214.9 124.4 215.1 124.4C215.3 124.4 215.4 124.5 215.6 124.4C216.1 124.3 216.4 123.6 216.6 123.2C217.6 121.7 218.6 120.4 219.9 119.1C220.2 118.8 220.6 118.5 221 118.1C221.4 117.8 221.8 117.4 222.1 117.2C222.9 116.6 223.9 116 224.9 115.9C225.1 115.9 225.4 115.9 225.5 116C225.8 116.2 225.8 117.1 225.8 117.4C225.9 118 225.9 118.4 225.9 118.9C226.2 121.9 227.2 124.4 230 125.2C231 125.5 232.1 125.7 233.1 125.6C233.5 125.5 233.9 125.3 234.3 125.1C235.1 124.7 235.6 124.2 236.2 123.5C236.5 123.2 236.7 122.8 236.9 122.4C237.1 122.1 237.4 121.5 237.5 121.2C237 121.3 237.2 120.5 236.8 120.4ZM203.4 113.7C203.3 114.9 202.8 116 202.4 116.9C201.6 118.6 200.5 120.4 199.2 121.4C198.7 121.8 198.4 122 197.8 122.3C197.6 122.4 197.4 122.5 197.3 122.6C196.8 122.7 196 122.6 195.9 122.3C195.8 122.1 195.9 121.7 195.9 121.4C196 120.7 196 120.3 196.2 119.8C196.4 119.3 196.5 118.9 196.7 118.5C197.2 117.3 197.9 116.1 198.6 115.2C198.9 114.8 199.3 114.4 199.7 114C200.3 113.3 200.8 112.7 201.6 112.1C201.9 111.9 202.2 111.5 202.5 111.5C203.3 111.4 203.5 112.8 203.4 113.7Z" fill="black"/>
<path fill-rule="evenodd" clip-rule="evenodd" d="M169.301 118.1C168.901 118 168.401 118.8 168.201 119L164.901 122C164.201 122.6 163.401 123.3 162.501 123.8C161.601 124.3 160.701 124.9 159.701 125.1C159.201 125.2 158.501 124.9 158.101 124.8C156.701 124.2 155.701 123.6 154.701 122.8C153.701 122 152.801 121 152.101 120C151.901 119.8 151.401 119.2 151.401 118.9C151.401 118.6 151.901 118.2 152.201 117.9L153.101 117C154.301 115.7 155.501 114.5 156.701 113.4C157.301 112.8 158.001 112.3 158.601 111.7C159.201 111.2 159.801 110.5 160.401 109.9C161.001 109.4 161.701 108.8 162.301 108.2C163.201 107.3 164.101 106.4 165.101 105.5C165.401 105.2 165.801 104.8 165.801 104.4C165.801 104.1 165.501 103.8 165.401 103.5C165.101 102.9 164.701 102.5 164.301 102C164.101 101.8 163.801 101.5 163.501 101.5C163.201 101.5 162.801 101.9 162.501 102.1C162.201 102.4 161.901 102.6 161.601 102.8L160.001 104.4C159.501 105 158.901 105.5 158.401 106C157.901 106.6 157.301 107.1 156.801 107.6C156.201 108.1 155.701 108.6 155.101 109.1C154.501 109.6 154.001 110.1 153.401 110.6C152.401 111.5 151.401 112.4 150.501 113.4C150.401 113.5 150.201 113.8 150.001 113.7C149.901 113.1 150.201 112.5 150.301 111.9C150.801 110 153.701 101.4 154.401 99.4C154.501 99.2 154.601 98.9 154.701 98.6C155.001 97.8 155.201 96.8 155.401 95.9C155.501 95.6 155.601 95.3 155.601 95C155.601 94.7 155.401 94.3 155.301 94C155.201 93.8 154.801 93.7 154.601 93.5C154.401 93.4 154.301 93.2 154.101 93C153.901 92.8 153.701 92.7 153.601 92.5C153.301 92.1 153.001 91.7 152.601 91.4C152.201 91.1 151.701 90.8 151.301 90.8H150.901C150.501 90.9 149.801 91.6 149.701 92.1C149.601 92.5 149.701 93 149.601 93.5C149.301 96.5 148.701 99.2 148.201 101.9C147.901 103.4 147.601 105 147.201 106.5C146.901 107.6 146.701 108.8 146.501 110C146.401 110.4 146.401 110.8 146.301 111.2C146.201 111.6 146.001 112 145.701 112.4C145.101 113.3 144.101 114.4 143.701 114.9L143.601 115C142.401 116.3 141.101 117.5 139.801 118.7C138.701 119.6 137.601 120.6 135.901 121.2C135.601 121.3 135.201 121.4 134.801 121.4C134.501 121.4 134.001 121.3 133.901 121.1C133.701 120.8 133.701 119.9 133.801 119.4V119.2C133.901 119 133.901 118.7 134.001 118.5C134.201 117.9 134.501 117.2 134.801 116.8C134.901 116.6 135.001 116.4 135.101 116.3C135.401 115.7 135.701 115.2 136.101 114.7C136.201 114.5 136.901 113.8 136.901 113.7C137.801 112.6 138.701 111.9 139.201 111.4L139.301 111.3C139.701 111 140.301 110.8 140.701 110.7H140.801C141.201 110.7 141.801 110.6 141.901 110.1C142.001 109.7 141.701 109.3 141.501 109.1L141.401 109C140.901 108.4 140.701 108.1 140.201 107.8C140.101 107.8 140.101 107.7 140.001 107.7C139.801 107.5 139.501 107.4 139.301 107.3H139.001C138.501 107.3 138.101 107.6 137.701 107.8C137.601 107.9 137.501 108 137.401 108C136.401 108.6 135.201 109.7 133.701 111.4C133.501 111.7 133.201 112.1 132.801 112.6C132.201 113.4 131.501 114.4 130.901 115C130.501 115.3 130.201 115.6 129.901 115.9L129.001 116.8C127.701 118 127.301 118.4 126.801 118.8L126.701 118.9C125.701 119.8 124.501 120.8 123.301 121.5C123.201 121.5 123.201 121.6 123.101 121.6C122.801 121.8 122.101 122.2 121.701 122C121.601 121.9 121.501 121.7 121.501 121.5C121.501 121.1 121.501 120.7 121.601 120.3V119.9V119.8C121.801 118.7 122.001 117.8 122.201 117.2V117.1C122.301 116.8 122.301 116.7 122.401 116.7C122.701 115.8 123.201 115 123.501 114.2C123.701 113.8 123.901 113.4 124.101 112.9C124.601 112 125.001 111.4 125.601 110.7C125.801 110.4 126.401 110.1 126.501 109.7C126.501 109.4 126.401 109 126.201 108.8C126.001 108.5 125.901 108.3 125.701 108.1C125.401 107.6 124.901 107.2 124.701 106.7C124.601 106.4 124.601 106.2 124.401 106C124.201 105.6 123.701 105.2 123.401 104.8C123.101 104.4 122.701 103.9 122.301 103.7C120.901 102.8 119.001 103.3 117.601 103.8C115.401 104.6 113.701 105.7 111.901 106.9C110.201 108 108.501 109.7 107.301 111C105.501 113 103.901 115.2 102.501 117.9C102.201 118.5 102.001 119.3 101.701 120C101.501 120.8 101.301 121.7 101.401 122.5C101.601 124.2 102.401 125.3 104.201 125.6C104.401 125.6 104.701 125.6 104.901 125.7C105.301 125.8 105.601 126.2 105.901 126.3C106.301 126.4 106.801 126.5 107.201 126.6C108.401 126.7 108.901 126.3 109.501 125.8C109.701 125.6 110.301 125.1 111.001 124.4C111.401 124 111.801 123.5 112.101 123.2L112.201 123.1L112.301 123L113.001 122.3C113.701 121.5 114.501 120.8 115.301 119.9C115.501 119.7 115.601 119.5 115.801 119.3C116.201 118.9 116.501 118.5 116.901 118.1C117.101 117.9 117.401 117.6 117.601 117.6C117.901 117.7 117.701 118.8 117.701 119.4C117.601 121.5 117.901 123 119.201 124C119.701 124.4 120.501 124.4 121.201 124.6C122.001 124.8 122.701 125.1 123.601 125C124.201 124.9 124.801 124.6 125.301 124.3C126.601 123.5 127.401 122.9 128.501 122C128.701 121.8 129.101 121.5 129.301 121.3C129.401 121.3 129.401 121.2 129.501 121.2C129.601 121.1 129.901 120.9 130.001 120.9V121.2V121.4C130.301 123.2 131.401 123.9 133.201 124.4C133.501 124.5 133.801 124.6 134.101 124.7C134.601 124.9 135.101 125.1 135.701 125.1H135.901C136.401 125.1 136.901 124.9 137.301 124.8L137.501 124.7C138.001 124.5 138.401 124.3 138.801 124C140.001 123.2 141.001 122.3 142.001 121.4L142.101 121.3C142.401 121.1 142.601 120.8 142.901 120.6L143.001 120.5C143.301 120.2 143.501 119.9 143.701 119.6C144.101 119.1 144.501 118.7 144.901 118.3C145.001 118.2 145.201 118.3 145.201 118.5C145.201 118.7 145.201 119 145.101 119.3V119.4V119.5V120V120.4V121.3C145.001 122.3 145.001 123.6 145.001 123.9C145.001 124.2 144.901 124.5 144.901 124.9C144.801 126.3 144.801 128.2 144.701 129.7C144.701 130.2 144.701 130.9 144.801 131.3C145.001 131.7 145.501 132.1 145.901 132.2C146.501 132.4 146.901 132.2 147.401 132.1C148.001 132.1 148.501 132.2 148.601 131.8C148.601 131.7 148.501 131.5 148.501 131.2C148.501 131 148.401 130.9 148.401 130.7L148.201 125.3V125.2C148.201 124.8 148.301 124.4 148.301 124.1C148.301 123.8 148.201 122.1 148.501 122C148.701 121.9 149.201 122.6 149.201 122.6L149.901 123.3C151.101 124.7 152.301 125.7 154.001 126.6C154.301 126.8 154.701 127 155.001 127.1C155.701 127.3 156.401 127.4 157.101 127.6C157.801 127.7 158.701 127.9 159.401 127.8C161.001 127.7 162.101 127.1 163.101 126.4C163.601 126.1 164.101 125.7 164.501 125.3C164.701 125.1 164.901 124.9 165.201 124.7C166.601 123.5 167.601 122.5 168.201 121.6L168.401 121.4V121.3C168.901 120.6 169.101 120.1 169.201 119.9C169.301 119.6 169.901 118.2 169.301 118.1ZM121.101 107.9C120.101 109 119.101 110.2 118.101 111.3C117.001 112.6 115.801 113.9 114.701 115.2C113.001 117.1 111.201 119 109.401 120.9L108.501 121.8C108.401 121.9 107.701 122.6 107.501 122.5C107.401 122.4 107.401 122.3 107.401 122.2C107.401 122.1 107.401 122 107.501 121.9C108.101 119.3 110.301 116.6 110.801 116C111.101 115.7 113.101 113.5 115.001 111.8C116.301 110.6 119.001 108.7 120.801 107.7C120.901 107.6 121.001 107.6 121.201 107.5C121.201 107.5 121.301 107.5 121.301 107.4H121.401C121.501 107.4 121.601 107.4 121.601 107.5C121.501 107.5 121.301 107.7 121.101 107.9Z" fill="black"/>
</g>
<defs>
<clipPath id="clip0_99_16">
<rect width="215" height="59.6" fill="white" transform="translate(63 85)"/>
</clipPath>
</defs>
</svg>
