<svg width="1200" height="800" viewBox="0 0 1200 800" fill="none" xmlns="http://www.w3.org/2000/svg">
<rect width="1200" height="800" fill="white"/>
<path d="M955.104 386.116C950.915 397.35 946.536 408.584 942.347 419.817H941.778C937.589 408.584 933.4 397.54 929.402 386.307H929.02C928.639 390.115 928.068 393.923 927.688 397.54C926.926 403.824 926.355 409.917 925.784 416.201C925.589 417.913 925.022 418.675 923.118 418.485C915.692 417.913 908.457 416.772 901.031 417.152C894.939 417.533 888.845 417.914 882.752 418.485C881.039 418.675 880.468 418.104 880.087 416.581L877.802 408.013C877.421 406.87 877.041 406.49 875.708 406.49H859.904C858.762 406.49 858.191 406.87 857.81 408.013C857.048 411.059 856.096 413.915 855.144 416.962C854.763 418.104 854.382 418.675 853.049 418.485C846.386 417.913 839.531 417.533 832.867 416.962C830.773 416.771 831.915 415.629 832.105 414.868C835.342 404.776 838.579 394.684 841.816 384.783C845.814 372.598 849.813 360.602 853.621 348.417C854.002 347.084 854.573 346.513 856.096 346.513H878.945C880.468 346.513 881.039 346.893 881.61 348.417C888.655 369.551 895.7 390.686 902.555 411.821C902.936 412.773 903.123 413.725 903.887 414.486C905.22 404.776 906.363 395.066 907.696 385.164C909.218 372.788 910.742 360.602 912.265 348.226C912.452 346.893 913.027 346.513 914.359 346.513H930.734C932.257 346.513 932.829 346.893 933.399 348.417L941.968 371.836C943.11 370.313 943.491 368.6 944.062 367.076C946.347 360.793 948.632 354.7 950.917 348.416C951.485 346.893 952.25 346.322 953.773 346.322C959.104 346.513 964.435 346.322 969.767 346.322C971.29 346.322 971.861 346.893 972.052 348.416L978.906 403.824C979.288 407.06 979.668 410.297 980.048 413.725C981 412.963 981 412.012 981.191 411.059C988.046 390.115 994.9 369.361 1001.56 348.417C1002.13 346.703 1002.9 346.323 1004.61 346.323C1012.04 346.323 1019.46 346.513 1027.08 346.323C1028.6 346.323 1029.36 346.893 1029.74 348.226C1036.98 370.313 1044.21 392.209 1051.64 414.106C1052.4 416.2 1052.02 416.581 1049.74 416.771C1043.26 417.153 1036.79 417.533 1030.31 418.104C1028.79 418.295 1028.22 417.723 1027.84 416.391C1027.08 413.534 1026.32 410.869 1025.56 408.013C1025.17 406.68 1024.6 406.108 1023.08 406.108C1018 406.299 1012.92 406.299 1007.85 406.108C1006.32 406.108 1005.94 406.68 1005.56 408.013C1004.8 410.869 1003.85 413.725 1003.09 416.581C1002.71 417.914 1002.14 418.485 1000.61 418.294C996.233 417.914 991.853 417.723 987.665 417.343C978.906 416.391 970.338 417.723 961.77 418.104C958.152 418.295 958.152 418.485 957.962 414.867C957.01 405.157 956.248 395.446 955.296 385.736C955.483 386.116 955.291 386.116 955.104 386.116ZM867.899 367.838H867.518C866.184 373.359 864.662 378.881 863.329 384.403C862.186 389.163 862.186 389.163 867.136 389.163H867.518C873.039 389.163 873.039 389.163 871.706 383.831C870.564 378.31 869.232 372.979 867.899 367.838ZM1016.03 367.838H1015.46C1013.75 374.501 1012.23 380.975 1010.51 387.64C1010.13 388.782 1010.51 389.163 1011.66 389.163H1019.65C1020.8 389.163 1020.99 388.782 1020.8 387.83C1019.27 380.975 1017.56 374.311 1016.03 367.838ZM553.544 346.703H565.158C566.491 346.703 567.062 347.084 567.443 348.226C574.869 370.503 582.104 392.781 589.53 415.058C589.911 416.391 589.911 417.152 588.197 417.152C581.532 417.533 574.869 417.914 568.205 418.485C566.681 418.675 566.11 418.104 565.729 416.772C564.968 413.915 564.016 411.249 563.444 408.393C563.063 407.06 562.492 406.49 560.969 406.49C555.957 406.681 550.939 406.681 545.927 406.49C544.214 406.49 543.642 407.061 543.262 408.584C542.5 411.44 541.548 414.296 540.787 417.152C540.6 418.104 540.218 418.675 538.883 418.675C532.028 418.104 525.174 417.723 518.319 417.152C516.224 416.962 517.557 415.629 517.751 415.058C521.177 404.395 524.605 393.732 528.032 383.26C531.84 371.645 535.649 360.222 539.266 348.607C539.648 347.084 540.408 346.703 541.741 346.703C545.93 346.893 549.735 346.703 553.544 346.703ZM553.544 367.838H552.975C551.452 373.931 549.929 380.214 548.406 386.307C547.644 388.972 547.837 388.972 550.69 388.972H553.165C558.687 388.972 558.687 388.972 557.354 383.641C556.212 378.31 554.876 372.979 553.544 367.838ZM736.331 346.703H747.945C749.088 346.703 749.658 347.084 750.04 348.226C757.465 370.503 764.891 392.971 772.317 415.248C772.698 416.581 772.698 417.152 771.174 417.152C764.51 417.533 757.656 418.104 750.992 418.485C749.658 418.675 748.897 418.294 748.516 416.772C747.755 413.915 746.803 411.059 746.231 408.203C745.85 406.87 745.47 406.299 743.947 406.299C738.871 406.49 733.79 406.49 728.714 406.299C727.191 406.299 726.62 406.87 726.239 408.203C725.477 411.059 724.525 413.915 723.764 416.771C723.382 417.914 722.812 418.485 721.479 418.295C714.815 417.723 708.151 417.343 701.487 416.771C699.202 416.581 700.535 415.248 700.725 414.486C705.485 399.445 710.435 384.593 715.196 369.551C717.481 362.316 719.955 355.081 722.24 347.845C722.622 346.513 723.192 346.132 724.716 346.132C728.714 346.893 732.522 346.703 736.331 346.703ZM736.331 367.838H735.762C734.049 374.502 732.525 380.975 730.812 387.64C730.43 388.782 730.812 389.162 731.954 389.162H739.951C740.903 389.162 741.284 388.782 741.093 387.83C739.57 380.975 738.044 374.311 736.331 367.838ZM252.897 389.734V414.297C252.897 416.582 252.329 417.153 250.041 417.153C244.709 417.343 239.188 417.915 233.857 418.485C232.334 418.676 231.952 418.105 231.952 416.582V348.417C231.952 346.893 232.334 346.513 233.857 346.513C242.806 346.513 251.755 346.322 260.513 346.703C269.272 346.894 277.078 349.94 281.267 358.318C284.694 365.172 285.075 372.217 281.648 379.262C280.315 381.928 278.601 384.022 275.936 385.355C273.842 386.307 274.222 387.449 274.794 389.163C278.411 397.731 282.029 406.299 285.836 415.058C286.598 416.772 286.598 417.343 284.504 417.343C278.221 417.724 272.127 418.105 265.844 418.675C264.322 418.866 263.559 418.295 262.988 416.772C259.942 408.203 256.705 399.826 253.659 391.257C253.472 390.686 253.277 390.115 253.09 389.545C253.277 389.735 253.084 389.734 252.897 389.734ZM252.897 375.073V379.833C252.897 383.641 253.084 383.831 256.896 383.26C257.277 383.26 257.657 383.069 258.038 383.069C261.846 381.927 263.559 378.119 262.798 372.979C262.23 368.98 259.561 366.885 254.991 366.885C253.468 366.885 252.897 367.266 253.087 368.79C252.9 370.884 252.897 372.979 252.897 375.073ZM316.111 389.734V414.297C316.111 416.391 315.542 417.153 313.445 417.153C308.114 417.343 302.592 417.915 297.261 418.485C295.738 418.676 295.357 418.295 295.357 416.773V348.416C295.357 346.893 295.926 346.702 297.261 346.702C306.21 346.702 315.159 346.511 324.298 346.702C333.057 346.893 340.672 349.939 344.861 358.317C348.289 365.171 348.67 372.217 345.243 379.261C343.91 381.927 342.007 384.212 339.34 385.544C337.627 386.496 337.627 387.448 338.388 388.972C342.007 397.54 345.624 406.108 349.432 414.866C350.384 417.342 350.384 417.151 347.718 417.342C341.625 417.723 335.533 418.103 329.44 418.675C327.916 418.865 327.155 418.293 326.584 416.77C323.537 408.203 320.3 399.825 317.254 391.257C317.061 390.687 316.872 390.115 316.686 389.543C316.304 389.734 316.111 389.734 316.111 389.734ZM315.924 375.073V379.833C315.924 383.831 316.305 384.021 320.303 383.451C320.684 383.451 320.871 383.26 321.255 383.26C324.872 382.118 326.776 378.119 325.824 372.979C325.256 368.98 322.397 366.885 317.827 366.885C316.494 366.885 315.924 367.266 315.924 368.599V375.073ZM614.663 389.734C614.282 390.496 614.469 391.257 614.469 392.019V415.058C614.469 416.2 614.663 417.152 612.755 417.343C607.043 417.723 601.331 418.104 595.619 418.675C594.096 418.866 593.524 418.485 593.524 416.771V348.608C593.524 347.084 594.093 346.703 595.429 346.703C604.187 346.703 613.136 346.512 621.894 346.703C630.653 346.893 638.46 349.75 642.839 358.127C645.886 364.03 646.456 370.123 644.362 376.596C643.219 380.405 640.935 383.641 637.317 385.545C635.604 386.497 635.794 387.259 636.365 388.782C639.965 397.511 643.647 406.206 647.408 414.867C648.36 416.961 647.79 417.343 645.695 417.343C639.602 417.723 633.509 418.104 627.416 418.675C625.703 418.866 624.941 418.294 624.37 416.771C621.323 408.393 618.277 400.016 615.04 391.447C615.421 390.877 615.231 390.114 614.663 389.734ZM614.281 375.073V379.833C614.281 383.641 614.469 383.831 618.28 383.26C618.661 383.26 619.041 383.069 619.422 383.069C623.23 381.927 625.325 377.358 623.992 372.217C623.04 368.218 619.422 365.933 615.234 366.695C614.091 366.885 614.281 367.647 614.281 368.409V375.073ZM797.259 389.734V414.297C797.259 416.582 796.691 417.153 794.404 417.153C789.072 417.343 783.55 417.915 778.219 418.485C776.696 418.676 776.315 418.105 776.315 416.582V348.417C776.315 346.893 776.696 346.513 778.219 346.513C787.168 346.513 796.117 346.322 804.876 346.703C813.634 346.894 821.44 349.94 825.629 358.318C829.057 365.172 829.438 372.217 826.011 379.262C824.678 381.928 822.964 384.022 820.299 385.355C818.204 386.307 818.585 387.449 819.156 389.163C822.774 397.731 826.392 406.299 830.2 415.058C830.962 416.772 830.962 417.343 828.867 417.343C822.584 417.724 816.491 418.105 810.208 418.675C808.684 418.866 807.923 418.295 807.351 416.772C804.305 408.203 801.068 399.826 798.022 391.257C797.835 390.686 797.641 390.115 797.453 389.545C797.453 389.735 797.453 389.735 797.266 389.735L797.259 389.734ZM797.072 374.883V381.737C797.072 382.499 796.885 383.26 798.024 383.451C801.832 384.212 805.449 382.118 806.592 378.5C807.161 376.977 807.161 375.263 806.974 373.74C806.405 368.028 802.595 366.695 798.025 366.885C797.073 366.885 797.073 367.648 797.073 368.218L797.072 374.883ZM482.523 357.175V365.363C482.523 366.885 482.142 367.075 480.619 366.696C475.478 365.172 470.338 364.411 464.816 364.601C463.292 364.601 461.769 364.791 460.436 365.553C458.533 366.696 458.533 368.599 460.249 369.742C462.153 371.074 464.438 371.836 466.723 372.598C471.863 374.692 477.004 376.786 481.002 380.785C489.38 388.782 489 408.393 473.387 415.058C465.39 418.485 457.012 418.675 448.444 418.104C445.397 417.913 442.351 417.152 439.114 416.771C437.972 416.581 437.401 416.01 437.401 414.867V398.113C437.401 396.399 437.969 396.208 439.495 396.589C445.016 397.732 450.729 398.493 456.441 398.303C457.964 398.303 459.297 398.112 460.63 397.541C461.962 397.16 462.914 396.399 463.105 394.876C463.292 393.543 462.343 392.591 461.391 391.829C459.678 390.687 457.773 390.115 455.679 389.354C451.681 387.83 447.682 386.308 444.255 383.832C432.831 376.026 434.164 354.32 448.634 347.846C455.299 344.8 462.343 344.419 469.388 344.99C472.815 345.18 476.243 345.751 479.86 346.133C481.574 346.323 482.335 346.894 482.145 348.798C482.527 351.844 482.523 354.509 482.523 357.175ZM180.544 381.928V348.987C180.544 347.274 180.925 346.702 182.638 346.702H217.291C218.625 346.702 219.386 347.083 219.576 348.416C220.719 353.556 221.861 358.888 223.194 364.029C223.576 365.552 223.007 365.742 221.861 365.742H204.725C203.202 365.742 202.44 365.933 202.44 367.837C202.44 372.597 202.44 372.597 207.201 372.597H214.436C215.769 372.597 216.149 372.978 216.149 374.311V388.781C216.149 390.114 215.768 390.495 214.436 390.495H204.154C202.821 390.495 202.44 390.876 202.44 392.399C202.44 398.111 202.253 398.111 207.962 398.111H223.004C224.527 398.111 225.098 398.302 224.717 400.015C223.384 405.346 222.242 410.487 221.1 415.818C220.718 417.151 220.148 417.723 218.625 417.723H182.638C181.115 417.723 180.544 417.342 180.544 415.628V381.928ZM381.8 368.79C384.084 361.364 386.369 354.319 388.273 347.274C388.842 345.37 389.606 344.989 391.51 345.18C397.603 345.941 403.697 346.322 409.599 346.703C411.312 346.893 411.693 347.274 411.122 348.987C402.554 371.455 394.176 394.114 385.608 416.581C385.226 417.723 384.656 418.675 383.133 418.485C376.279 417.723 369.614 416.962 362.759 416.391C360.855 416.2 360.855 415.629 361.617 414.106C364.473 408.013 367.139 401.729 369.995 395.636C370.563 394.494 370.563 393.542 369.995 392.209C363.521 377.929 357.048 363.649 350.383 349.178C349.241 346.893 349.241 346.893 351.907 346.703C358.57 346.131 365.044 345.561 371.709 344.99C373.232 344.798 373.612 345.37 374.184 346.703C376.468 353.939 379.134 360.983 381.8 368.79ZM665.31 392.971V369.932C665.31 368.028 664.929 367.266 662.834 367.457C659.217 367.648 655.599 367.457 651.792 367.457C650.459 367.457 650.077 367.266 650.459 365.743C651.792 359.841 653.124 354.129 654.457 348.226C654.644 347.084 655.219 346.703 656.551 346.703H698.63C699.963 346.703 700.535 347.084 700.535 348.417V365.553C700.535 366.885 700.153 367.457 698.821 367.457H689.682C687.778 367.266 687.397 368.028 687.397 369.742V413.534C687.397 416.962 687.397 416.962 683.969 417.343C678.448 417.723 672.926 418.104 667.404 418.675C665.881 418.866 665.501 418.294 665.501 416.771C665.501 408.965 665.31 400.968 665.31 392.971ZM138.465 395.446C140.94 395.827 143.034 396.208 145.319 396.398C147.985 396.589 149.318 395.446 150.08 392.971C150.648 391.257 150.461 389.734 150.461 388.02V349.178C150.461 347.274 150.842 346.703 152.746 346.513C158.648 346.131 164.551 345.751 170.453 345.18C171.786 344.99 172.357 345.18 172.357 346.703C172.357 363.078 172.357 379.452 172.163 395.827C172.163 398.303 171.595 400.587 171.021 403.062C168.736 411.059 163.595 415.629 155.217 416.771C151.79 417.343 148.173 417.153 144.745 417.343C143.603 417.343 143.032 416.962 142.841 415.819C141.508 408.965 139.988 402.301 138.465 395.446ZM411.312 349.94C416.834 348.226 421.785 346.893 426.735 345.371C427.878 344.989 428.258 345.561 428.639 346.322C431.495 350.892 432.257 355.843 431.115 361.174C430.163 366.124 428.068 370.884 426.164 375.644C425.782 376.406 425.211 376.787 424.45 376.787H413.978C412.645 376.787 412.645 376.216 412.836 375.073C413.978 371.265 415.311 367.648 415.882 363.649C416.643 358.508 416.264 353.749 411.312 349.94ZM1052.4 362.507C1047.26 362.507 1043.26 358.508 1043.26 353.557C1043.26 348.607 1047.26 344.799 1052.4 344.799C1057.54 344.799 1061.54 348.797 1061.54 353.748C1061.54 358.508 1057.35 362.507 1052.4 362.507ZM1059.25 353.367C1059.25 349.369 1056.21 346.322 1052.4 346.322C1048.59 346.322 1045.54 349.369 1045.54 353.367C1045.54 357.365 1048.59 360.602 1052.59 360.412C1056.4 360.602 1059.25 357.365 1059.25 353.367Z" fill="#DC4654"/>
<path d="M1049.35 357.557V349.94H1052.59C1053.35 349.94 1053.92 349.94 1054.3 350.131C1054.68 350.322 1055.06 350.512 1055.25 350.893C1055.44 351.274 1055.64 351.654 1055.64 352.035C1055.64 352.606 1055.45 353.178 1055.07 353.368C1054.69 353.749 1054.31 353.939 1053.54 354.13C1053.93 354.32 1054.11 354.511 1054.31 354.701C1054.49 354.892 1054.87 355.273 1055.26 356.034L1056.21 357.557H1054.31L1053.35 356.034C1052.97 355.463 1052.59 355.082 1052.59 354.891C1052.4 354.701 1052.21 354.701 1052.21 354.511H1051.07V357.747H1049.36L1049.35 357.557ZM1050.88 353.177H1053.35C1053.54 353.177 1053.73 352.987 1053.73 352.796C1053.92 352.606 1053.92 352.416 1053.92 352.225C1053.92 352.034 1053.92 351.844 1053.73 351.654C1053.55 351.463 1053.35 351.463 1053.16 351.273H1050.88L1050.88 353.177Z" fill="#DC4654"/>
<path d="M369.804 439.43H361.807V446.855H370.756V449.14H359.142V428.577H370.185V430.861H361.807V437.335H369.804V439.43ZM376.468 438.287C376.468 436.764 376.468 435.431 376.281 434.289H378.566L378.753 436.574C379.514 435.241 381.038 433.908 383.323 433.908C385.418 433.908 386.94 435.05 387.512 436.955C387.893 436.193 388.464 435.431 389.225 435.05C390.177 434.289 391.129 434.098 392.462 434.098C394.366 434.098 397.222 435.431 397.222 440.572V449.33H394.557V440.954C394.557 438.097 393.605 436.384 391.32 436.384C389.797 436.384 388.654 437.526 388.083 438.859C387.889 439.239 387.889 439.62 387.889 440.192V449.331H385.223V440.571C385.223 438.287 384.271 436.573 382.177 436.573C380.463 436.573 379.321 437.906 378.94 439.239C378.746 439.619 378.746 440 378.746 440.571V449.52H376.461L376.468 438.287ZM404.267 439.049C404.267 437.145 404.267 435.622 404.08 434.289H406.555L406.742 436.765C407.884 435.05 409.598 433.908 412.073 433.908C415.69 433.908 418.356 436.955 418.356 441.334C418.356 446.665 415.12 449.331 411.692 449.331C409.788 449.331 408.075 448.57 407.122 447.046V455.043H404.457V439.049H404.267ZM406.932 443.048C406.932 443.428 406.932 443.809 407.127 444.19C407.695 446.094 409.221 447.236 411.125 447.236C413.981 447.236 415.695 444.951 415.695 441.524C415.695 438.478 414.172 436.003 411.316 436.003C409.412 436.003 407.698 437.335 407.317 439.239C407.317 439.62 407.13 440.001 407.13 440.382V443.048H406.932ZM437.207 441.524C437.207 447.046 433.399 449.331 429.781 449.331C425.783 449.331 422.736 446.475 422.736 441.714C422.736 436.764 425.973 433.908 429.972 433.908C434.351 433.908 437.207 436.955 437.207 441.524ZM425.593 441.715C425.593 444.952 427.496 447.427 430.162 447.427C432.637 447.427 434.732 444.951 434.732 441.715C434.732 439.239 433.399 436.003 430.352 436.003C426.925 436.003 425.593 438.859 425.593 441.715ZM443.871 434.289L445.775 441.715C446.156 443.428 446.537 444.951 446.917 446.475C447.299 444.951 447.679 443.428 448.25 441.905L450.726 434.289H453.011L455.295 441.715C455.864 443.428 456.248 444.951 456.628 446.475C456.815 444.951 457.197 443.428 457.77 441.715L459.865 434.288H462.531L457.77 448.95H455.295L453.011 441.905C452.442 440.192 452.059 438.859 451.678 437.145C451.296 438.858 450.916 440.382 450.344 442.096L448.06 449.141H445.585L441.205 434.479H443.871V434.289ZM468.623 442.096C468.623 445.713 470.908 447.236 473.764 447.236C475.668 447.236 476.811 446.855 477.762 446.475L478.144 448.379C477.192 448.759 475.668 449.331 473.193 449.331C468.623 449.331 465.958 446.284 465.958 441.905C465.958 437.526 468.623 433.908 472.812 433.908C477.572 433.908 478.905 438.097 478.905 440.763V442.096H468.623ZM476.62 440.192C476.62 438.478 475.859 435.812 472.812 435.812C470.147 435.812 469.004 438.287 468.623 440.192H476.62ZM484.808 438.859C484.808 437.145 484.808 435.622 484.621 434.289H486.905V437.145H487.092C487.854 435.241 489.377 433.908 491.091 433.908H491.853V436.384H490.901C488.997 436.384 487.664 437.907 487.283 439.811C487.283 440.192 487.096 440.572 487.096 441.144V448.95H484.431V438.859H484.808ZM500.23 430.1C500.23 431.052 499.662 431.814 498.517 431.814C497.565 431.814 496.993 431.052 496.993 430.1C496.992 429.875 497.036 429.652 497.122 429.443C497.208 429.235 497.334 429.046 497.493 428.886C497.653 428.727 497.842 428.601 498.05 428.515C498.259 428.429 498.482 428.386 498.707 428.387C499.659 428.387 500.23 429.149 500.23 430.1ZM497.184 448.95V434.289H499.849V448.95H497.184ZM506.704 438.287C506.704 436.764 506.704 435.431 506.517 434.289H508.802L508.989 436.765C509.75 435.431 511.464 433.908 513.939 433.908C516.034 433.908 519.08 435.05 519.08 440.192V448.949H516.415V440.382C516.415 438.097 515.463 436.003 512.987 436.003C511.274 436.003 509.941 437.335 509.369 438.668C509.182 439.049 509.182 439.429 509.182 440.001V448.95H506.517V438.287H506.704ZM538.692 434.289C538.692 435.431 538.505 436.574 538.505 438.287V446.855C538.505 450.283 537.742 452.377 536.41 453.519C534.886 454.853 532.983 455.233 531.079 455.233C529.365 455.233 527.27 454.852 526.128 454.091L526.89 451.996C527.842 452.568 529.365 453.139 531.269 453.139C533.935 453.139 536.029 451.616 536.029 447.998V446.285C535.268 447.617 533.553 448.76 531.269 448.76C527.651 448.76 524.985 445.713 524.985 441.524C524.985 436.573 528.222 433.718 531.65 433.718C534.125 433.718 535.648 435.05 536.22 436.193L536.407 433.908H538.692V434.289ZM535.835 440.192C535.835 439.81 535.835 439.43 535.648 439.049C535.08 437.526 533.935 436.193 531.84 436.193C529.365 436.193 527.461 438.287 527.461 441.715C527.461 444.57 528.984 447.046 531.84 447.046C533.553 447.046 534.886 446.094 535.648 444.381C535.835 443.999 535.835 443.428 535.835 442.857V440.192ZM557.542 442.476L555.447 448.95H552.781L559.827 428.387H563.063L570.108 448.95H567.252L564.968 442.476H557.542ZM564.206 440.572L562.111 434.67C561.73 433.337 561.35 432.194 560.969 430.861C560.587 432.004 560.4 433.337 560.017 434.67L557.922 440.572H564.206ZM575.059 438.859C575.059 437.145 575.059 435.622 574.872 434.289H577.157V437.145H577.344C578.105 435.241 579.629 433.908 581.342 433.908H582.104V436.384H581.151C579.247 436.384 577.915 437.907 577.534 439.811C577.534 440.192 577.347 440.572 577.347 441.144V448.95H574.68V438.859H575.059ZM591.243 430.1V434.288H595.051V436.383H591.243V444.381C591.243 446.284 591.811 447.236 593.338 447.236C594.099 447.236 594.48 447.236 594.86 447.045L595.048 449.139C594.312 449.391 593.54 449.52 592.763 449.521C591.43 449.521 590.478 449.139 589.907 448.378C589.145 447.617 588.954 446.284 588.954 444.57V436.573H586.67V434.479H588.954V430.861L591.243 430.1ZM603.428 430.1C603.428 431.052 602.86 431.814 601.715 431.814C600.763 431.814 600.192 431.052 600.192 430.1C600.191 429.875 600.235 429.652 600.321 429.443C600.407 429.235 600.533 429.046 600.692 428.886C600.851 428.727 601.041 428.601 601.249 428.515C601.457 428.429 601.68 428.386 601.906 428.387C602.858 428.387 603.428 429.149 603.428 430.1ZM600.573 448.95V434.289H603.238V448.95H600.573ZM609.712 446.285C610.474 446.856 611.997 447.427 613.33 447.427C615.234 447.427 616.186 446.475 616.186 445.142C616.186 443.809 615.424 443.238 613.52 442.476C610.854 441.524 609.712 440.001 609.712 438.287C609.712 436.003 611.616 433.908 614.853 433.908C616.376 433.908 617.709 434.289 618.471 434.86L617.709 436.764C617.14 436.383 615.995 436.003 614.663 436.003C613.139 436.003 612.187 436.955 612.187 438.097C612.187 439.239 613.139 439.811 615.043 440.572C617.519 441.524 618.852 442.857 618.852 444.951C618.852 447.617 616.757 449.331 613.33 449.331C611.806 449.331 610.283 448.949 609.141 448.379L609.712 446.285ZM627.61 430.1V434.288H631.418V436.383H627.61V444.381C627.61 446.284 628.179 447.236 629.704 447.236C630.466 447.236 630.846 447.236 631.228 447.045L631.415 449.139C630.679 449.391 629.908 449.52 629.13 449.521C627.797 449.521 626.845 449.139 626.274 448.378C625.513 447.617 625.323 446.284 625.323 444.57V436.573H623.038V434.479H625.323V430.861L627.61 430.1ZM636.368 446.285C637.13 446.856 638.653 447.427 639.986 447.427C641.89 447.427 642.842 446.475 642.842 445.142C642.842 443.809 642.081 443.238 640.177 442.476C637.511 441.524 636.368 440.001 636.368 438.287C636.368 436.003 638.272 433.908 641.509 433.908C643.033 433.908 644.365 434.289 645.127 434.86L644.366 436.764C643.797 436.383 642.652 436.003 641.319 436.003C639.796 436.003 638.844 436.955 638.844 438.097C638.844 439.239 639.796 439.811 641.7 440.572C644.175 441.524 645.508 442.857 645.508 444.951C645.508 447.617 643.413 449.331 639.986 449.331C638.463 449.331 636.94 448.949 635.798 448.379L636.368 446.285ZM659.788 445.713C660.931 446.475 662.644 447.046 664.548 447.046C667.214 447.046 668.927 445.523 668.927 443.618C668.927 441.714 667.785 440.572 665.119 439.62C661.692 438.478 659.788 436.764 659.788 433.718C659.788 430.481 662.454 428.196 666.453 428.196C668.547 428.196 670.07 428.767 671.022 429.148L670.26 431.242C669.499 430.861 668.166 430.29 666.453 430.29C663.596 430.29 662.644 432.004 662.644 433.337C662.644 435.241 663.977 436.193 666.642 437.335C670.07 438.668 671.974 440.382 671.974 443.428C671.974 446.665 669.689 449.331 664.738 449.331C662.834 449.331 660.549 448.759 659.407 447.998L659.788 445.713ZM680.351 430.1C680.351 431.052 679.783 431.814 678.638 431.814C677.686 431.814 677.115 431.052 677.115 430.1C677.114 429.875 677.157 429.652 677.243 429.443C677.329 429.235 677.455 429.046 677.615 428.887C677.774 428.727 677.963 428.601 678.171 428.515C678.38 428.43 678.603 428.386 678.828 428.387C679.78 428.387 680.351 429.149 680.351 430.1ZM677.495 448.95V434.289H680.162V448.95H677.495ZM686.825 438.287C686.825 436.764 686.825 435.431 686.638 434.289H688.923L689.117 436.765C689.879 435.431 691.593 433.908 694.068 433.908C696.163 433.908 699.209 435.05 699.209 440.192V448.949H696.543V440.382C696.543 438.097 695.591 436.003 693.116 436.003C691.402 436.003 690.069 437.335 689.498 438.668C689.311 439.049 689.311 439.429 689.311 440.001V448.95H686.835L686.825 438.287ZM716.719 448.57C715.957 448.95 714.434 449.331 712.53 449.331C708.15 449.331 705.104 446.285 705.104 441.715C705.104 437.145 708.15 433.908 713.101 433.908C714.624 433.908 716.148 434.289 716.909 434.67L716.34 436.764C715.772 436.383 714.627 436.003 713.294 436.003C709.867 436.003 708.153 438.478 708.153 441.524C708.153 444.951 710.438 447.046 713.294 447.046C714.818 447.046 715.77 446.665 716.531 446.285L716.719 448.57ZM723.383 442.096C723.383 445.713 725.668 447.236 728.524 447.236C730.428 447.236 731.57 446.855 732.522 446.475L732.903 448.379C731.951 448.759 730.429 449.331 727.953 449.331C723.383 449.331 720.718 446.284 720.718 441.905C720.718 437.526 723.383 433.908 727.572 433.908C732.332 433.908 733.665 438.097 733.665 440.763V442.096H723.383ZM731.379 440.192C731.379 438.478 730.618 435.812 727.572 435.812C724.906 435.812 723.763 438.287 723.383 440.192H731.379ZM753.276 431.624L749.849 433.527L749.28 431.433L753.66 429.148H755.945V448.95H753.279L753.276 431.624ZM766.985 447.046H769.079C770.603 446.855 772.126 446.284 773.268 445.142C774.601 443.999 775.553 442.286 775.934 439.811C774.791 441.144 773.268 441.905 771.364 441.905C767.747 441.905 765.462 439.239 765.462 435.812C765.462 432.004 768.127 428.767 772.316 428.767C776.505 428.767 778.79 432.004 778.79 437.145C778.79 441.524 777.267 444.571 775.363 446.475C773.84 447.998 771.745 448.95 769.651 449.14C768.699 449.331 767.747 449.331 767.175 449.331V447.046H766.985ZM767.937 435.813C767.937 438.287 769.46 440.001 771.745 440.001C773.458 440.001 774.982 439.049 775.553 437.907C775.74 437.716 775.74 437.335 775.74 436.955C775.74 433.527 774.408 431.052 771.742 431.052C769.648 430.861 767.937 432.957 767.937 435.813ZM794.784 431.052C794.216 431.052 793.451 431.052 792.689 431.243C788.5 432.004 786.215 435.051 785.835 438.288C786.787 436.955 788.5 436.003 790.595 436.003C794.022 436.003 796.497 438.478 796.497 442.476C796.497 446.094 794.022 449.522 789.834 449.522C785.645 449.522 782.788 446.285 782.788 441.144C782.788 437.336 784.121 434.098 786.215 432.195C787.93 430.671 790.024 429.529 792.499 429.339C793.261 429.148 794.022 429.148 794.403 429.148V431.052H794.784ZM794.022 442.476C794.022 439.62 792.499 437.907 790.024 437.907C788.5 437.907 786.977 438.859 786.215 440.382C786.028 440.762 785.834 441.144 785.834 441.524C785.834 444.761 787.357 447.236 790.214 447.236C792.498 447.236 794.022 445.333 794.022 442.476ZM801.258 444C801.258 441.524 802.781 439.811 805.256 438.668C802.971 437.716 802.209 436.003 802.209 434.289C802.209 431.242 804.875 428.957 808.302 428.957C812.111 428.957 814.015 431.433 814.015 433.908C814.015 435.621 813.253 437.335 810.778 438.478C813.253 439.43 814.776 441.144 814.776 443.618C814.776 447.046 811.73 449.331 808.112 449.331C803.733 449.331 801.258 446.855 801.258 444ZM811.92 443.809C811.92 441.334 810.207 440.191 807.541 439.429C805.256 440.191 803.923 441.714 803.923 443.428C803.923 445.522 805.446 447.236 807.922 447.236C810.207 447.427 811.92 445.903 811.92 443.809ZM804.494 433.908C804.494 435.812 806.018 436.955 808.302 437.525C810.016 436.954 811.349 435.812 811.349 433.908C811.349 432.385 810.397 430.671 807.922 430.671C805.637 430.861 804.494 432.194 804.494 433.908ZM819.727 447.427C819.727 446.284 820.488 445.523 821.44 445.523C822.583 445.523 823.154 446.284 823.154 447.427C823.154 448.569 822.392 449.331 821.44 449.331C820.488 449.331 819.727 448.569 819.727 447.427ZM820.488 443.048L820.106 428.387H822.963L822.581 443.048H820.488Z" fill="#707070"/>
<path d="M141.512 438.477H349.051" stroke="#707070" stroke-width="1.52346" stroke-miterlimit="10"/>
<path d="M833.626 438.477H1050.69" stroke="#707070" stroke-width="1.52346" stroke-miterlimit="10"/>
</svg>
