<?xml version="1.0" encoding="UTF-8"?><svg id="Layer_2" xmlns="http://www.w3.org/2000/svg" xmlns:xlink="http://www.w3.org/1999/xlink" viewBox="0 0 101 78"><defs><style>.cls-1{fill:#fff;}.cls-2{fill:#9cb7d4;}.cls-3{clip-path:url(#clippath);}.cls-4{fill:none;}.cls-5{fill:#eabfc9;}.cls-6{fill:#e1a5ad;}.cls-7{fill:#231f20;}</style><clipPath id="clippath"><rect class="cls-4" width="101" height="78"/></clipPath></defs><g id="Layer_2-2"><circle class="cls-5" cx="8.03" cy="54.78" r="5.01"/><circle class="cls-5" cx="41.05" cy="54.82" r="5.54"/><path class="cls-5" d="m54.85,6.36s-.57,52.05-.23,52.05,37.15-4.01,37.15-4.01l.46-52.85-37.38,4.82Z"/><circle class="cls-6" cx="74.3" cy="31.5" r="7.57"/><path class="cls-2" d="m2.13,26.11c1.64-4.59,8.36-4.49,10.14-6.52,5.67-6.47,13.54-1.75,12.2-.05S7.55,25.32,6.46,31.01c-.63,3.29-2.9,3.67-2.9,3.67,0,0-3.06-4.02-1.43-8.57Z"/><path class="cls-1" d="m69.29,25.9c-1.83,1.61-2.6,4.7-2.83,6.31,0,0,3.38-4.74,4.49-5.68l-1.66-.63Z"/></g><g id="Layer_1-2"><g class="cls-3"><path class="cls-7" d="m26.06,44.36c.34,3.36,1.1,7.74,4.96,8.76,3.86,1.03,8.23-1,9.8-4.5.8-1.78.83-3.86.32-5.71-.18-.66-1.6-.33-2.02-.2-.42.13-1.77.59-1.58,1.26.5,1.78.46,3.68-.34,5.37-.33.71-.82,1.31-1.42,1.79-.15.11-.18.13-.08.06-.09.06-.19.11-.28.16-.18.1-.2.1-.03.02-.1.05-.2.09-.3.13.54-.22-.55.11.02,0-.11.02-.21.04-.32.06.16-.01.17-.01.05,0-.38.03-.41.04-.79-.04-.38-.07-.78-.23-1.13-.43-.72-.43-1.34-1.08-1.77-1.79-1.09-1.8-1.31-3.94-1.52-5.98-.09-.92-3.72-.13-3.6,1.06h0Z"/><path class="cls-7" d="m22.26,60.08c2.69-.51,5.09-1.99,6.76-4.16.34-.43-2.09-1.67-2.64-.96-1.52,1.96-3.78,3.32-6.21,3.77-.62.11-.03.7.23.86.53.32,1.25.6,1.88.48Z"/><path class="cls-7" d="m19.47,44.69c-.2,1.99-.38,4.17-1.49,5.91-.22.34-.47.67-.77.96,0,0-.34.29-.22.19-.09.07-.19.13-.29.19.14-.08.12-.07-.05.01.21-.09.22-.1,0-.02.22-.07.23-.08.02-.02.18-.04.17-.04-.03,0,.13,0,.1,0-.08,0-.36,0-.68-.02-1.04-.1-3.75-.85-4.96-5.12-4.03-8.44.2-.7-1.25-.43-1.54-.35-.62.17-1.78.56-1.98,1.28-.89,3.18-.04,7.07,3.09,8.7,3.47,1.81,8.19.31,10.23-2.96,1.19-1.9,1.46-4.1,1.67-6.28.07-.7-1.16-.46-1.54-.35-.47.13-.92.31-1.33.58-.23.15-.62.41-.65.7h0Z"/><path class="cls-7" d="m40.41,70.57c-.5-2.13-.98-4.25-1.2-5.3,6.69-4.43,11.12-12.01,11.12-20.6,0-12.89-9.95-23.5-22.59-24.61-.06-.36-.2-.7-.32-.94-1.34-2.42-3.63-4.28-6.33-4.94-2.83-.7-5.48.17-7.8,1.81-1.2.85-2.3,1.81-3.51,2.64-.71.49-1.45.92-2.2,1.34-.26-.2-.51-.4-.78-.58-.89-.61-1.89-1.1-2.91-1.44-.14-.04-.49-.19-.65-.14-.15.05-.05.18.03.25.2.19.46.35.7.49.32.17.65.34.98.46.07.02.13.04.2.07h0s.04.02.06.04c0,0,.02.01.03.02.1.07.2.14.29.22.02,0,.02.02.04.03.05.04.1.09.14.13.22.2.42.42.61.65.09.1.23.21.38.3-.21.12-.43.24-.64.36-2.47,1.43-4.63,3.24-5.55,6.04-.98,3-.49,6.46,1.23,9.1.11.18.27.38.45.58-.89,2.55-1.38,5.28-1.38,8.13,0,8.88,4.71,16.67,11.77,21.02-.25,1.15-.68,3.01-1.1,4.88-1.83-.38-5.13-.83-6.7.46-.67.55-.99,1.32-.92,2.24.25,3.6,11.22,4.55,20.38,4.71l1.28.02-.93-8.64c.33.01.66.02,1,.02.59,0,1.17-.03,1.76-.07.77-.05,1.55-.14,2.29-.27l.22-2.32c-.68.12-1.57.25-2.26.31-.66.06-1.32.09-2,.09-.41,0-.83-.01-1.24-.04-.78-.05-1.55-.13-2.3-.25l.14,1.27.11,1.04.71,6.54c-8.57-.25-16.13-1.41-16.9-2.64,0-.2.06-.25.11-.3.73-.6,3.6-.36,5.82.25l1.13.31.26-1.13c.61-2.59.98-4.26,1.22-5.35l.56-2.25c-.7-.37-1.52-.84-2.18-1.27-6-4.04-9.95-10.88-9.95-18.64,0-12.39,10.1-22.46,22.51-22.46s22.51,10.07,22.51,22.46c0,7.99-4.2,15.02-10.52,19-.3.19-.61.37-.92.55l.47,1.9c.02.11.05.23.08.37.23,1.07.63,2.82,1.31,5.7l.26,1.13,1.13-.31c2.22-.6,5.09-.85,5.82-.25.05.04.11.09.11.3-.77,1.22-8.32,2.38-16.9,2.64l.71-6.66c-.75.13-1.52.21-2.29.27l-.93,8.7,1.28-.02c9.16-.16,20.13-1.12,20.38-4.71.06-.91-.26-1.69-.92-2.24-1.58-1.29-4.87-.84-6.7-.46h-.02ZM3.28,33.89c-.89-2.05-.64-4.5.6-6.4,1.68-2.58,4.74-3.66,7.23-5.27,2.48-1.6,4.73-4.23,7.77-4.76,2.33-.4,4.98.48,6.3,2.49-9.62.15-17.93,5.8-21.89,13.93Z"/><path class="cls-7" d="m52.27,5.97c-.02,12.56-.05,25.12-.08,37.68,0,3.61-.01,7.21-.02,10.82,0,.52,1.03,2.22,1.64,2.16,11.75-1.14,23.52-1.99,35.3-2.58.43-.02-.17-.91-.26-1.04-.19-.29-.8-1.25-1.25-1.23-11.78.58-23.55,1.44-35.3,2.58l1.64,2.16c.02-12.56.05-25.12.08-37.68,0-3.61.01-7.21.02-10.82,0-.54-.52-1.14-.86-1.52-.07-.08-.94-.91-.94-.52h0Z"/><path class="cls-7" d="m75.24.97c-7.03,1.06-14.07,2.13-21.1,3.18-.44.07-1.34.46-1.22,1.03.14.61,1.13.5,1.54.44,11.84-1.79,23.69-3.58,35.53-5.36"/><path class="cls-7" d="m92.85.33c.37.43.32,1.12.32,1.64-.02.87-.09,1.75-.13,2.61-.14,2.86-.29,5.72-.43,8.58-.3,5.97-.6,11.95-.9,17.92-.34,6.72-.68,13.44-1.01,20.16-.06,1.18,2.69.77,2.74-.18.63-12.57,1.26-25.14,1.89-37.7.16-3.11.32-6.22.47-9.33.06-1.22.41-2.84-.02-4.03"/><path class="cls-7" d="m86.2,45.75c-.32-.56-1.17-.93-1.81-.83-8.11,1.26-16.21,2.52-24.31,3.78-.83-12.34-.98-24.71-.42-37.06.05-1.16-2.6-2.03-2.66-.7-.59,12.9-.41,25.82.53,38.69.06.88,1.16,1.47,1.97,1.34,8.72-1.36,17.45-2.72,26.17-4.07.62-.1.84-.64.53-1.16h0Z"/><path class="cls-7" d="m87.44,6.59c-.06-.72-1.57-.75-2.05-.7-8.33.67-16.61,1.89-24.78,3.62-.55.12-.51.49-.09.75.54.33,1.37.36,1.97.23,7.33-1.56,14.75-2.67,22.22-3.35.95,11.38,1.03,22.82.23,34.21-.05.78,2.75,1.07,2.79.33.82-11.68.72-23.42-.29-35.09h0Z"/><path class="cls-7" d="m69.63,22.79c-3.42.76-6.12,3.8-6.55,7.27-.46,3.74,1.95,6.88,5.07,8.65,3.12,1.77,7.06,2.34,10.22.01,2.93-2.16,4.31-6.01,3.02-9.47-1.54-4.14-6.91-7.04-11.2-5.71-.4.12.62.76.69.8.38.22,1.17.72,1.65.58,1.34-.42,3.21-.6,4.37.35,1.16.95,1.97,2.48,2.3,3.98.65,2.93-.64,5.95-2.9,7.84-1.92,1.62-5.19,2.64-7.51,1.2-2.5-1.56-3.69-4.82-3.11-7.63.65-3.13,3.11-5.8,6.27-6.5.41-.09-.63-.76-.69-.8-.41-.24-1.13-.69-1.65-.58h0Z"/><path class="cls-7" d="m69.09,18.36l1.85,3.66c.32.62,1.25.76,1.84.49.59-.26,1.07-.88.74-1.54l-1.85-3.66c-.32-.62-1.25-.76-1.84-.49-.59.26-1.07.88-.74,1.54Z"/><path class="cls-7" d="m74.09,22.43h2.3c.2,0,.26-.2.26-.37,0-.27-.16-.61-.29-.83-.19-.31-.41-.61-.68-.84-.19-.15-.41-.32-.65-.32h-2.3c-.2,0-.26.2-.26.37,0,.27.16.61.29.83.19.31.41.61.68.84.19.15.41.32.65.32Z"/><path class="cls-7" d="m49.94,56.61s-.05.06-.07.09c-.05.08-.12.2-.15.31-.02.11-.06.25-.06.37s0,.25.01.37c.02.12.07.29.09.38.04.16.1.31.18.45.08.14.15.28.25.4.19.23.29.35.54.52.11.07.23.13.35.16.12.05.23.05.35.01.11-.01.21-.07.28-.17.08-.1.13-.22.14-.35.04-.15.04-.29,0-.45l-.08-.34c-.08-.24-.19-.46-.34-.67l-.23-.26c-.14-.14-.3-.25-.49-.31-.01,0-.04-.01-.05-.02l.25.12s-.05-.02-.07-.04l.24.19s-.04-.03-.05-.04l.23.26s-.03-.04-.04-.05l.2.32s-.02-.04-.03-.06l.14.34s-.02-.05-.02-.07l.08.34s0-.05-.01-.08v.31s.01-.07.01-.1l-.04.27s.01-.07.04-.1l-.11.22s.04-.07.08-.1c.08-.1.13-.22.14-.35.04-.15.04-.29,0-.45-.02-.18-.08-.35-.15-.51-.06-.18-.15-.34-.26-.49l-.23-.26c-.14-.14-.3-.25-.49-.31l-.24-.04c-.16,0-.29.07-.39.19h.01Z"/><path class="cls-7" d="m97.51,54.47v.05c0,.09-.02.18-.02.27v.04c.01.1.04.19.06.29,0,.01,0,.03.01.04.12.3.18.37.38.64,0,.01.01.02.03.03h.01c.08.1.19.2.28.28h.01s.02.02.04.04c.1.07.22.15.32.22,0,0,.02,0,.02.02.01,0,.02.01.04.02.1.05.22.1.33.15,0,0,.01,0,.02,0,.06.02.14.04.2.04.06,0,.13.04.2.05h.41c.08-.02.17-.04.25-.07,0,0,.01,0,.02,0,.01,0,.02,0,.04-.01,0,0,.02,0,.02-.01.07-.04.14-.1.2-.16.02-.02.04-.05.06-.07.04-.07.08-.15.11-.22,0,0,0-.01,0-.02,0-.01,0-.03.01-.04v-.02c0-.08.02-.18.02-.27v-.04c-.01-.12-.04-.25-.07-.36,0,0,0-.01,0-.02-.04-.1-.09-.21-.14-.3,0-.02-.01-.03-.02-.04-.07-.1-.15-.21-.23-.31,0-.01-.02-.02-.03-.04h0c-.09-.09-.19-.19-.28-.28,0,0-.01-.01-.02-.01-.11-.09-.23-.16-.35-.24-.06-.04-.14-.07-.2-.1-.05-.02-.14-.07-.2-.09-.29-.08-.38-.1-.68-.09-.01,0-.04,0-.05,0h0c-.08.02-.17.05-.25.07,0,0-.02,0-.03,0-.12.05-.2.13-.24.25-.07.1-.1.22-.07.36,0,.15.05.29.13.42.06.16.15.3.27.43l.27.26c.19.16.4.28.62.36l.31.07c.18.03.36,0,.53-.07.01,0,.02,0,.04-.01l-.24.07s.05,0,.08,0h-.29.06l-.31-.07s.04.01.06.02l-.32-.14s.03.01.05.03l-.31-.21s.04.03.05.04l-.27-.26s.04.04.05.06l-.2-.28s.03.05.04.07l-.14-.28s.02.05.03.08l-.06-.28s0,.06,0,.09l.02-.25s-.02.07-.02.1l.11-.21s-.04.06-.07.09l.19-.15s-.05.03-.08.05l.24-.07s-.06.02-.09.02h.29s-.06,0-.08,0l.31.07s-.05-.01-.08-.03l.32.14s-.05-.02-.07-.04l.31.21s-.04-.03-.05-.04l.27.26s-.03-.03-.04-.05l.2.28s-.02-.03-.03-.05l.14.28s-.01-.04-.02-.06l.06.28v-.07l-.02.25v-.04c.04-.13.04-.26,0-.39-.02-.15-.08-.29-.17-.43-.09-.16-.2-.29-.34-.41-.13-.13-.28-.25-.44-.34l-.32-.14c-.19-.07-.39-.1-.59-.07l-.24.07c-.15.07-.25.19-.29.36l-.05-.02Z"/><path class="cls-7" d="m66.22,57.34c-.35.17-.34.16-.64.4h0s-.2.23-.21.25c-.06.08-.11.17-.14.27-.01.04-.03.14-.03.13,0,0-.02.1-.02.13h0c0,.09.02.18.05.26v.02s0,.01.02.02c.01.02.1.16.15.22.01.02.03.03.04.04.08.06.16.11.24.16,0,0,.01,0,.02.01.09.05.25.08.3.1h.02c.23.04.48.04.71-.01.02,0,.34-.1.36-.11.06-.02.19-.1.17-.09-.02.01.12-.05.17-.09,0,0,.27-.2.28-.21.08-.07.15-.16.22-.25h0s.11-.21.07-.13c0,0,.05-.08.07-.13h0c0-.06.01-.1.02-.14,0-.05.02-.09.02-.13h0c0-.14-.03-.25-.11-.35-.06-.12-.16-.2-.29-.25-.14-.07-.28-.1-.44-.1-.17-.02-.34-.01-.5.03l-.36.11c-.23.09-.43.22-.62.38l-.21.24c-.11.15-.17.32-.19.51h0s.05-.24.05-.24c0,0,0,.02,0,.03l.14-.25s0,0,0,.02l.21-.24h0s.28-.2.28-.2h0l.34-.17h0l.36-.11h-.01l.35-.04h-.02l.32.03s-.02,0-.04,0l.27.09s-.04-.02-.07-.03l.21.15s-.04-.04-.07-.07l.14.21s-.01-.03-.02-.04l.04.25v-.03l-.05.25h0s-.14.24-.14.24c0,0,0,0,0-.01l-.21.24s0,0,.02-.02l-.28.21s.01,0,.02-.01l-.34.17c.17-.07.33-.16.47-.28.14-.09.26-.2.35-.34.09-.11.14-.24.16-.38.04-.12.04-.25-.02-.37l-.14-.21c-.14-.13-.3-.21-.49-.24l-.32-.03c-.25,0-.48.06-.71.15h.05Z"/><path class="cls-7" d="m79.49,57.49v.46c-.03.13-.01.26.05.37.03.13.11.22.23.29.12.07.25.12.38.12.15.03.31.02.46-.02l.33-.11c.23-.1.44-.24.62-.42l.23-.26c.12-.16.2-.35.23-.55v-.46c.03-.13.01-.26-.05-.37-.03-.13-.1-.22-.23-.29-.12-.07-.25-.12-.38-.12-.15-.03-.31-.02-.46.02l-.33.11c-.23.1-.44.24-.62.42l-.23.26c-.12.16-.2.35-.23.55Z"/><path class="cls-7" d="m99.96,59.25c-.03-.18-.64-.16-1.28-.07-.24-.04-.46,0-.63.13-.5.13-.89.29-.86.44.04.2.07.41.11.61-.75,1.11-1.52,2.22-2.41,3.21-1.14,1.26-2.59,1.79-4.27,1.51-2.78-.46-4.92-2.69-7.19-4.32-.14-.2-.32-.4-.53-.55,0-.26-.02-.52-.03-.78,0-.07-.54.19-.92.39h-.06c-.45-.15-.99-.13-1.18.37-.05.13-.05.27-.03.41-.12.1-.2.22-.2.31,0,.19.01.4.02.59-1.46,2.2-3.45,4.34-5.87,5.24-3.27,1.23-5.08-1.88-6.27-4.38-.26-.55-.77-1.07-1.39-1.2-.19-.1-1.25-.6-1.25-.58,0,.1.01.2.02.31-.51-.1-.93.04-.87.62.34,3.2-2.28,6.28-5.54,6.24-1.47-.02-2.51-.64-3.51-1.67-1.04-1.08-2-2.14-3.24-2.93-.02-.28-.04-.55-.05-.83-.07-1-2.69-.1-2.63.73.27,4.19.54,8.37.8,12.56.07,1,2.61.1,2.63-.73.01-.6.03-1.2.05-1.8,0-.16-.07-.26-.19-.33-.17-2.54-.32-5.08-.49-7.62.94.82,1.7,1.94,2.65,2.7,1.62,1.31,3.64,2.03,5.73,1.9,2.14-.13,3.93-1.24,5.04-2.83l.38,5.71c.02.31.88.73,1.11.88.1.06,1.28.64,1.28.6,0-.66-.02-1.31-.03-1.97,0-.07-.05-.13-.11-.2-.13-1.95-.26-3.91-.38-5.86,1.57,1.97,3.63,3.43,6.38,3.18,1.99-.19,3.69-1.44,5.13-2.73.27-.25.52-.5.77-.76.09,2.49.19,4.98.28,7.47,0,.1,1.21-.53,1.29-.58.23-.14,1.1-.56,1.1-.9v-1.3s-.02,0-.05,0c-.1-2.54-.19-5.09-.29-7.62.02-.02.03-.05.05-.07,2.7,1.88,5.08,4.25,8.52,4.69,1.8.22,3.52-.22,4.89-1.43.52-.46.98-.98,1.42-1.54.25,2.28.37,4.58.36,6.88-.03.04-.04.07-.04.11,0,.59,0,1.19.01,1.78,0,.24,2.75.03,2.77-.51.14-4.51-.19-9.01-1.01-13.45h0Z"/></g></g></svg>