<svg width="94" height="72" viewBox="0 0 94 72" fill="none" xmlns="http://www.w3.org/2000/svg">
<g clip-path="url(#clip0_60_76)">
<path d="M24.2547 40.9503C24.569 44.0545 25.2816 48.0922 28.8722 49.0394C32.4629 49.9866 36.5286 48.1129 37.9956 44.8842C38.7361 43.2456 38.771 41.3236 38.289 39.609C38.1213 39.0006 36.801 39.3048 36.4098 39.4223C36.0186 39.5398 34.7612 39.9685 34.9359 40.5838C35.3969 42.2293 35.362 43.9785 34.6215 45.541C34.3141 46.1978 33.86 46.7509 33.3012 47.1934C33.1615 47.2971 33.1335 47.3109 33.2313 47.2487C33.1475 47.304 33.0567 47.3524 32.9729 47.4008C32.8052 47.4907 32.7912 47.4976 32.9449 47.4215C32.8541 47.463 32.7563 47.5045 32.6655 47.5391C33.1685 47.3386 32.1555 47.6428 32.6864 47.5391C32.5886 47.5598 32.4908 47.5806 32.393 47.5944C32.5397 47.5806 32.5537 47.5806 32.4419 47.5875C32.0857 47.6151 32.0577 47.622 31.7084 47.5529C31.3592 47.4838 30.9819 47.3386 30.6606 47.1519C29.99 46.7509 29.4171 46.1563 29.012 45.4995C27.999 43.8402 27.7964 41.8629 27.6008 39.9754C27.517 39.125 24.1429 39.8579 24.2547 40.9572V40.9503Z" fill="#231F20"/>
<path d="M20.7195 55.4622C23.2274 54.9921 25.4558 53.6231 27.0067 51.6251C27.321 51.2241 25.0577 50.0833 24.5477 50.7401C23.1366 52.5515 21.0339 53.8029 18.7635 54.2246C18.1907 54.3284 18.7356 54.8745 18.9731 55.0197C19.4621 55.317 20.1327 55.5728 20.7195 55.4622Z" fill="#231F20"/>
<path d="M18.121 41.2545C17.9393 43.0935 17.7717 45.1054 16.7378 46.7094C16.5352 47.0275 16.3047 47.3317 16.0252 47.5944C16.0252 47.5944 15.7109 47.864 15.8227 47.7741C15.7388 47.8364 15.648 47.8917 15.5572 47.947C15.6899 47.8709 15.669 47.8779 15.5083 47.9608C15.7039 47.8779 15.7109 47.8709 15.5153 47.9401C15.7179 47.8709 15.7249 47.864 15.5293 47.9193C15.6969 47.8848 15.6899 47.8779 15.5013 47.9124C15.6201 47.9124 15.5921 47.9124 15.4245 47.9124C15.0892 47.9193 14.7888 47.8917 14.4604 47.8156C10.9676 47.0344 9.84287 43.0866 10.7091 40.0238C10.8907 39.3808 9.54248 39.6297 9.27702 39.6989C8.70419 39.8579 7.6214 40.2174 7.43279 40.8811C6.60847 43.8195 7.39786 47.4077 10.3109 48.9149C13.5383 50.588 17.9323 49.1984 19.8325 46.184C20.9362 44.4279 21.1877 42.4021 21.3903 40.3833C21.4532 39.7334 20.3075 39.9616 19.9582 40.0584C19.5251 40.1759 19.099 40.3488 18.7217 40.5907C18.5122 40.729 18.1419 40.971 18.114 41.2406L18.121 41.2545Z" fill="#231F20"/>
<path d="M37.6113 65.1415C37.1502 63.178 36.7031 61.2214 36.4935 60.2466C42.7178 56.1605 46.8394 49.1638 46.8394 41.2268C46.8394 29.3282 37.5833 19.5314 25.8193 18.5081C25.7635 18.1763 25.6377 17.8582 25.519 17.6439C24.2755 15.4108 22.1379 13.6961 19.623 13.0808C16.9894 12.4378 14.5234 13.2398 12.3648 14.747C11.2471 15.5283 10.2202 16.4133 9.0955 17.1876C8.43884 17.637 8.19434 17.9896 7.49577 18.3837C7.94286 18.2177 7.10457 17.72 6.85308 17.554C6.02178 16.994 5.67948 16.2404 4.72942 15.9293C4.60368 15.8878 3.15065 16.3856 2.99696 16.434C2.85724 16.4824 2.95504 16.5999 3.0249 16.6691C3.20653 16.8488 3.45103 16.994 3.67458 17.1185C3.96798 17.2775 4.27535 17.4365 4.58971 17.5402C4.65258 17.5609 4.70846 17.5817 4.77133 17.6024C4.77133 17.6024 4.77133 17.6024 4.77832 17.6024C4.79928 17.6163 4.81325 17.6232 4.83421 17.637C4.84119 17.637 4.85516 17.6508 4.86215 17.6577C4.95296 17.7269 5.04378 17.7891 5.13459 17.8651C5.14856 17.8721 5.15555 17.8859 5.16952 17.8928C5.21144 17.9343 5.26034 17.9758 5.30225 18.0103C5.50484 18.197 5.69345 18.3975 5.86809 18.6118C5.95192 18.7086 6.07767 18.8054 6.21738 18.8884C6.02178 18.999 5.8192 19.1096 5.62359 19.2202C3.32529 20.5408 1.3134 22.207 0.461138 24.7927C-0.453992 27.5652 0.0070658 30.7593 1.6068 33.193C1.71158 33.3589 1.85828 33.5456 2.02594 33.7253C1.19464 36.076 0.740568 38.5995 0.740568 41.2337C0.740568 49.4265 5.12761 56.6168 11.6942 60.6406C11.4637 61.6985 11.0655 63.42 10.6673 65.1415C8.96277 64.7889 5.89604 64.3741 4.42903 65.5633C3.8073 66.068 3.50692 66.7801 3.56979 67.6305C3.80032 70.9491 14.0135 71.8271 22.536 71.9792L23.7236 72L22.8574 64.0215C23.1648 64.0353 23.4721 64.0422 23.7865 64.0422C24.3384 64.0422 24.8763 64.0146 25.4212 63.98C26.1337 63.9316 26.8602 63.8486 27.5518 63.7311L27.7544 61.5878C27.1257 61.6985 26.2944 61.8229 25.6517 61.8782C25.0369 61.9335 24.4222 61.9612 23.7935 61.9612C23.4093 61.9612 23.0181 61.9473 22.6408 61.9266C21.9143 61.8851 21.2018 61.8091 20.5032 61.6985L20.6359 62.8669L20.7407 63.8279L21.3974 69.8636C13.4197 69.6355 6.38504 68.5638 5.67249 67.43C5.67249 67.2433 5.72838 67.1949 5.77029 67.1534C6.44791 66.6003 9.11646 66.8216 11.1842 67.3816L12.2321 67.665L12.4766 66.6211C13.0424 64.2289 13.3917 62.6871 13.6153 61.6846L14.1322 59.6036C13.4825 59.2648 12.7141 58.8292 12.1064 58.4282C6.52475 54.7017 2.84327 48.3825 2.84327 41.2268C2.84327 29.7914 12.2391 20.4924 23.7935 20.4924C35.3479 20.4924 44.7437 29.7914 44.7437 41.2268C44.7437 48.6038 40.8317 55.0889 34.9497 58.767C34.6703 58.9399 34.3839 59.1127 34.0905 59.2717L34.5236 61.0278C34.5445 61.1315 34.5725 61.2421 34.6004 61.3666C34.817 62.3553 35.1872 63.9662 35.8159 66.628L36.0604 67.6719L37.1083 67.3885C39.1761 66.8354 41.8446 66.6072 42.5222 67.1603C42.5711 67.2018 42.627 67.2433 42.62 67.4369C41.9075 68.5638 34.8729 69.6355 26.8951 69.8705L27.5588 63.7242C26.8602 63.8417 26.1477 63.9178 25.4281 63.9731L24.5619 72L25.7495 71.9792C34.2721 71.8271 44.4852 70.9491 44.7158 67.6305C44.7716 66.787 44.4782 66.068 43.8565 65.5633C42.3895 64.3741 39.3228 64.7889 37.6182 65.1415H37.6113ZM4.89009 17.6716C5.03679 17.7822 4.95995 17.72 4.89009 17.6716ZM3.05284 31.2848C2.22154 29.3904 2.45906 27.1296 3.6117 25.3735C5.17651 22.9952 8.02669 21.9996 10.339 20.5131C12.6443 19.0336 14.74 16.6068 17.5692 16.1229C19.7418 15.7564 22.2077 16.5654 23.4302 18.4252C14.4745 18.5634 6.74131 23.7764 3.05284 31.2848Z" fill="#231F20"/>
<path d="M48.6484 5.51027C48.6275 17.1047 48.5995 28.6991 48.5786 40.2935C48.5786 43.6259 48.5646 46.9514 48.5576 50.2839C48.5576 50.7678 49.5147 52.3303 50.0875 52.275C61.0202 51.2241 71.9738 50.436 82.9414 49.8967C83.3396 49.8759 82.7877 49.0601 82.7039 48.9357C82.5292 48.666 81.9634 47.7811 81.5442 47.8018C70.5766 48.3411 59.623 49.1293 48.6903 50.1801L50.2202 52.1713C50.2412 40.5769 50.2691 28.9825 50.2901 17.3881C50.2901 14.0557 50.304 10.7302 50.311 7.39773C50.311 6.89994 49.829 6.34684 49.5147 5.99424C49.4518 5.91819 48.6414 5.15076 48.6414 5.51027H48.6484Z" fill="#231F20"/>
<path d="M70.0248 0.891838C63.4792 1.87359 56.9336 2.85535 50.3879 3.83019C49.9828 3.89241 49.1445 4.25884 49.2563 4.78429C49.382 5.34431 50.3041 5.24751 50.6883 5.1922C61.7118 3.53981 72.7353 1.88742 83.7588 0.241943" fill="#231F20"/>
<path d="M86.7069 1.81828C86.686 2.62027 86.6231 3.42919 86.5882 4.23118C86.4554 6.87224 86.3227 9.5133 86.19 12.1544C85.9105 17.6646 85.6311 23.1818 85.3517 28.6921C85.0373 34.8937 84.723 41.0954 84.4086 47.2971C84.3527 48.3894 86.9095 48.0092 86.9584 47.1311C87.5452 35.5298 88.132 23.9285 88.7188 12.3272C88.8655 9.45799 89.0122 6.58186 89.1519 3.71265C89.2078 2.58571 89.5292 1.09233 89.131 -0.00695801" fill="#231F20"/>
<path d="M80.2242 42.2293C79.9238 41.7108 79.1345 41.372 78.5407 41.4619C70.9961 42.6234 63.4585 43.7919 55.9139 44.9534C55.1385 33.5664 54.9987 22.1448 55.5227 10.744C55.5716 9.6724 53.0986 8.8704 53.0427 10.1011C52.4979 22.0066 52.6585 33.9328 53.5317 45.8176C53.5876 46.6265 54.6075 47.1727 55.362 47.0552C63.4794 45.8038 71.6038 44.5455 79.7213 43.2941C80.3011 43.2042 80.5037 42.7064 80.2172 42.2224L80.2242 42.2293Z" fill="#231F20"/>
<path d="M81.3765 6.08416C81.3207 5.42044 79.9165 5.39278 79.4694 5.43426C71.7153 6.0565 64.01 7.17653 56.4026 8.77361C55.8926 8.88423 55.9275 9.22992 56.3187 9.46499C56.8217 9.7692 57.5971 9.79685 58.156 9.67932C64.981 8.24125 71.8829 7.21802 78.8337 6.58886C79.7139 17.0909 79.7908 27.6551 79.0433 38.171C78.9944 38.89 81.6001 39.1596 81.642 38.4752C82.4035 27.6897 82.3126 16.8558 81.3696 6.08416H81.3765Z" fill="#231F20"/>
<path d="M64.8067 21.0386C61.6212 21.7438 59.1134 24.5508 58.7152 27.7519C58.2891 31.2019 60.5315 34.1056 63.4375 35.7373C66.3436 37.3689 70.0111 37.8944 72.9521 35.7511C75.6835 33.76 76.9619 30.2063 75.7674 27.0121C74.3353 23.1888 69.3335 20.5132 65.3446 21.7438C64.9744 21.8544 65.9175 22.4421 65.9873 22.4836C66.3366 22.691 67.0771 23.1473 67.5242 23.016C68.7746 22.6288 70.5071 22.4628 71.5899 23.3409C72.6727 24.2189 73.4271 25.6294 73.7345 27.019C74.3353 29.7223 73.1407 32.5086 71.038 34.2577C69.2497 35.7511 66.2039 36.6914 64.0523 35.3639C61.726 33.9259 60.6153 30.9184 61.1602 28.3188C61.768 25.4289 64.0593 22.9676 66.9933 22.3177C67.3705 22.2347 66.4065 21.6125 66.3506 21.5779C65.9664 21.3566 65.2957 20.9418 64.8137 21.0455L64.8067 21.0386Z" fill="#231F20"/>
<path d="M64.3034 16.9456L66.0219 20.3195C66.3153 20.8934 67.1815 21.0178 67.7334 20.7758C68.2853 20.5338 68.7324 19.9669 68.425 19.3585L66.7065 15.9846C66.4131 15.4107 65.5469 15.2863 64.995 15.5283C64.4431 15.7703 63.996 16.3372 64.3034 16.9456Z" fill="#231F20"/>
<path d="M68.9563 20.7068H71.094C71.2826 20.7068 71.3385 20.5201 71.3385 20.368C71.3385 20.1191 71.1918 19.808 71.066 19.6006C70.8914 19.3171 70.6888 19.0336 70.4303 18.8262C70.2557 18.6879 70.0531 18.5289 69.8226 18.5289H67.6849C67.4963 18.5289 67.4404 18.7156 67.4404 18.8677C67.4404 19.1166 67.5871 19.4277 67.7129 19.6351C67.8875 19.9186 68.0901 20.2021 68.3486 20.4095C68.5232 20.5478 68.7258 20.7068 68.9563 20.7068Z" fill="#231F20"/>
<path d="M46.4762 52.2543C46.4762 52.2543 46.4273 52.3096 46.4134 52.3372C46.3715 52.4133 46.3016 52.5239 46.2737 52.6276C46.2527 52.7313 46.2178 52.8558 46.2178 52.9664C46.2178 53.077 46.2178 53.1945 46.2317 53.3052C46.2457 53.4158 46.2946 53.5748 46.3156 53.6578C46.3505 53.8029 46.4134 53.9412 46.4832 54.0726C46.5531 54.2039 46.6229 54.3353 46.7138 54.4459C46.8884 54.6603 46.9862 54.7709 47.2167 54.9299C47.3145 54.999 47.4263 55.0474 47.5381 55.082C47.6498 55.1304 47.7546 55.1304 47.8594 55.0958C47.9642 55.082 48.055 55.0336 48.1179 54.9368C48.1947 54.84 48.2366 54.7294 48.2436 54.6119C48.2786 54.4736 48.2786 54.3422 48.2506 54.197L48.1808 53.8859C48.1109 53.6647 48.0061 53.4573 47.8664 53.2706L47.6568 53.0286C47.5241 52.8972 47.3774 52.8005 47.2028 52.7382C47.1888 52.7382 47.1678 52.7244 47.1539 52.7175L47.3844 52.8281C47.3844 52.8281 47.3425 52.8074 47.3215 52.7935L47.5451 52.9733C47.5451 52.9733 47.5101 52.9456 47.4962 52.9318L47.7057 53.1738C47.7057 53.1738 47.6778 53.1392 47.6708 53.1254L47.8524 53.4227C47.8524 53.4227 47.8315 53.3881 47.8245 53.3674L47.9572 53.6854C47.9572 53.6854 47.9432 53.637 47.9363 53.6163L48.0061 53.9274C48.0061 53.9274 47.9991 53.879 47.9921 53.8513L48.0061 54.1417C48.0061 54.1417 48.0061 54.0795 48.0061 54.0518L47.9642 54.3007C47.9642 54.2662 47.9782 54.2316 47.9991 54.2039L47.8943 54.4044C47.8943 54.4044 47.9363 54.3422 47.9642 54.3146C48.041 54.2178 48.083 54.1072 48.0899 53.9896C48.1249 53.8513 48.1249 53.72 48.0969 53.5748C48.076 53.4089 48.0271 53.2498 47.9572 53.1047C47.9013 52.9387 47.8175 52.7866 47.7127 52.6483L47.5031 52.4064C47.3704 52.275 47.2237 52.1782 47.0491 52.116L46.8255 52.0814C46.6788 52.0814 46.5531 52.1436 46.4623 52.2612L46.4762 52.2543Z" fill="#231F20"/>
<path d="M90.7514 50.2838C90.7514 50.2838 90.7514 50.3115 90.7514 50.3253C90.7444 50.4083 90.7305 50.4913 90.7305 50.5742C90.7305 50.5811 90.7305 50.5881 90.7305 50.595C90.7305 50.595 90.7305 50.6088 90.7305 50.6157C90.7444 50.7056 90.7654 50.7955 90.7864 50.8853C90.7864 50.8992 90.7863 50.913 90.8003 50.9268C90.9121 51.2034 90.968 51.2725 91.1496 51.5145C91.1566 51.5283 91.1636 51.5352 91.1776 51.5422C91.1776 51.5422 91.1845 51.5491 91.1915 51.556C91.2684 51.632 91.3662 51.7288 91.45 51.798C91.45 51.798 91.45 51.798 91.464 51.8049C91.4709 51.8118 91.4849 51.8187 91.4989 51.8325C91.5897 51.9017 91.7015 51.9708 91.7993 52.0399C91.7993 52.0399 91.8133 52.0469 91.8202 52.0538C91.8342 52.0538 91.8412 52.0676 91.8552 52.0745C91.953 52.1229 92.0577 52.1713 92.1625 52.2128C92.1695 52.2128 92.1765 52.2128 92.1835 52.2197C92.2394 52.2404 92.3092 52.2543 92.3651 52.2612C92.421 52.2681 92.4839 52.2958 92.5468 52.3027C92.5607 52.3027 92.5747 52.3027 92.5887 52.3027C92.6795 52.3027 92.7773 52.3027 92.8681 52.3027C92.8751 52.3027 92.8821 52.3027 92.8891 52.3027C92.903 52.3027 92.917 52.3027 92.924 52.3027C93.0008 52.2819 93.0847 52.2612 93.1615 52.2335C93.1615 52.2335 93.1755 52.2335 93.1825 52.2266C93.1964 52.2266 93.2034 52.2197 93.2174 52.2128C93.2174 52.2128 93.2314 52.2059 93.2383 52.199C93.3012 52.1575 93.3641 52.1022 93.427 52.0538C93.4479 52.033 93.4689 52.0123 93.4828 51.9846C93.5178 51.9224 93.5597 51.8464 93.5876 51.7772C93.5876 51.7772 93.5876 51.7634 93.5946 51.7565C93.5946 51.7427 93.6016 51.7288 93.6086 51.715C93.6086 51.715 93.6086 51.7012 93.6086 51.6943C93.6156 51.6182 93.6295 51.5283 93.6295 51.4454C93.6295 51.4315 93.6295 51.4177 93.6295 51.4039C93.6156 51.2933 93.5946 51.1757 93.5597 51.072C93.5597 51.072 93.5597 51.0582 93.5527 51.0513C93.5108 50.9614 93.4689 50.8577 93.42 50.7747C93.42 50.7609 93.406 50.7471 93.399 50.7332C93.3361 50.6364 93.2593 50.5397 93.1894 50.4429C93.1825 50.429 93.1685 50.4221 93.1615 50.4083C93.1615 50.4083 93.1615 50.4083 93.1545 50.4014C93.0707 50.3253 92.9799 50.2285 92.896 50.1525C92.896 50.1525 92.8821 50.1387 92.8751 50.1387C92.7773 50.0557 92.6655 49.9866 92.5537 49.9174C92.4979 49.8828 92.428 49.8552 92.3651 49.8275C92.3162 49.8068 92.2394 49.7653 92.1765 49.7446C91.9041 49.6685 91.8272 49.6547 91.5478 49.6616C91.5338 49.6616 91.5129 49.6616 91.4989 49.6685C91.4989 49.6685 91.4989 49.6685 91.4919 49.6685C91.4221 49.6893 91.3312 49.71 91.2614 49.7377C91.2544 49.7377 91.2474 49.7377 91.2334 49.7446C91.1217 49.793 91.0448 49.869 91.0099 49.9796C90.947 50.0764 90.9191 50.1871 90.94 50.3115C90.947 50.4498 90.9889 50.5811 91.0588 50.6987C91.1147 50.8439 91.1985 50.9752 91.3103 51.0928L91.5618 51.3347C91.7364 51.4799 91.932 51.5906 92.1416 51.6666L92.428 51.7357C92.5957 51.7634 92.7633 51.7357 92.917 51.6735C92.931 51.6735 92.938 51.6666 92.9519 51.6597L92.7284 51.7288C92.7284 51.7288 92.7773 51.7219 92.7982 51.7219H92.5328C92.5328 51.7219 92.5677 51.7219 92.5887 51.7219L92.3023 51.6528C92.3023 51.6528 92.3372 51.6666 92.3581 51.6735L92.0647 51.5422C92.0647 51.5422 92.0927 51.556 92.1136 51.5698L91.8272 51.3762C91.8272 51.3762 91.8622 51.4039 91.8761 51.4177L91.6246 51.1757C91.6246 51.1757 91.6596 51.2103 91.6735 51.231L91.4849 50.9752C91.4849 50.9752 91.5129 51.0167 91.5198 51.0374L91.3941 50.7747C91.3941 50.7747 91.4151 50.8231 91.422 50.8508L91.3662 50.595C91.3662 50.595 91.3731 50.6503 91.3662 50.6779L91.3871 50.4429C91.3871 50.4429 91.3731 50.5051 91.3662 50.5327L91.464 50.3392C91.464 50.3392 91.4221 50.3945 91.3941 50.4221L91.5688 50.2838C91.5688 50.2838 91.5199 50.3115 91.4919 50.3253L91.7154 50.2562C91.7154 50.2562 91.6596 50.27 91.6316 50.27H91.8971C91.8971 50.27 91.8412 50.27 91.8202 50.2631L92.1067 50.3322C92.1067 50.3322 92.0578 50.3184 92.0368 50.3046L92.3302 50.4359C92.3302 50.4359 92.2883 50.4152 92.2673 50.4014L92.5537 50.595C92.5537 50.595 92.5188 50.5673 92.5048 50.5535L92.7563 50.7955C92.7563 50.7955 92.7284 50.7678 92.7144 50.7471L92.903 51.0029C92.903 51.0029 92.8821 50.9752 92.8751 50.9545L93.0008 51.2172C93.0008 51.2172 92.9869 51.1826 92.9799 51.1619L93.0358 51.4177C93.0358 51.4177 93.0358 51.3762 93.0358 51.3555L93.0148 51.5905C93.0148 51.5905 93.0148 51.5629 93.0148 51.5491C93.0497 51.4246 93.0497 51.3071 93.0148 51.1895C92.9938 51.0513 92.9449 50.9199 92.8611 50.7955C92.7773 50.6503 92.6725 50.5258 92.5468 50.4152C92.428 50.2908 92.2883 50.1801 92.1346 50.0972L91.8412 49.9658C91.6666 49.9036 91.4779 49.8759 91.2893 49.8967L91.0658 49.9658C90.9261 50.0349 90.8353 50.1456 90.7933 50.2977L90.7514 50.2838Z" fill="#231F20"/>
<path d="M61.6279 52.9318C61.2996 53.0908 61.3135 53.077 61.0341 53.2982C61.0341 53.2982 61.0341 53.2982 61.0271 53.3052C61.0201 53.319 60.8385 53.5126 60.8315 53.5264C60.7756 53.6024 60.7267 53.6854 60.6988 53.7753C60.6848 53.8099 60.6709 53.9067 60.6709 53.8997C60.6709 53.8997 60.6499 53.9896 60.6499 54.0242C60.6499 54.0242 60.6499 54.0242 60.6499 54.0311C60.6569 54.1072 60.6709 54.1901 60.6918 54.2662C60.6918 54.2731 60.6918 54.28 60.6918 54.2869C60.6918 54.2938 60.6988 54.3007 60.7058 54.3077C60.7198 54.3284 60.7966 54.4598 60.8455 54.5151C60.8595 54.5289 60.8734 54.5427 60.8874 54.5496C60.9573 54.6049 61.0341 54.6533 61.111 54.7017C61.1179 54.7017 61.1249 54.7086 61.1319 54.7156C61.2157 54.757 61.3624 54.7916 61.4113 54.8054C61.4183 54.8054 61.4253 54.8054 61.4323 54.8054C61.6419 54.84 61.8794 54.84 62.089 54.7916C62.1099 54.7916 62.4033 54.7017 62.4243 54.6879C62.4802 54.6672 62.5989 54.598 62.5849 54.6049C62.564 54.6188 62.6967 54.5565 62.7456 54.522C62.7526 54.522 62.9971 54.3353 63.0041 54.3284C63.0809 54.2593 63.1438 54.1763 63.2067 54.1002C63.2067 54.1002 63.2067 54.1002 63.2137 54.0933C63.2346 54.0588 63.3185 53.9067 63.2765 53.9758C63.2765 53.9758 63.3185 53.8997 63.3394 53.8583C63.3394 53.8583 63.3394 53.8513 63.3394 53.8444C63.3464 53.8029 63.3534 53.7615 63.3604 53.7269C63.3673 53.6854 63.3743 53.6439 63.3813 53.6094C63.3813 53.6094 63.3813 53.6094 63.3813 53.6024C63.3883 53.478 63.3534 53.3743 63.2765 53.2844C63.2207 53.1738 63.1298 53.0977 63.0111 53.0493C62.8853 52.9871 62.7526 52.9526 62.6059 52.9526C62.4452 52.9318 62.2915 52.9387 62.1379 52.9802L61.8025 53.0839C61.593 53.1669 61.4044 53.2844 61.2297 53.4365L61.0341 53.6578C60.9293 53.796 60.8734 53.955 60.8595 54.1279C60.8595 54.1279 60.8595 54.1348 60.8595 54.1417L60.9084 53.9067C60.9084 53.9067 60.9084 53.9274 60.9014 53.9343L61.0271 53.6992C61.0271 53.6992 61.0271 53.7062 61.0201 53.7131L61.2157 53.4918C61.2157 53.4918 61.2157 53.4918 61.2088 53.4987L61.4672 53.3052C61.4672 53.3052 61.4672 53.3052 61.4602 53.3052L61.7746 53.1461C61.7746 53.1461 61.7746 53.1461 61.7676 53.1461L62.1029 53.0424C62.1029 53.0424 62.0959 53.0424 62.089 53.0424L62.4103 53.0079C62.4103 53.0079 62.3963 53.0079 62.3893 53.0079L62.6828 53.0355C62.6828 53.0355 62.6618 53.0355 62.6478 53.0286L62.8993 53.1116C62.8993 53.1116 62.8574 53.0908 62.8364 53.0839L63.032 53.2222C63.032 53.2222 62.9901 53.1876 62.9692 53.16L63.0949 53.3536C63.0949 53.3536 63.0809 53.3259 63.074 53.3121L63.1159 53.5402C63.1159 53.5402 63.1159 53.5195 63.1159 53.5126L63.067 53.7476V53.7338L62.9412 53.9689C62.9412 53.9689 62.9412 53.962 62.9482 53.955L62.7526 54.1763C62.7526 54.1763 62.7596 54.1694 62.7666 54.1625L62.5081 54.356C62.5081 54.356 62.5221 54.3491 62.5291 54.3422L62.2147 54.5012C62.3754 54.439 62.5221 54.356 62.6548 54.2454C62.7806 54.1625 62.8923 54.0588 62.9831 53.9274C63.067 53.8237 63.1159 53.7062 63.1298 53.5748C63.1648 53.4642 63.1648 53.3466 63.1089 53.2291L62.9831 53.0355C62.8574 52.918 62.7037 52.8419 62.5291 52.8143L62.2357 52.7866C62.0051 52.7866 61.7886 52.8419 61.579 52.9249L61.6279 52.9318Z" fill="#231F20"/>
<path d="M73.9791 53.0701V53.4919C73.9511 53.6163 73.9651 53.7339 74.028 53.8376C74.0559 53.9551 74.1258 54.045 74.2375 54.1072C74.3493 54.1763 74.4681 54.2178 74.5938 54.2178C74.7335 54.2455 74.8802 54.2386 75.0199 54.1971L75.3273 54.0934C75.5439 53.9966 75.7325 53.8721 75.9071 53.7062L76.1167 53.4642C76.2285 53.3121 76.3053 53.1393 76.3332 52.9526V52.5309C76.3612 52.4064 76.3472 52.2889 76.2843 52.1852C76.2564 52.0676 76.1865 51.9778 76.0748 51.9155C75.963 51.8464 75.8442 51.8049 75.7185 51.8049C75.5788 51.7773 75.4321 51.7842 75.2924 51.8257L74.985 51.9294C74.7684 52.0262 74.5798 52.1506 74.4052 52.3165L74.1956 52.5585C74.0838 52.7106 74.007 52.8835 73.9791 53.0701Z" fill="#231F20"/>
<path d="M93.0358 54.6948C93.0079 54.5289 92.442 54.5427 91.8483 54.6326C91.6247 54.5911 91.4221 54.6257 91.2615 54.7501C90.8004 54.8677 90.4371 55.0198 90.4581 55.158C90.493 55.3447 90.521 55.5383 90.5559 55.725C89.8573 56.7482 89.1378 57.7714 88.3135 58.684C87.2516 59.8456 85.9034 60.3364 84.3386 60.0737C81.7469 59.6451 79.7629 57.5917 77.6463 56.0845C77.5205 55.8978 77.3459 55.718 77.1573 55.5798C77.1503 55.3378 77.1363 55.1027 77.1293 54.8607C77.1293 54.7916 76.6264 55.0336 76.2701 55.2203C76.2491 55.2203 76.2282 55.2203 76.2142 55.2203C75.795 55.082 75.2921 55.0958 75.1174 55.559C75.0685 55.6835 75.0685 55.8079 75.0895 55.9393C74.9777 56.0361 74.9009 56.1398 74.9079 56.2297C74.9079 56.4094 74.9218 56.5961 74.9288 56.7759C73.5666 58.8085 71.7154 60.7789 69.466 61.6155C66.4272 62.7493 64.7366 59.8801 63.6329 57.5709C63.3884 57.0593 62.9203 56.5823 62.3405 56.4647C62.1659 56.3679 61.1739 55.9116 61.1739 55.9255C61.1739 56.0222 61.1879 56.1121 61.1949 56.2089C60.7198 56.1121 60.3286 56.2435 60.3845 56.7828C60.6989 59.7349 58.2609 62.5834 55.2291 62.5419C53.8599 62.5212 52.8888 61.9543 51.9667 61.0002C51.0027 60.0046 50.1085 59.0228 48.9489 58.2969C48.9349 58.0411 48.914 57.7853 48.9 57.5295C48.8371 56.6099 46.3991 57.4396 46.448 58.207C46.6995 62.0718 46.951 65.9366 47.1955 69.8014C47.2583 70.7278 49.6265 69.8913 49.6475 69.1238C49.6614 68.5707 49.6754 68.0176 49.6964 67.4645C49.6964 67.3194 49.6335 67.2226 49.5217 67.1603C49.368 64.8166 49.2213 62.4728 49.0676 60.1221C49.9409 60.8826 50.6534 61.9128 51.5336 62.618C53.0425 63.8279 54.9217 64.4916 56.8707 64.3741C58.8616 64.2565 60.5242 63.2333 61.5581 61.7607L61.9074 67.0359C61.9284 67.3263 62.7247 67.7065 62.9413 67.8448C63.0321 67.9001 64.1359 68.4325 64.1359 68.3979C64.1289 67.7895 64.1149 67.188 64.1079 66.5796C64.1079 66.5174 64.066 66.4551 64.0031 66.3929C63.8844 64.5884 63.7656 62.7839 63.6469 60.9794C65.1069 62.7977 67.028 64.1459 69.5847 63.9109C71.436 63.738 73.0217 62.5834 74.356 61.3873C74.6075 61.1592 74.838 60.9241 75.0755 60.6821C75.1594 62.9844 75.2502 65.2798 75.334 67.5821C75.334 67.6789 76.4587 67.0912 76.5355 67.0428C76.7521 66.9114 77.5555 66.5243 77.5555 66.2131V65.0101C77.5555 65.0101 77.5345 65.0032 77.5066 65.0101C77.4157 62.6664 77.3319 60.3157 77.2411 57.9719C77.2551 57.9512 77.269 57.9235 77.283 57.9028C79.7979 59.6382 82.0124 61.8298 85.2118 62.2308C86.8884 62.4382 88.4881 62.0234 89.7595 60.9103C90.2415 60.4885 90.6747 60.0046 91.0798 59.493C91.3104 61.6017 91.4221 63.7173 91.4151 65.8398C91.3872 65.8744 91.3732 65.9089 91.3732 65.9435C91.3732 66.4897 91.3802 67.0428 91.3872 67.589C91.3872 67.8102 93.951 67.6166 93.9649 67.1189C94.0977 62.9568 93.7833 58.8016 93.0288 54.7017L93.0358 54.6948Z" fill="#231F20"/>
</g>
<defs>
<clipPath id="clip0_60_76">
<rect width="94" height="72" fill="white"/>
</clipPath>
</defs>
</svg>
