<?xml version="1.0" encoding="UTF-8"?><svg id="Layer_2" xmlns="http://www.w3.org/2000/svg" xmlns:xlink="http://www.w3.org/1999/xlink" viewBox="0 0 93 103"><defs><style>.cls-1{fill:#9cb7d4;}.cls-2{clip-path:url(#clippath);}.cls-3{fill:none;}.cls-4{fill:#eabfc9;}.cls-5{fill:#231f20;}</style><clipPath id="clippath"><rect class="cls-3" width="93" height="103"/></clipPath></defs><g id="Layer_2-2"><ellipse class="cls-4" cx="31.89" cy="48.13" rx="28.2" ry="28.74"/><polygon class="cls-4" points="30.44 72.43 42.21 89.71 53.06 87.87 49.09 68.76 30.44 72.43"/><path class="cls-4" d="m41.29,94.14l3.52,7.8,11.01-.92s.61-8.87-3.67-8.56-10.85,1.68-10.85,1.68Z"/><path class="cls-1" d="m80.64,16.52c-10.9-.9-11.66-.27-14.57,12.1,1.33-12.64.82-13.49-9.77-16.22,10.9.9,11.66.27,14.57-12.1-1.33,12.64-.82,13.49,9.77,16.22Z"/><path class="cls-1" d="m16.29,77.09c-6.55,1.83-6.86,2.38-5.76,10.47-2.07-7.91-2.57-8.31-9.35-7.65,6.55-1.83,6.86-2.38,5.76-10.47,2.07,7.91,2.57,8.31,9.35,7.65Z"/><path class="cls-1" d="m89.87,82.09c-12.87,1.69-13.56,2.75-13.07,20.2-2.39-17.39-3.25-18.4-16.34-19.27,11.56-4.62,16.02-1.39,15.53-18.84,2.39,17.39.79,17.04,13.88,17.91Z"/></g><g id="Layer_1-2"><g class="cls-2"><path class="cls-5" d="m66.84,46.69c0-16.64-13.76-30.18-30.67-30.18S5.5,30.04,5.5,46.69s13.76,30.18,30.67,30.18c.15,0,.29,0,.44,0,2.65,5,5.65,10.7,5.86,11.19.17.5.28.86,1.39.86,1.36,0,4.22-.54,10.51-2.03l1-.24-1.88-15.05c8.06-5.45,13.36-14.57,13.36-24.9h0Zm-13.68,22.32c-.69.51-1.4.98-2.14,1.43l.31,2.48,1.49,11.96c-1.07.25-2.14.49-3.17.71,0-.12,0-.24-.02-.36-.04-.23-.08-.45-.11-.68-.04-.24-.13-.43-.25-.6-1.89-6.75-3.79-13.48-5.69-20.23.51-.61.85-1.33,1.11-2.11.46-1.42-1.7-1.87-2.6-1.51-.57.22-3.2,1.33-3.01-.27.08-.63.84-1.25,1.3-1.62.64-.5,1.33-.81,2.11-1.04.8-.29,1.49-1.2,1.06-2.05-.46-.91-1.64-.97-2.48-.71-1.32.48-2.74.59-4.1.25-.38-.09-1.13-.2-1.26-.66-.07-.27.13-.61.36-.88.06,0,.12,0,.18-.02,3.13-.28,6.14-1.29,8.88-2.82,1.11-.61.93-2.36-.38-2.6-3.43-.62-7.67.08-10.47,2.44-.15,0-.28,0-.43,0-.64-.02-1.79.04-2.33-.44-1.3-1.14,1.65-3.28,2.44-3.82,1.66-1.13,3.53-1.81,5.52-2.06.85-.11,1.82-.84,1.68-1.78-.15-.98-1.27-1.34-2.12-1.23-2.87.36-5.69,1.44-8,3.19-2.08,1.58-5.12,4.72-2.84,7.4.93,1.1,2.36,1.57,3.86,1.75-.21.71-.24,1.48.08,2.17.5,1.07,1.57,1.66,2.64,2.03.44.15.89.26,1.35.35-.67.91-1.04,1.95-.8,3.06.31,1.45,1.62,2.46,3,2.83.44.12.88.17,1.32.18,2.06,7.34,4.13,14.68,6.19,22.02.05.21.15.38.28.53-.77.15-1.41.25-1.83.29-.85-1.7-3.09-5.96-5.16-9.85-.41-.76-.8-1.5-1.17-2.22-.59.04-1.19.06-1.79.06-.27,0-.53-.02-.79-.02-15.28-.41-27.58-12.75-27.58-27.86s12.71-27.89,28.35-27.89,28.37,12.51,28.37,27.88c0,9.12-4.48,17.23-11.38,22.32h0Z"/><path class="cls-5" d="m55.65,97.37s-.04-.03-.06-.04c-.07.02-.15.04-.25.06,0,.04.09.05.31-.03h0Z"/><path class="cls-5" d="m58.21,96.13c.6-.47.97-1.07.74-1.8-.18-.57-.8-.78-1.33-.82-.38-.03-.77.02-1.15.08-.05,0-.09.02-.14.04.58-.49,1.03-1.09,1.04-1.86.04-1.44-1.59-1.86-2.74-1.8-1.59.08-3.21.51-4.78.78-1.67.29-3.34.58-5.01.87-.54.09-1.45.41-1.74.93-.15.28-.05.39.15.44-.02.07-.03.14,0,.2.83,2.49,1.66,4.99,2.48,7.47.14.43.24.94.66,1.19.46.26,1.11.13,1.6.05,1.23-.22,2.46-.49,3.69-.73,2.2-.44,5.33-.64,6.75-2.65.51-.72.67-1.72-.09-2.33-.03-.03-.08-.05-.11-.07h-.02Zm-1.98-.12c-.34.11-.65.25-.92.41-.21.12-.94.51-.79.85.1.25.51.2.82.12,0-.05.11-.12.25-.06.04,0,.07-.02.09-.02.11-.03.23-.07.36-.11-.16.08-.29.14-.39.17,0,0,.02,0,.02.02.09.09.21.15.3.25.18.24.24.55.18.85-.05.24-.28.65-.36.7.02,0-.5.11-.62.13-1.72.35-3.46.68-5.19,1.03-.28.05-.8.27-1.08.22-.32-.06-.38-.48-.47-.74-.28-.83-.55-1.67-.83-2.49-.52-1.57-1.04-3.15-1.56-4.71,1.79-.31,3.58-.62,5.36-.94.92-.16,2.18-.58,2.95.2.34.35.41.85.24,1.3-.08.21-.21.36-.36.49-1.57.3-3.15.6-4.72.91-.24.05.16.53.22.61.14.17.29.34.46.48.08.06.25.23.35.21,1.11-.21,2.22-.42,3.33-.64.13,0,.26-.02.41-.04.3-.05.62-.16.94-.22.02,0,.03,0,.05,0,.11-.02.21-.03.31-.03.32,0,.61.18.71.5.07.23-.08.38-.07.57h.02Z"/><path class="cls-5" d="m8.17,89.15c-1.33-7.8-1.83-8.03-8.03-8.62l-.14-2.27c6.09-1.32,6.56-1.61,6.95-9.52l2.28-.14c1.33,7.8,1.83,8.03,8.03,8.62l.14,2.27c-6.09,1.32-6.56,1.61-6.95,9.52l-2.28.14Zm-2.91-10.06c1.81.61,2.88,1.61,3.66,3.47.55-1.93,1.5-3.06,3.22-3.88-1.81-.61-2.88-1.61-3.66-3.47-.55,1.93-1.5,3.06-3.22,3.88Z"/><path class="cls-5" d="m66.21,29.52l-2.24-.47c1.13-11.48.66-12.36-8.34-15.75l.47-2.23c9.6.51,10.38-.12,13.95-11.07l2.24.47c-1.13,11.48-.66,12.36,8.34,15.75l-.47,2.23c-9.6-.51-10.38.11-13.95,11.07Zm-4.55-16.12c3.54,1.92,4.84,4.04,5,8.4,1.89-3.93,3.94-5.36,7.95-5.69-3.54-1.92-4.84-4.04-5-8.4-1.89,3.92-3.94,5.35-7.95,5.69Z"/><path class="cls-5" d="m77.32,103h-2.28c-1.7-15.59-2.73-16.82-15.68-18.82v-2.27c12.96-2,13.98-3.24,15.68-18.82h2.28c1.7,15.59,2.73,16.82,15.68,18.82v2.27c-12.96,2-13.99,3.24-15.68,18.82Zm-11.62-19.96c6.6,1.63,9.03,4.24,10.48,11.59,1.45-7.35,3.88-9.95,10.48-11.59-6.6-1.63-9.03-4.24-10.48-11.59-1.45,7.35-3.88,9.95-10.48,11.59Z"/></g></g></svg>