<svg width="80" height="89" viewBox="0 0 80 89" fill="none" xmlns="http://www.w3.org/2000/svg">
<g clip-path="url(#clip0_57_3)">
<path d="M57.4998 40.3424C57.4998 25.96 45.6662 14.2631 31.1166 14.2631C16.5669 14.2631 4.7334 25.96 4.7334 40.3424C4.7334 54.7248 16.5669 66.4218 31.1166 66.4218C31.2418 66.4218 31.3671 66.4151 31.4924 66.4151C33.7734 70.7385 36.351 75.6586 36.529 76.083C36.6741 76.514 36.773 76.8256 37.7289 76.8256C38.9023 76.8256 41.3613 76.3548 46.7672 75.0684L47.6308 74.8629L46.0156 61.8597C52.951 57.1517 57.5064 49.2676 57.5064 40.3424H57.4998ZM45.7322 59.6251C45.1388 60.0627 44.5257 60.4738 43.8929 60.8584L44.1566 63.0002L45.4421 73.3312C44.5257 73.5433 43.6028 73.7555 42.7194 73.9478C42.726 73.8484 42.7194 73.7423 42.7062 73.6362C42.6732 73.4373 42.6403 73.245 42.6139 73.046C42.581 72.8405 42.5018 72.6747 42.3964 72.5288C40.768 66.7002 39.1331 60.8783 37.5047 55.0497C37.9398 54.5193 38.2365 53.9026 38.4606 53.2263C38.8562 51.9995 36.9971 51.6083 36.2258 51.92C35.7379 52.1123 33.4767 53.0671 33.6349 51.6879C33.7009 51.1441 34.3535 50.607 34.7557 50.2888C35.3028 49.8578 35.9027 49.5925 36.5686 49.387C37.2608 49.135 37.8475 48.3525 37.4784 47.6165C37.0828 46.8341 36.0676 46.7744 35.3424 46.9998C34.2085 47.4109 32.9889 47.5104 31.8154 47.2187C31.4858 47.1391 30.8397 47.0462 30.7342 46.6484C30.6749 46.4163 30.8463 46.1246 31.0441 45.8858C31.0968 45.8858 31.1496 45.8792 31.1957 45.8726C33.892 45.6339 36.4763 44.7586 38.8364 43.439C39.7923 42.9086 39.6341 41.3967 38.5134 41.1912C35.5599 40.6541 31.9143 41.2641 29.508 43.2998C29.3828 43.2998 29.2641 43.3064 29.1388 43.2998C28.5851 43.2799 27.5962 43.3329 27.1347 42.9218C26.0206 41.9338 28.5521 40.0904 29.2377 39.6196C30.6683 38.6449 32.2703 38.0547 33.9843 37.8426C34.7161 37.7497 35.5468 37.1198 35.4281 36.3042C35.3028 35.4554 34.3337 35.1504 33.6086 35.2432C31.143 35.5549 28.7169 36.4832 26.726 38.0017C24.9394 39.3677 22.3222 42.0797 24.2802 44.3939C25.0845 45.3421 26.3107 45.7532 27.6028 45.9057C27.4182 46.5224 27.3984 47.1855 27.6753 47.7823C28.1038 48.7106 29.0268 49.2146 29.9497 49.5328C30.3321 49.6655 30.7144 49.7583 31.11 49.8379C30.5299 50.6203 30.2134 51.5221 30.4178 52.4836C30.6881 53.7368 31.8154 54.6121 33.002 54.9304C33.3778 55.0299 33.7602 55.0763 34.136 55.0829C35.9093 61.422 37.6893 67.7678 39.4627 74.107C39.5088 74.286 39.5945 74.4319 39.7 74.5645C39.0342 74.6905 38.487 74.7767 38.1244 74.8165C37.3927 73.351 35.4676 69.6709 33.6877 66.3024C33.3383 65.6459 33.002 65.0027 32.679 64.3861C32.1714 64.4192 31.6572 64.4391 31.1364 64.4391C30.9056 64.4391 30.6815 64.4259 30.4573 64.4192C17.3119 64.0612 6.73093 53.4053 6.73093 40.3424C6.73093 27.2795 17.6613 16.2457 31.1166 16.2457C44.5719 16.2457 55.522 27.0541 55.522 40.3358C55.522 48.2133 51.672 55.2222 45.7322 59.6184V59.6251Z" fill="#231F20"/>
<path d="M47.8745 84.1329C47.8745 84.1329 47.8416 84.1064 47.8218 84.0997C47.7625 84.1196 47.6899 84.1329 47.6108 84.1528C47.6108 84.1859 47.69 84.1926 47.8745 84.1263V84.1329Z" fill="#231F20"/>
<path d="M50.0766 83.0653C50.5908 82.6608 50.9138 82.1436 50.7161 81.507C50.5644 81.0164 50.0239 80.8307 49.569 80.7975C49.2393 80.771 48.9031 80.8108 48.5801 80.8705C48.5405 80.8771 48.501 80.8904 48.4614 80.9036C48.9625 80.4793 49.3448 79.962 49.358 79.299C49.391 78.0523 47.9934 77.6943 47.0045 77.7473C45.6332 77.8203 44.2422 78.185 42.8908 78.4237C41.4536 78.6756 40.0164 78.9276 38.5793 79.1796C38.1112 79.2592 37.3333 79.531 37.0828 79.9819C36.9509 80.2207 37.0432 80.3201 37.208 80.3599C37.1883 80.4196 37.1817 80.4793 37.2014 80.5323C37.9134 82.6873 38.6254 84.8424 39.3374 86.9908C39.4561 87.3621 39.5418 87.8064 39.9044 88.0186C40.2999 88.244 40.8603 88.1313 41.2822 88.0584C42.3436 87.8727 43.3984 87.634 44.4532 87.4284C46.3452 87.0505 49.035 86.8781 50.2612 85.1408C50.7029 84.5175 50.8347 83.6555 50.1821 83.125C50.1557 83.0985 50.1161 83.0852 50.0898 83.0653H50.0766ZM48.3757 82.9592C48.0857 83.052 47.8154 83.178 47.5846 83.3106C47.4066 83.4101 46.7803 83.7483 46.9056 84.0467C46.9913 84.2589 47.3407 84.2191 47.611 84.1528C47.611 84.113 47.7099 84.0533 47.822 84.0997C47.8549 84.0931 47.8813 84.0798 47.9011 84.0798C47.9934 84.0533 48.0988 84.0202 48.2109 83.987C48.0725 84.0599 47.9604 84.1064 47.8747 84.1329C47.8813 84.1329 47.8879 84.1395 47.8945 84.1528C47.9736 84.2323 48.0791 84.2788 48.1516 84.3716C48.3098 84.5772 48.3559 84.849 48.3098 85.1076C48.2702 85.3132 48.0725 85.6712 48 85.711C48.0131 85.7044 47.5714 85.8039 47.466 85.8238C45.9826 86.1288 44.4927 86.4139 43.0028 86.7123C42.7589 86.7587 42.3172 86.9444 42.0733 86.898C41.7964 86.8449 41.7437 86.4802 41.6712 86.2548C41.4338 85.5386 41.1965 84.8159 40.9592 84.0997C40.5109 82.7404 40.0626 81.3811 39.6143 80.0284C41.1503 79.7565 42.693 79.4913 44.229 79.2194C45.0201 79.0801 46.1079 78.7154 46.7672 79.3918C47.0638 79.6968 47.1232 80.1278 46.9715 80.519C46.899 80.6981 46.7869 80.8307 46.6617 80.9434C45.3102 81.202 43.9522 81.4606 42.6007 81.7259C42.3963 81.7656 42.7391 82.1834 42.7919 82.2563C42.9105 82.4022 43.0424 82.5481 43.1874 82.6675C43.2534 82.7205 43.405 82.8664 43.4907 82.8531C44.4466 82.6675 45.4025 82.4884 46.3584 82.3028C46.4705 82.3028 46.5826 82.2895 46.7078 82.2696C46.9649 82.2298 47.2418 82.1303 47.5121 82.0773C47.5253 82.0773 47.5385 82.0773 47.5517 82.0707C47.644 82.0574 47.7297 82.0441 47.8154 82.0441C48.0922 82.0441 48.3428 82.2033 48.4219 82.4752C48.4812 82.6741 48.3559 82.8001 48.3625 82.9658L48.3757 82.9592Z" fill="#231F20"/>
<path d="M7.02761 77.0312C5.8871 70.2876 5.452 70.0886 0.118665 69.5847L0 67.622C5.24104 66.4814 5.64318 66.2295 5.9794 59.3996L7.94396 59.2803C9.08447 66.0239 9.51957 66.2228 14.8529 66.7268L14.9716 68.6895C9.73053 69.83 9.32839 70.082 8.99217 76.9118L7.02761 77.0312ZM4.52246 68.3381C6.07829 68.8619 7.00124 69.7306 7.67367 71.3353C8.14833 69.6643 8.9658 68.6895 10.4425 67.98C8.88669 67.4562 7.96374 66.5875 7.29131 64.9828C6.81665 66.6538 5.99918 67.6286 4.52246 68.3381Z" fill="#231F20"/>
<path d="M56.9526 25.5091L55.0276 25.1046C55.9967 15.1847 55.5946 14.4222 47.855 11.4979L48.2571 9.57499C56.5109 10.0126 57.1834 9.47552 60.2555 0.0065918L62.1805 0.411077C61.2114 10.3309 61.6135 11.0935 69.3531 14.0177L68.951 15.9407C60.6972 15.4964 60.0247 16.0335 56.9526 25.5091ZM53.0367 11.5842C56.0824 13.2419 57.2032 15.0786 57.3416 18.845C58.9633 15.45 60.7301 14.2166 64.178 13.9315C61.1323 12.2738 60.0116 10.437 59.8731 6.67065C58.2514 10.059 56.4846 11.2924 53.0367 11.5842Z" fill="#231F20"/>
<path d="M66.5119 89H64.5473C63.0838 75.5326 62.2004 74.465 51.0591 72.7343V70.7716C62.207 69.0409 63.0838 67.9733 64.5473 54.506H66.5119C67.9754 67.9733 68.8588 69.0409 80.0002 70.7716V72.7343C68.8522 74.465 67.9688 75.5326 66.5119 89ZM56.5177 71.753C62.1938 73.1653 64.2836 75.4132 65.5296 81.7656C66.7756 75.4132 68.8654 73.1653 74.5416 71.753C68.8654 70.3406 66.7756 68.0927 65.5296 61.7403C64.2836 68.0927 62.1938 70.3406 56.5177 71.753Z" fill="#231F20"/>
</g>
<defs>
<clipPath id="clip0_57_3">
<rect width="80" height="89" fill="white"/>
</clipPath>
</defs>
</svg>
