<?xml version="1.0" encoding="UTF-8"?><svg id="Layer_2" xmlns="http://www.w3.org/2000/svg" xmlns:xlink="http://www.w3.org/1999/xlink" viewBox="0 0 98 73"><defs><style>.cls-1{fill:#9cb7d4;}.cls-2{clip-path:url(#clippath);}.cls-3{fill:none;}.cls-4{fill:#eabfc9;}.cls-5{fill:#231f20;}</style><clipPath id="clippath"><rect class="cls-3" width="98" height="73"/></clipPath></defs><g id="Layer_2-2"><path class="cls-1" d="m32.22,11.8C10.2-.12-6.54,17.76,11.04,26.94.15,23.88-3.02,55.22,25.41,63.24c.02.46,0,0,0,0,0,0-20.06-16.05-15.25-26.83s9.17-6.76,9.17-6.76C-2.18,9.89,32.22,11.8,32.22,11.8Z"/><path class="cls-1" d="m68.98,7.6c4.24,0,26.94,9.29,20.06,33.71s0,0,0,0h0s3.44-1.49,5.85-9.29S87.9-1.46,66.92,3.13s0,0,0,0l2.06,4.47Z"/><path class="cls-1" d="m87.1,43.29c.23,2.41.99,12-11.85,13.53,1.91,3.06-11.29,2.44-11.29,2.44-2.62,10.86-36.48,20.03-39.81,5.89l.57-3.55,3.44.57c.69,6.31,11.12,6.31,13.07,2.41,2.75,3.55,15.82.11,18.8-8.14,8.25-.69,23.27-4.7,21.32-13.99l5.73.84Z"/><path class="cls-1" d="m33.52,12.26c1.07-2.83,5.58-4.2,9.48-1.99,0,0,9.02-10.93,17.04-5.2l4.87-2.38s-4.01-5.02-16.71-.52c-5.59,3.07-5.07,6.28-5.07,6.28,0,0-7.97-4.96-10.55-1.72s.94,5.52.94,5.52"/><polygon class="cls-4" points="17.96 35.97 15.44 38.21 22.55 48.99 25.01 46.58 17.96 35.97"/><path class="cls-4" d="m79.82,25.48l-4.36,13.07-2.75,7.91,6.76-17.08s3.04-3.55,2.29-5.73-1.26-.17-1.26-.17l-.69,2.01Z"/><path class="cls-4" d="m37.03,24.58c.07,6.34-.04,15.49-.14,21.92,0,0-1.72-1.21-1.72-1.21,6.2-2.95,13.33-5.48,20.22-3.67.15.04.13.28-.02.3-5,.88-9.6,2.74-14.44,4.14-2.22.62-4.54,1.39-6.69,2.2.11-.96,1.14-11.54,1.27-12.81.4-3.63.78-7.27,1.23-10.9.02-.17.3-.17.3.02h0Z"/></g><g id="Layer_1-2"><g class="cls-2"><path class="cls-5" d="m66.86,42.94c-2.02-7.88-5.41-15.36-10-22.07-.02-.03-.06-.06-.1-.09.23-.37-.26-1.35-.82-1.36-3.55-.07-7.09.21-10.57.79-.51-1.85-1.02-3.7-1.52-5.56-.1-.37-.48-.58-.84-.64-.2-.03-.83,0-.73.37.51,1.85,1.02,3.71,1.53,5.56.06.21.21.37.4.48-3.44.64-6.82,1.58-10.11,2.83-.4.15-.24.78.1,1.15-1.04,7.89-1.58,15.83-1.62,23.79-.07.1-.11.22-.09.37.03.24.06.47.08.71,0,0,0,.01,0,.03-.93.43-.21,1.41.63,1.05,3.51-1.51,7.11-2.76,10.78-3.75-.36,2.23-.73,4.46-1.1,6.69-.14.16-.22.37-.23.6-.01.38-.02.76-.03,1.14-.01.39.46.61.78.59.38-.03.75-.29.81-.68.46-2.78.91-5.57,1.38-8.35.03-.15,0-.28-.04-.39,2.4-.59,4.82-1.07,7.26-1.43.01.02.01.03.03.05,1.87,2.32,3.75,4.65,5.62,6.97.23.28.72.39,1.06.37.23-.01.63-.14.39-.43-1.87-2.32-3.75-4.65-5.62-6.97-.05-.07-.12-.12-.21-.18,3.94-.52,7.92-.75,11.91-.66.54.01,1.12-.6.86-.96h-.02Zm-2.19-.25c-10.42-.02-20.81,1.99-30.46,5.91,0-8.12.54-16.23,1.62-24.27,6.35-2.28,13.07-3.43,19.82-3.4,4.31,6.37,7.51,13.45,9.49,20.88.07.24.14.48.2.73-.23-.01-.48.03-.67.15Z"/><path class="cls-5" d="m14.62,26.78c.33-.1-1.09-.5-1.09-.5-1.29-.2-2.6-.29-3.88-.16.26.14.55.29.78.36.03-.01.08-.03.19-.05.3-.06.59-.1.89-.19l1.08.5s.05,0,.08,0c-.12,0-.24,0-.36,0-.22.01-.44.05-.66.09-.38.07-.74.16-1.1.28,1.39.15,2.8.05,4.06-.34Z"/><path class="cls-5" d="m84.11,43.03c.12.09.23.19.33.29.19-.2.4-.25.61-.4-.07-.01-.13-.03-.2-.05-.28.05-.56.09-.83.09.03.02.07.04.1.07h0Z"/><path class="cls-5" d="m30.3,56.48c-.07.73-.29,1.41-.63,2.04,1.15-.67,2.4-1.18,3.62-1.52-1-.17-1.99-.34-3-.52Z"/><path class="cls-5" d="m84.11,43.03s-.07-.04-.1-.07c-.26,0-.51,0-.76-.05.38.14.77.28,1.15.43,0-.01.02-.01.03-.03-.1-.1-.21-.2-.33-.29h0Z"/><path class="cls-5" d="m23.61,62.1h-.11c.26,0,.21,0,.11,0Z"/><path class="cls-5" d="m10.72,26.5c-.06.03-.16.02-.29-.01-.1.05.22.05.29.01Z"/><path class="cls-5" d="m36.77,6.35c.07.01.12.03.19.05.01,0,.03,0,.05-.01.19,0,.11,0-.23-.04Z"/><path class="cls-5" d="m62.77,12.92s.05,0,.07.01c.49.1.64.12.43.05-.1-.03-.2-.07-.29-.12h-.01c-.05.01-.1.03-.16.05t-.05.01h0Z"/><path class="cls-5" d="m63.95,59.26c.27.01.55,0,.82,0,0-.05,0-.1,0-.16-.28.05-.55.1-.83.15h0Z"/><path class="cls-5" d="m84.85,42.88c.07.01.12.03.2.05-.21.16-.42.21-.61.4.08.09.16.18.23.27.93.02,1.85-.04,2.75-.19-.42-.37-.94-.62-1.49-.8-.36.12-.72.21-1.08.27h0Z"/><path class="cls-5" d="m83.79,42.82c.08.05.16.1.23.15.27,0,.55-.04.83-.09-1.28-.29-1.64-.31-1.06-.06Z"/><path class="cls-5" d="m65.29,4.32c.75-.35,1.53-.65,2.29-.87-.36-.37-.76-.71-1.18-1.02-.74.14-1.48.33-2.2.57.42.4.78.84,1.09,1.32h0Z"/><path class="cls-5" d="m44.33,8.96c-.91-.65-1.89-1.26-2.92-1.78-.14.48-.23.96-.27,1.47,1.06.1,2.12.21,3.19.31h0Z"/><path class="cls-5" d="m85.03,44.31c.4,1.41-.33,2.9-1.11,4.03-1.6,2.28-3.83,4.19-6.13,5.73-4.52,3.02-9.96,4.72-15.4,4.48-.07,0-.83-.04-.83.15.05,4.15-2.95,7.34-6.39,9.21-3.73,2.03-8.02,3.21-12.19,3.85-3.77.58-7.89.85-11.66.09-3.19-.65-6.29-2.77-6.25-6.37,0-.99.22-1.88.57-2.7,1.54-.03,3.07-.35,4.45-1.09,1.84-.99,3.26-2.7,3.45-4.83.05-.5-2.67-.61-3-.52-3.12.9-6.41,2.58-7.9,5.51-.41-.14-.81-.29-1.21-.48-1.03-.47-2-1.06-2.93-1.71-1.75-1.22-3.39-2.61-5-4-3.25-2.82-6.41-5.97-8.35-9.89-1.82-3.67-2.6-8.07-1.23-12.03.7-2.01,2-3.79,3.69-5.07.81-.62,1.71-1.13,2.67-1.48.1-.03.2-.06.29-.09.36-.12.73-.22,1.1-.28.22-.04.44-.07.66-.09.12-.01.24-.01.36,0-.04,0-.07,0-.08,0q-.06,0,0,0l-1.08-.5c-.29.09-.59.13-.89.19-.11.02-.16.04-.19.05.12.03.22.05.29.01-.06.03-.38.03-.29-.01-.23-.07-.52-.21-.78-.36-.22-.12-.42-.25-.5-.29-1.04-.63-1.96-1.51-2.62-2.54-1.45-2.25-1.47-5.11-.52-7.56,2.13-5.55,8.33-8.14,13.96-7.51,3.45.39,6.76,1.73,9.98,3,.22.56.57,1.07,1.08,1.45.51.37,1.36.41,1.97.44.14,0,1.41-.05,1.17-.22-.43-.31-.74-.71-.93-1.14-.05-.11-.1-.23-.14-.35-.47-1.47.16-3.28,1.47-4.19.49-.34,1.04-.58,1.62-.71.23-.05.53-.03.76-.1-.07-.02-.12-.04-.19-.05.34.04.42.05.23.04-.01,0-.03,0-.05.01.1.03.2.05.29.08,1.45.47,2.73,1.37,3.95,2.26.29.21,3.15.82,3.19.31.28-4.12,4.06-6.53,7.7-7.44,3.69-.93,8.02-1.7,11.31.69.29.21.56.44.81.69.72-.24,1.45-.43,2.2-.57C63.05,0,58.18-.24,54.27.15c-4.4.44-9.75,1.37-12.21,5.54-.28.48-.5.97-.65,1.49,1.03.52,2.01,1.13,2.92,1.78-1.06-.1-2.12-.21-3.19-.31.03-.5.12-.99.27-1.47-2.58-1.3-5.48-2.02-8.32-1.23-1.47.41-2.8,1.37-3.24,2.89-.12.42-.16.85-.14,1.28-6.39-2.3-13.46-4.01-19.93-1.54-3.18,1.21-5.85,3.64-7.06,6.88-1.12,3.02-.68,6.37,1.56,8.75.94,1.01,2.18,1.77,3.53,2.28-.36.1-.73.22-1.08.37-1.88.8-3.52,2.2-4.69,3.87-2.76,3.93-2.46,9.16-.69,13.43,1.9,4.58,5.43,8.2,9.11,11.38,3.56,3.08,7.22,6.04,11.89,6.96-.2.5-.35,1.04-.44,1.61-.66,4.17,2.71,6.67,6.28,7.69,4.38,1.26,9.21,1.37,13.73,1.04,4.76-.35,9.51-1.41,13.94-3.25,4.33-1.8,8.88-5.16,8.92-10.33-.27,0-.55,0-.82,0,.28-.05.55-.1.83-.15,0,.05,0,.1,0,.16,5,.08,10-1.12,14.37-3.59,2.29-1.3,4.4-2.93,6.22-4.84,1.52-1.6,4.01-4.36,2.63-6.74-.16-.27-.35-.5-.57-.7-.89.15-1.81.21-2.75.19.16.22.28.46.35.71h-.01Zm-55.35,14.21c.34-.63.56-1.32.63-2.04,1,.17,1.99.34,3,.52-1.23.35-2.48.86-3.62,1.52-.71,1.33-1.94,2.4-3.36,3.01.83-1.23,2.02-2.23,3.36-3.01Zm-6.18,3.59h.11c.1,0,.14,0-.11,0Z"/><path class="cls-5" d="m97.78,26.6c-.76-4.85-3.23-9.3-6.16-13.16-2.74-3.59-6.11-6.73-10.14-8.77-4.26-2.16-9.36-3.02-14.09-2.41-.33.04-.65.1-.98.16.42.3.81.64,1.18,1.02.67-.2,1.32-.35,1.92-.44,3.63-.61,7.06.39,10.21,2.2,3.3,1.91,6.1,4.61,8.45,7.6,2.57,3.28,4.76,6.99,5.88,11.04,1.17,4.25,1.04,9-1.11,12.92-1.04,1.9-2.54,3.5-4.4,4.63-.74.44-1.65.91-2.59,1.22.55.18,1.06.43,1.49.8,2.65-.44,5.08-1.67,7.04-3.83,3.13-3.45,4.03-8.47,3.32-12.97h-.01Z"/><path class="cls-5" d="m81.17,42.95c-.12.13,1.16.43,1.15.43.79.13,1.57.2,2.35.22-.07-.1-.15-.19-.23-.27,0,0-.02.01-.03.03-.38-.14-.77-.28-1.15-.43.25.04.5.05.76.05-.07-.05-.15-.1-.23-.15-.58-.25-.21-.23,1.06.06.36-.07.72-.15,1.08-.27-.31-.1-.64-.18-.96-.24-1.24-.22-2.86-.46-3.8.58Z"/><path class="cls-5" d="m65.49,11.04c-.42.65-.98,1.19-1.67,1.54-.28.14-.56.2-.85.28h.01c.1.05.19.09.29.12.2.07.06.05-.43-.05-.02-.01-.05-.01-.07-.01-.07,0-.1.03,0,0,.01,0,.02,0,.05-.01.05-.02.1-.03.16-.05-1.37-.62-2.24-2-2.08-3.51.24-2.34,2.19-3.98,4.41-5.03-.31-.48-.68-.92-1.09-1.32-1.08.36-2.11.83-3.08,1.42-1.72,1.06-3.54,2.83-3.49,5.01.05,1.71,1.37,2.95,2.87,3.53,1.81.69,4.31,1.05,6.15.27,1.66-.7,2.69-2.45,2.93-4.18.27-1.97-.43-3.88-1.75-5.34-.08-.09-.18-.18-.27-.27-.76.22-1.54.51-2.29.87,1.3,2,1.61,4.54.2,6.72h0Z"/><path class="cls-5" d="m82.07,20.94l-.18-.41-.35.29c-3.17,2.64-4.47,5.34-3.98,8.24l-5.34,16.45c-.14.52-.23,1.2.17,1.41.08.04.16.06.23.06.32,0,.65-.29.94-.61.06-.07.12-.14,6.51-16.72,4.2-3.49,2.01-8.67,1.99-8.72h0Zm-.65,2.11h0s0,0,0,0h0,0Zm-8.41,22.93c-.1.11-.19.19-.25.24.01-.15.05-.35.09-.52l5.1-16.22,1.17.24c-1.73,4.64-5.79,15.48-6.11,16.26h0Zm6.46-16.86l-1.25-.26-.2-.04c-.29-1.98.31-3.81,1.82-5.64.05-.01.11-.02.16-.03-.11.28-.21.58-.29.87-.07.26-.13.51-.18.77-.05.24-.12.52.02.75.18.3.57.24.75-.02.14-.21.24-.46.35-.69.08-.17.18-.35.26-.52.02.04.05.08.08.12.13.12.33.13.47.04.14-.09.19-.23.24-.37h0c.01,1.54-.43,3.45-2.24,5.03h.01Z"/><path class="cls-5" d="m19.33,34.42l-4.4-3.01.16,5.06,7.77,12.1,3.9-1.92-7.43-12.24Zm-2.4,2.78l-.06-2.17c.1.1.2.21.29.32.09.1.22.14.35.1.12-.04.22-.14.23-.27.03-.18.05-.36.07-.54l1.77,1.22,6.26,10.69-2.36,1.21-6.55-10.56h0Z"/></g></g></svg>