<svg width="98" height="73" viewBox="0 0 98 73" fill="none" xmlns="http://www.w3.org/2000/svg">
<g clip-path="url(#clip0_57_52)">
<path d="M66.8581 42.9415C64.8381 35.0572 61.4495 27.5851 56.862 20.872C56.8425 20.8393 56.8034 20.8132 56.7643 20.7804C56.9923 20.414 56.5036 19.426 55.9432 19.4195C52.3918 19.3541 48.8534 19.6289 45.3736 20.2047C44.8653 18.353 44.3571 16.5013 43.8488 14.6497C43.7445 14.2833 43.3666 14.0674 43.0082 14.0085C42.8061 13.9757 42.1806 14.0019 42.2783 14.3749C42.7866 16.2265 43.2949 18.0847 43.8097 19.9364C43.8683 20.1458 44.0182 20.3028 44.2072 20.414C40.7665 21.0553 37.3845 21.9909 34.1003 23.2406C33.6962 23.3911 33.8591 24.0192 34.2045 24.3922C33.1619 32.283 32.621 40.2262 32.5884 48.1824C32.5168 48.2806 32.4777 48.4049 32.4972 48.5554C32.5233 48.7909 32.5559 49.0265 32.5819 49.262C32.5819 49.2686 32.5884 49.2751 32.5884 49.2882C31.6566 49.72 32.3799 50.6949 33.2205 50.3351C36.7264 48.8236 40.3299 47.5739 44.0052 46.5859C43.6402 48.8171 43.2753 51.0417 42.9039 53.2729C42.7605 53.4299 42.6823 53.6393 42.6758 53.8748C42.6628 54.2543 42.6563 54.6338 42.6432 55.0133C42.6302 55.3993 43.0994 55.6218 43.4187 55.6022C43.7966 55.576 44.1681 55.3143 44.2332 54.9217C44.6894 52.1409 45.1455 49.3536 45.6082 46.5729C45.6343 46.4224 45.6082 46.2915 45.5691 46.1868C47.9671 45.598 50.3847 45.1203 52.8284 44.7539C52.8414 44.7735 52.8414 44.7866 52.8609 44.8063C54.7311 47.129 56.6079 49.4518 58.4781 51.7745C58.7061 52.0559 59.1949 52.1606 59.5402 52.1409C59.7683 52.1279 60.1658 52.0035 59.9312 51.7156C58.061 49.3929 56.1843 47.0701 54.3141 44.7474C54.262 44.6819 54.1903 44.6231 54.1056 44.5707C58.048 44.0473 62.0295 43.8183 66.0175 43.9099C66.5584 43.923 67.1384 43.3079 66.8777 42.9546L66.8581 42.9415ZM64.6686 42.6929C54.2489 42.6732 43.8618 44.6819 34.2045 48.6077C34.211 40.4879 34.7454 32.3811 35.8271 24.3333C42.1806 22.0498 48.899 20.9048 55.6434 20.9309C59.9508 27.3038 63.1503 34.3768 65.1378 41.8096C65.203 42.0517 65.2747 42.2938 65.3398 42.5424C65.1118 42.5293 64.8641 42.5686 64.6686 42.6929Z" fill="#231F20"/>
<path d="M14.6227 26.7804C14.9485 26.6823 13.528 26.2832 13.5345 26.2832C12.2442 26.0803 10.9344 25.9953 9.65723 26.1261C9.91788 26.2701 10.2111 26.4206 10.4392 26.486C10.4653 26.4729 10.5239 26.4598 10.6282 26.4337C10.9279 26.3748 11.2212 26.3355 11.5209 26.2439L12.6026 26.7412C12.6026 26.7412 12.6482 26.7412 12.6873 26.7477C12.5635 26.7477 12.4462 26.7477 12.3224 26.7543C12.1009 26.7674 11.8793 26.8001 11.6643 26.8393C11.2863 26.9048 10.9214 27.0029 10.563 27.1207C11.9575 27.2712 13.3585 27.1665 14.6227 26.7804Z" fill="#231F20"/>
<path d="M84.1134 43.0266C84.2307 43.1182 84.3415 43.2163 84.4392 43.321C84.6282 43.1247 84.8367 43.0724 85.0452 42.9219C84.9735 42.9088 84.9149 42.8957 84.8497 42.8761C84.5695 42.9284 84.2893 42.9612 84.0156 42.9677C84.0482 42.9873 84.0808 43.007 84.1134 43.0331V43.0266Z" fill="#231F20"/>
<path d="M30.3009 56.479C30.2357 57.2053 30.0076 57.8923 29.6753 58.5204C30.8222 57.853 32.0733 57.3427 33.2984 56.9959C32.3014 56.8258 31.3044 56.6557 30.3009 56.479Z" fill="#231F20"/>
<path d="M84.1134 43.0266C84.1134 43.0266 84.0482 42.9874 84.0157 42.9612C83.755 42.9612 83.5009 42.9612 83.2598 42.9154C83.6442 43.0594 84.0287 43.1968 84.4132 43.3407C84.4197 43.3276 84.4327 43.3276 84.4392 43.3145C84.335 43.2098 84.2307 43.1117 84.1134 43.0201V43.0266Z" fill="#231F20"/>
<path d="M23.6088 62.0994C23.5697 62.0994 23.5371 62.0994 23.498 62.0994C23.7587 62.1059 23.7066 62.0994 23.6088 62.0994Z" fill="#231F20"/>
<path d="M10.7192 26.499C10.6606 26.5318 10.5563 26.5187 10.4325 26.486C10.3348 26.5318 10.6541 26.5318 10.7192 26.499Z" fill="#231F20"/>
<path d="M36.7651 6.34668C36.8303 6.35977 36.8889 6.37939 36.9541 6.39902C36.9671 6.39902 36.9867 6.39902 36.9997 6.38594C37.1887 6.39248 37.1105 6.38594 36.7651 6.34668Z" fill="#231F20"/>
<path d="M62.7721 12.9223C62.7721 12.9223 62.8178 12.9223 62.8438 12.9354C63.3326 13.0336 63.4824 13.0532 63.2739 12.9878C63.1762 12.9551 63.0784 12.9158 62.9807 12.87C62.9807 12.87 62.9741 12.87 62.9676 12.87C62.9155 12.8831 62.8634 12.9027 62.8112 12.9223C62.7852 12.9289 62.7852 12.9289 62.7656 12.9354L62.7721 12.9223Z" fill="#231F20"/>
<path d="M63.9518 59.2597C64.2255 59.2728 64.4992 59.2597 64.7729 59.2662C64.7729 59.2139 64.7794 59.1615 64.7794 59.1027C64.4992 59.155 64.2255 59.2073 63.9453 59.2531L63.9518 59.2597Z" fill="#231F20"/>
<path d="M84.85 42.8762C84.9152 42.8893 84.9738 42.9023 85.0455 42.922C84.8369 43.079 84.6284 43.1313 84.4395 43.3211C84.5242 43.4062 84.6024 43.4978 84.674 43.5959C85.6059 43.6155 86.5247 43.5566 87.424 43.4061C87.0004 43.0332 86.4856 42.7846 85.9382 42.6079C85.5798 42.7257 85.2149 42.8173 84.8565 42.8762H84.85Z" fill="#231F20"/>
<path d="M83.7878 42.8172C83.866 42.863 83.9442 42.9154 84.0158 42.9677C84.2895 42.9677 84.5697 42.9285 84.8499 42.8761C83.5662 42.5882 83.2078 42.5686 83.7878 42.8172Z" fill="#231F20"/>
<path d="M65.294 4.31841C66.0434 3.96509 66.8253 3.67066 67.5812 3.44819C67.2163 3.07524 66.8253 2.73501 66.4018 2.42749C65.6589 2.56489 64.9225 2.75464 64.1992 2.99673C64.6163 3.39585 64.9812 3.84077 65.2875 4.31841H65.294Z" fill="#231F20"/>
<path d="M44.331 8.9573C43.4253 8.30955 42.4413 7.69451 41.4117 7.17761C41.2683 7.65525 41.1771 8.13943 41.1445 8.64324C42.2067 8.74793 43.2689 8.85261 44.331 8.95076V8.9573Z" fill="#231F20"/>
<path d="M85.0257 44.3091C85.4298 45.7224 84.6999 47.2141 83.9114 48.3395C82.3084 50.6165 80.0863 52.5336 77.786 54.0712C73.2637 57.094 67.829 58.7887 62.3813 58.5531C62.3096 58.5531 61.5472 58.5139 61.5472 58.7036C61.5928 62.8519 58.5953 66.0448 55.1611 67.9161C51.4337 69.951 47.1394 71.1222 42.969 71.7634C39.2025 72.3457 35.0776 72.614 31.3111 71.8485C28.1181 71.2007 25.0228 69.0742 25.0619 65.4821C25.0684 64.4942 25.2835 63.5978 25.6288 62.7799C27.1732 62.7472 28.6981 62.4331 30.0795 61.6872C31.9172 60.6927 33.3442 58.9915 33.5332 56.8585C33.5788 56.3547 30.8615 56.25 30.5357 56.3416C27.4143 57.238 24.1301 58.9261 22.6378 61.8508C22.2273 61.7134 21.8233 61.5564 21.4258 61.3732C20.3962 60.9021 19.4252 60.3132 18.4999 59.6654C16.747 58.4484 15.1114 57.0548 13.4953 55.6611C10.2436 52.8411 7.08318 49.6874 5.14782 45.7747C3.32974 42.1041 2.54778 37.7007 3.91622 33.7487C4.61347 31.74 5.91675 29.9603 7.6045 28.6779C8.41253 28.0563 9.31179 27.546 10.2697 27.1992C10.3674 27.1665 10.4652 27.1403 10.5629 27.1076C10.9213 26.9898 11.2928 26.8917 11.6642 26.8262C11.8858 26.787 12.1008 26.7608 12.3224 26.7412C12.4462 26.7281 12.5635 26.7281 12.6873 26.7346C12.6482 26.7346 12.6221 26.7281 12.6026 26.7281C12.5439 26.7281 12.5439 26.7281 12.6026 26.7281L11.5208 26.2308C11.2276 26.3224 10.9344 26.3617 10.6281 26.4206C10.5173 26.4402 10.4652 26.4598 10.4391 26.4729C10.5564 26.5056 10.6607 26.5187 10.7258 26.486C10.6672 26.5187 10.3414 26.5187 10.4391 26.4729C10.2111 26.4075 9.91781 26.2635 9.65716 26.113C9.4356 25.9887 9.24011 25.8644 9.1554 25.8186C8.11277 25.1905 7.19396 24.3072 6.53581 23.2799C5.08265 21.0292 5.06962 18.1699 6.0145 15.7228C8.14536 10.1744 14.349 7.58333 19.9726 8.21146C23.4198 8.59749 26.7366 9.9388 29.9492 11.2147C30.1642 11.7774 30.5161 12.2877 31.0309 12.6607C31.5392 13.0336 32.3928 13.0663 32.9989 13.1056C33.1357 13.1121 34.4129 13.0598 34.1718 12.8831C33.7417 12.5691 33.4355 12.1765 33.24 11.7381C33.1878 11.6269 33.1422 11.5091 33.1031 11.3913C32.634 9.91918 33.2595 8.10677 34.5758 7.20384C35.0646 6.86361 35.6185 6.62806 36.1984 6.49066C36.433 6.43831 36.7262 6.45794 36.9608 6.39251C36.8957 6.37288 36.837 6.35325 36.7719 6.34017C37.1107 6.37942 37.1889 6.39251 37.0065 6.37942C36.9934 6.37942 36.9739 6.37942 36.9608 6.39251C37.0586 6.41868 37.1563 6.43831 37.2541 6.47103C38.7007 6.94212 39.9844 7.84505 41.203 8.72835C41.4962 8.93773 44.3569 9.54623 44.3895 9.03587C44.6697 4.92034 48.4492 2.50598 52.0854 1.59651C55.7802 0.667405 60.1071 -0.104666 63.3978 2.29006C63.6846 2.49944 63.9582 2.73499 64.2124 2.98362C64.9292 2.74153 65.6655 2.55833 66.4149 2.41438C63.0525 0.00656426 58.1782 -0.242069 54.2749 0.15051C49.8763 0.595432 44.5199 1.51799 42.0632 5.68587C41.783 6.16351 41.5679 6.66077 41.4115 7.17767C42.4411 7.69456 43.4251 8.3096 44.3309 8.95736C43.2687 8.85267 42.2065 8.74798 41.1444 8.64984C41.1769 8.14603 41.2682 7.6553 41.4115 7.18421C38.831 5.88216 35.9312 5.16897 33.0901 5.95413C31.6174 6.3598 30.2881 7.32161 29.8515 8.84613C29.7342 9.26488 29.6885 9.69671 29.7146 10.122C23.322 7.81888 16.2583 6.11116 9.78749 8.57786C6.60749 9.78832 3.93577 12.2223 2.73024 15.4545C1.60942 18.4708 2.05253 21.8274 4.28765 24.2025C5.23253 25.2101 6.47064 25.9756 7.81954 26.4795C7.45462 26.5841 7.0897 26.7019 6.73782 26.8524C4.85458 27.6572 3.21896 29.0508 2.04601 30.7258C-0.710419 34.6582 -0.417182 39.886 1.35528 44.1586C3.25155 48.7387 6.78343 52.3569 10.4652 55.5434C14.0231 58.6186 17.6854 61.5825 22.3576 62.4985C22.1556 63.0024 22.0057 63.5389 21.9145 64.1081C21.2563 68.276 24.6253 70.7754 28.1898 71.8027C32.5688 73.0589 37.404 73.1767 41.9198 72.843C46.6833 72.4897 51.4337 71.4297 55.8584 69.5977C60.1918 67.7984 64.7402 64.4353 64.7793 59.2663C64.5056 59.2663 64.2319 59.2663 63.9582 59.2598C64.2385 59.2074 64.5121 59.1551 64.7923 59.1093C64.7923 59.1616 64.7858 59.214 64.7858 59.2729C69.7904 59.3514 74.782 58.154 79.1545 55.6873C81.4482 54.3918 83.553 52.7561 85.3776 50.8455C86.9025 49.249 89.3917 46.4813 88.0102 44.1062C87.8539 43.838 87.6584 43.6024 87.4368 43.4061C86.5441 43.5566 85.6253 43.6155 84.6869 43.5959C84.8433 43.8118 84.9671 44.0539 85.0388 44.3091H85.0257ZM29.6755 58.5204C30.0144 57.8923 30.2359 57.2053 30.3011 56.479C31.2981 56.6491 32.2951 56.8192 33.2986 56.9959C32.0735 57.3492 30.8224 57.853 29.6755 58.5204C28.9652 59.8552 27.7336 60.9217 26.3196 61.5302C27.1537 60.3001 28.3397 59.299 29.6755 58.5204ZM23.498 62.106C23.5371 62.106 23.5697 62.106 23.6088 62.106C23.7065 62.1125 23.7521 62.1125 23.498 62.106Z" fill="#231F20"/>
<path d="M97.7781 26.6037C97.0222 21.7554 94.5525 17.2996 91.6136 13.4458C88.8767 9.86024 85.5077 6.71961 81.4741 4.67166C77.2189 2.51247 72.11 1.65534 67.3857 2.26384C67.0598 2.3031 66.734 2.36199 66.4082 2.42087C66.8253 2.72185 67.2162 3.06208 67.5877 3.44158C68.2589 3.24529 68.9105 3.0948 69.5035 2.99665C73.1331 2.38816 76.5673 3.38269 79.7147 5.20164C83.012 7.11219 85.814 9.81444 88.1599 12.8046C90.7339 16.0892 92.9234 19.7925 94.0377 23.8426C95.2106 28.089 95.0738 32.8392 92.9299 36.765C91.8873 38.669 90.3885 40.2655 88.5313 41.3908C87.795 41.8358 86.8827 42.3003 85.9443 42.6078C86.4917 42.7845 87.0065 43.0331 87.4301 43.4061C90.0757 42.9612 92.5129 41.7376 94.4678 39.5784C97.5956 36.1237 98.4949 31.1118 97.7911 26.6103L97.7781 26.6037Z" fill="#231F20"/>
<path d="M81.1744 42.9546C81.0506 43.0855 82.3343 43.3799 82.3278 43.3799C83.1163 43.5108 83.8983 43.5828 84.6737 43.5959C84.6021 43.4977 84.5239 43.4061 84.4391 43.3211C84.4326 43.3276 84.4196 43.3341 84.4131 43.3472C84.0286 43.2033 83.6441 43.0659 83.2597 42.9219C83.5073 42.9612 83.7614 42.9743 84.0156 42.9677C83.9439 42.9154 83.8657 42.863 83.7875 42.8172C83.2075 42.5686 83.5725 42.5882 84.8497 42.8761C85.2081 42.8107 85.573 42.7256 85.9314 42.6079C85.6186 42.5097 85.2928 42.4312 84.9735 42.3723C83.7289 42.1499 82.1128 41.9143 81.1744 42.9546Z" fill="#231F20"/>
<path d="M65.4897 11.038C65.0726 11.6858 64.5057 12.2289 63.815 12.5822C63.5348 12.7261 63.2546 12.7785 62.9678 12.8635C62.9678 12.8635 62.9744 12.8635 62.9809 12.8635C63.0786 12.9093 63.1699 12.9486 63.2741 12.9813C63.4761 13.0467 63.3328 13.0337 62.844 12.929C62.8245 12.9159 62.7984 12.9159 62.7724 12.9159C62.7072 12.9159 62.6746 12.9486 62.7724 12.9159C62.7854 12.9159 62.7919 12.9159 62.818 12.9028C62.8701 12.8832 62.9222 12.8701 62.9744 12.8505C61.6059 12.2289 60.7392 10.8483 60.8956 9.33687C61.1367 7.00103 63.0851 5.35874 65.3007 4.30532C64.9879 3.82769 64.623 3.38276 64.2125 2.98364C63.1373 3.34351 62.1012 3.8146 61.1302 4.40347C59.4099 5.46343 57.5853 7.23004 57.644 9.41539C57.6896 11.1231 59.0124 12.3663 60.5177 12.9486C62.3227 13.6422 64.8315 14.002 66.6692 13.2234C68.3308 12.5233 69.3604 10.7763 69.6015 9.04244C69.8752 7.073 69.1714 5.16245 67.8551 3.70337C67.7704 3.61177 67.6792 3.52671 67.588 3.43511C66.8321 3.65757 66.0501 3.94546 65.3007 4.30532C66.604 6.30093 66.9103 8.84615 65.4962 11.025L65.4897 11.038Z" fill="#231F20"/>
<path d="M82.0677 20.9375L81.8917 20.5253L81.5463 20.8132C78.3794 23.45 77.0761 26.1522 77.5713 29.0573L72.2344 45.5064C72.0911 46.0298 71.9998 46.7037 72.4038 46.9196C72.482 46.9589 72.5602 46.9785 72.6384 46.9785C72.9577 46.9785 73.2901 46.6841 73.5768 46.37C73.6354 46.3046 73.7006 46.2326 80.0867 29.6462C84.2897 26.1588 82.1002 20.9767 82.0742 20.9244L82.0677 20.9375ZM81.416 23.0443C81.416 23.0443 81.416 23.0509 81.416 23.0574C81.416 23.0574 81.416 23.0509 81.416 23.0443C81.416 23.0443 81.416 23.0443 81.4225 23.0443H81.416ZM73.0099 45.9709C72.9056 46.0821 72.8209 46.1607 72.7557 46.213C72.7688 46.0625 72.8013 45.8597 72.847 45.6896L77.9493 29.4695L79.1157 29.7116C77.3824 34.3506 73.3292 45.1923 73.0033 45.9709H73.0099ZM79.4676 29.1097L78.2165 28.8545L78.0145 28.8152C77.7277 26.8392 78.3207 25.0072 79.8325 23.1752C79.8847 23.1621 79.9433 23.1555 79.9954 23.1425C79.8847 23.4238 79.7804 23.7182 79.7022 24.0127C79.6305 24.2679 79.5719 24.523 79.5263 24.7847C79.4806 25.0268 79.409 25.3082 79.5458 25.5306C79.7283 25.8316 80.1192 25.7727 80.2952 25.511C80.4386 25.3016 80.5363 25.0465 80.6471 24.8175C80.7318 24.6473 80.823 24.4707 80.9077 24.3006C80.9273 24.3398 80.9533 24.3791 80.9859 24.4183C81.1163 24.5427 81.3117 24.5492 81.4551 24.4576C81.592 24.366 81.6441 24.2286 81.6962 24.0846C81.6962 24.0846 81.6962 24.0781 81.6962 24.0716C81.7092 25.6288 81.2661 27.5393 79.4546 29.1162L79.4676 29.1097Z" fill="#231F20"/>
<path d="M19.3274 34.4226L14.9224 31.4128L15.0853 36.4771L22.8593 48.5816L26.7561 46.6645L19.3274 34.4226ZM16.9229 37.2034L16.8642 35.0377C16.962 35.1423 17.0597 35.247 17.1575 35.3583C17.2487 35.4564 17.3725 35.5022 17.5029 35.4629C17.6267 35.4237 17.7179 35.319 17.7309 35.1881C17.757 35.0115 17.7831 34.8283 17.8026 34.6516L19.5686 35.8752L25.8308 46.5664L23.4719 47.7768L16.9229 37.2165V37.2034Z" fill="#231F20"/>
</g>
<defs>
<clipPath id="clip0_57_52">
<rect width="98" height="73" fill="white"/>
</clipPath>
</defs>
</svg>
